G04 #@! TF.FileFunction,Paste,Bot*
%FSLAX46Y46*%
G04 Gerber Fmt 4.6, Leading zero omitted, Abs format (unit mm)*
G04 Created by KiCad (PCBNEW 4.0.4-stable) date 11/13/16 19:36:12*
%MOMM*%
%LPD*%
G01*
G04 APERTURE LIST*
%ADD10C,0.100000*%
%ADD11R,0.600000X0.750000*%
%ADD12R,1.000000X0.950000*%
%ADD13R,0.750000X0.900000*%
%ADD14R,0.750000X0.600000*%
%ADD15R,0.950000X1.000000*%
%ADD16R,2.000000X2.500000*%
%ADD17R,0.600000X1.500000*%
%ADD18R,0.800000X0.800000*%
%ADD19R,0.550000X0.800000*%
%ADD20R,0.800000X0.900000*%
%ADD21R,0.800000X0.225000*%
%ADD22R,1.450000X1.200000*%
%ADD23R,0.600000X0.800000*%
%ADD24R,1.200000X1.450000*%
%ADD25R,1.650000X0.400000*%
G04 APERTURE END LIST*
D10*
D11*
X124900000Y-117450000D03*
X123950000Y-117450000D03*
D12*
X156575000Y-122800000D03*
X155125000Y-122800000D03*
D13*
X124600000Y-121750000D03*
X123650000Y-121750000D03*
X122700000Y-121750000D03*
X122700000Y-118950000D03*
X124600000Y-118950000D03*
D14*
X129850000Y-119375000D03*
X129850000Y-120325000D03*
X129850000Y-121575000D03*
X129850000Y-122525000D03*
X153050000Y-122225000D03*
X153050000Y-121275000D03*
D11*
X147175000Y-116750000D03*
X148125000Y-116750000D03*
D12*
X115775000Y-120000000D03*
X114325000Y-120000000D03*
D14*
X121050000Y-121775000D03*
X121050000Y-122725000D03*
D15*
X141150000Y-119675000D03*
X141150000Y-118225000D03*
D14*
X139650000Y-119825000D03*
X139650000Y-118875000D03*
D15*
X128350000Y-121175000D03*
X128350000Y-122625000D03*
D14*
X129750000Y-118125000D03*
X129750000Y-117175000D03*
D15*
X126350000Y-122625000D03*
X126350000Y-121175000D03*
X120950000Y-120375000D03*
X120950000Y-118925000D03*
D12*
X122550000Y-117350000D03*
X121100000Y-117350000D03*
D16*
X148850000Y-122500000D03*
D10*
G36*
X147850151Y-121250000D02*
X148850000Y-120250151D01*
X149849849Y-121250000D01*
X148850000Y-122249849D01*
X147850151Y-121250000D01*
X147850151Y-121250000D01*
G37*
D17*
X147350000Y-120000000D03*
X148850000Y-120000000D03*
X150350000Y-120000000D03*
D11*
X160175000Y-119750000D03*
X161125000Y-119750000D03*
X160175000Y-118350000D03*
X161125000Y-118350000D03*
D18*
X142625000Y-118125000D03*
D19*
X143550000Y-118125000D03*
X144350000Y-118125000D03*
D18*
X145275000Y-118125000D03*
X145275000Y-119575000D03*
D19*
X144350000Y-119575000D03*
X143550000Y-119575000D03*
D18*
X142625000Y-119575000D03*
D11*
X118125000Y-119300000D03*
X117175000Y-119300000D03*
X118125000Y-120700000D03*
X117175000Y-120700000D03*
D15*
X163350000Y-119275000D03*
X163350000Y-120725000D03*
D20*
X126400000Y-117550000D03*
X128300000Y-117550000D03*
X127350000Y-119650000D03*
D21*
X156850000Y-121200000D03*
X156850000Y-120800000D03*
X156850000Y-120400000D03*
X156850000Y-120000000D03*
X156850000Y-119600000D03*
X158650000Y-119600000D03*
X158650000Y-120000000D03*
X158650000Y-120400000D03*
X158650000Y-120800000D03*
X158650000Y-121200000D03*
D14*
X160250000Y-121075000D03*
X160250000Y-122025000D03*
D11*
X157975000Y-122700000D03*
X158925000Y-122700000D03*
D14*
X155250000Y-121375000D03*
X155250000Y-120425000D03*
X155250000Y-119175000D03*
X155250000Y-118225000D03*
D11*
X147175000Y-118150000D03*
X148125000Y-118150000D03*
D22*
X140350000Y-121500000D03*
X140350000Y-123200000D03*
D11*
X144175000Y-122050000D03*
X145125000Y-122050000D03*
X142925000Y-122550000D03*
X141975000Y-122550000D03*
X145125000Y-123450000D03*
X144175000Y-123450000D03*
D23*
X153350000Y-119950000D03*
X153350000Y-117550000D03*
D24*
X151400000Y-117850000D03*
X149700000Y-117850000D03*
D25*
X131725000Y-122650000D03*
X131725000Y-122000000D03*
X131725000Y-121350000D03*
X131725000Y-120700000D03*
X131725000Y-120050000D03*
X131725000Y-119400000D03*
X131725000Y-118750000D03*
X131725000Y-118100000D03*
X131725000Y-117450000D03*
X131725000Y-116800000D03*
X137775000Y-116800000D03*
X137775000Y-117450000D03*
X137775000Y-118100000D03*
X137775000Y-118750000D03*
X137775000Y-119400000D03*
X137775000Y-120050000D03*
X137775000Y-120700000D03*
X137775000Y-121350000D03*
X137775000Y-122000000D03*
X137775000Y-122650000D03*
M02*
