G04 #@! TF.FileFunction,Soldermask,Bot*
%FSLAX46Y46*%
G04 Gerber Fmt 4.6, Leading zero omitted, Abs format (unit mm)*
G04 Created by KiCad (PCBNEW 4.0.0-rc1-stable) date 2016-04-17 08:43:01*
%MOMM*%
G01*
G04 APERTURE LIST*
%ADD10C,0.100000*%
G04 APERTURE END LIST*
D10*
G36*
X132177506Y-123041249D02*
X132190116Y-123047488D01*
X132205415Y-123049999D01*
X132257769Y-123050365D01*
X132363428Y-123072054D01*
X132462858Y-123113850D01*
X132552283Y-123174167D01*
X132628282Y-123250700D01*
X132687975Y-123340543D01*
X132729074Y-123440259D01*
X132749958Y-123545726D01*
X132749958Y-123545741D01*
X132750023Y-123546070D01*
X132748303Y-123669267D01*
X132748227Y-123669601D01*
X132748227Y-123669612D01*
X132724409Y-123774447D01*
X132680538Y-123872983D01*
X132618365Y-123961120D01*
X132540250Y-124035507D01*
X132449184Y-124093300D01*
X132348622Y-124132306D01*
X132242402Y-124151034D01*
X132134565Y-124148776D01*
X132029216Y-124125613D01*
X131930381Y-124082433D01*
X131841806Y-124020872D01*
X131766881Y-123943285D01*
X131708452Y-123852622D01*
X131668746Y-123752337D01*
X131649274Y-123646243D01*
X131650781Y-123538394D01*
X131673205Y-123432893D01*
X131715698Y-123333752D01*
X131776636Y-123244755D01*
X131853701Y-123169287D01*
X131943953Y-123110227D01*
X132043960Y-123069822D01*
X132152514Y-123049114D01*
X132165826Y-123044560D01*
X132174486Y-123038482D01*
X132177506Y-123041249D01*
X132177506Y-123041249D01*
G37*
G36*
X124857769Y-123050365D02*
X124963428Y-123072054D01*
X125062858Y-123113850D01*
X125152283Y-123174167D01*
X125228282Y-123250700D01*
X125287975Y-123340543D01*
X125329074Y-123440259D01*
X125349958Y-123545726D01*
X125349958Y-123545741D01*
X125350023Y-123546070D01*
X125348303Y-123669267D01*
X125348227Y-123669601D01*
X125348227Y-123669612D01*
X125324409Y-123774447D01*
X125280538Y-123872983D01*
X125218365Y-123961120D01*
X125140250Y-124035507D01*
X125049184Y-124093300D01*
X124948622Y-124132306D01*
X124842402Y-124151034D01*
X124734565Y-124148776D01*
X124629216Y-124125613D01*
X124530381Y-124082433D01*
X124441806Y-124020872D01*
X124366881Y-123943285D01*
X124308452Y-123852622D01*
X124268746Y-123752337D01*
X124249274Y-123646243D01*
X124250781Y-123538394D01*
X124273205Y-123432893D01*
X124315698Y-123333752D01*
X124376636Y-123244755D01*
X124453701Y-123169287D01*
X124543953Y-123110227D01*
X124643960Y-123069822D01*
X124749907Y-123049611D01*
X124857769Y-123050365D01*
X124857769Y-123050365D01*
G37*
G36*
X123457769Y-123050365D02*
X123563428Y-123072054D01*
X123662858Y-123113850D01*
X123752283Y-123174167D01*
X123828282Y-123250700D01*
X123887975Y-123340543D01*
X123929074Y-123440259D01*
X123949958Y-123545726D01*
X123949958Y-123545741D01*
X123950023Y-123546070D01*
X123948303Y-123669267D01*
X123948227Y-123669601D01*
X123948227Y-123669612D01*
X123924409Y-123774447D01*
X123880538Y-123872983D01*
X123818365Y-123961120D01*
X123740250Y-124035507D01*
X123649184Y-124093300D01*
X123548622Y-124132306D01*
X123442402Y-124151034D01*
X123334565Y-124148776D01*
X123229216Y-124125613D01*
X123130381Y-124082433D01*
X123041806Y-124020872D01*
X122966881Y-123943285D01*
X122908452Y-123852622D01*
X122868746Y-123752337D01*
X122849274Y-123646243D01*
X122850781Y-123538394D01*
X122873205Y-123432893D01*
X122915698Y-123333752D01*
X122976636Y-123244755D01*
X123053701Y-123169287D01*
X123143953Y-123110227D01*
X123243960Y-123069822D01*
X123349907Y-123049611D01*
X123457769Y-123050365D01*
X123457769Y-123050365D01*
G37*
G36*
X138677506Y-123041249D02*
X138690116Y-123047488D01*
X138705415Y-123049999D01*
X138757769Y-123050365D01*
X138863428Y-123072054D01*
X138962858Y-123113850D01*
X139052283Y-123174167D01*
X139128282Y-123250700D01*
X139187975Y-123340543D01*
X139229074Y-123440259D01*
X139249958Y-123545726D01*
X139249958Y-123545741D01*
X139250023Y-123546070D01*
X139248303Y-123669267D01*
X139248227Y-123669601D01*
X139248227Y-123669612D01*
X139224409Y-123774447D01*
X139180538Y-123872983D01*
X139118365Y-123961120D01*
X139040250Y-124035507D01*
X138949184Y-124093300D01*
X138848622Y-124132306D01*
X138742402Y-124151034D01*
X138634565Y-124148776D01*
X138529216Y-124125613D01*
X138430381Y-124082433D01*
X138341806Y-124020872D01*
X138266881Y-123943285D01*
X138208452Y-123852622D01*
X138168746Y-123752337D01*
X138149274Y-123646243D01*
X138150781Y-123538394D01*
X138173205Y-123432893D01*
X138215698Y-123333752D01*
X138276636Y-123244755D01*
X138353701Y-123169287D01*
X138443953Y-123110227D01*
X138543960Y-123069822D01*
X138652514Y-123049114D01*
X138665826Y-123044560D01*
X138674486Y-123038482D01*
X138677506Y-123041249D01*
X138677506Y-123041249D01*
G37*
G36*
X137377506Y-123041249D02*
X137390116Y-123047488D01*
X137405415Y-123049999D01*
X137457769Y-123050365D01*
X137563428Y-123072054D01*
X137662858Y-123113850D01*
X137752283Y-123174167D01*
X137828282Y-123250700D01*
X137887975Y-123340543D01*
X137929074Y-123440259D01*
X137949958Y-123545726D01*
X137949958Y-123545741D01*
X137950023Y-123546070D01*
X137948303Y-123669267D01*
X137948227Y-123669601D01*
X137948227Y-123669612D01*
X137924409Y-123774447D01*
X137880538Y-123872983D01*
X137818365Y-123961120D01*
X137740250Y-124035507D01*
X137649184Y-124093300D01*
X137548622Y-124132306D01*
X137442402Y-124151034D01*
X137334565Y-124148776D01*
X137229216Y-124125613D01*
X137130381Y-124082433D01*
X137041806Y-124020872D01*
X136966881Y-123943285D01*
X136908452Y-123852622D01*
X136868746Y-123752337D01*
X136849274Y-123646243D01*
X136850781Y-123538394D01*
X136873205Y-123432893D01*
X136915698Y-123333752D01*
X136976636Y-123244755D01*
X137053701Y-123169287D01*
X137143953Y-123110227D01*
X137243960Y-123069822D01*
X137352514Y-123049114D01*
X137365826Y-123044560D01*
X137374486Y-123038482D01*
X137377506Y-123041249D01*
X137377506Y-123041249D01*
G37*
G36*
X134857769Y-123050365D02*
X134963428Y-123072054D01*
X135062858Y-123113850D01*
X135152283Y-123174167D01*
X135228282Y-123250700D01*
X135287975Y-123340543D01*
X135329074Y-123440259D01*
X135349958Y-123545726D01*
X135349958Y-123545741D01*
X135350023Y-123546070D01*
X135348303Y-123669267D01*
X135348227Y-123669601D01*
X135348227Y-123669612D01*
X135324409Y-123774447D01*
X135280538Y-123872983D01*
X135218365Y-123961120D01*
X135140250Y-124035507D01*
X135049184Y-124093300D01*
X134948622Y-124132306D01*
X134842402Y-124151034D01*
X134734565Y-124148776D01*
X134629216Y-124125613D01*
X134530381Y-124082433D01*
X134441806Y-124020872D01*
X134366881Y-123943285D01*
X134308452Y-123852622D01*
X134268746Y-123752337D01*
X134249274Y-123646243D01*
X134250781Y-123538394D01*
X134273205Y-123432893D01*
X134315698Y-123333752D01*
X134376636Y-123244755D01*
X134453701Y-123169287D01*
X134543953Y-123110227D01*
X134643960Y-123069822D01*
X134749907Y-123049611D01*
X134857769Y-123050365D01*
X134857769Y-123050365D01*
G37*
G36*
X136157769Y-123050365D02*
X136263428Y-123072054D01*
X136362858Y-123113850D01*
X136452283Y-123174167D01*
X136528282Y-123250700D01*
X136587975Y-123340543D01*
X136629074Y-123440259D01*
X136649958Y-123545726D01*
X136649958Y-123545741D01*
X136650023Y-123546070D01*
X136648303Y-123669267D01*
X136648227Y-123669601D01*
X136648227Y-123669612D01*
X136624409Y-123774447D01*
X136580538Y-123872983D01*
X136518365Y-123961120D01*
X136440250Y-124035507D01*
X136349184Y-124093300D01*
X136248622Y-124132306D01*
X136142402Y-124151034D01*
X136034565Y-124148776D01*
X135929216Y-124125613D01*
X135830381Y-124082433D01*
X135741806Y-124020872D01*
X135666881Y-123943285D01*
X135608452Y-123852622D01*
X135568746Y-123752337D01*
X135549274Y-123646243D01*
X135550781Y-123538394D01*
X135573205Y-123432893D01*
X135615698Y-123333752D01*
X135676636Y-123244755D01*
X135753701Y-123169287D01*
X135843953Y-123110227D01*
X135943960Y-123069822D01*
X136049907Y-123049611D01*
X136157769Y-123050365D01*
X136157769Y-123050365D01*
G37*
G36*
X133557769Y-123050365D02*
X133663428Y-123072054D01*
X133762858Y-123113850D01*
X133852283Y-123174167D01*
X133928282Y-123250700D01*
X133987975Y-123340543D01*
X134029074Y-123440259D01*
X134049958Y-123545726D01*
X134049958Y-123545741D01*
X134050023Y-123546070D01*
X134048303Y-123669267D01*
X134048227Y-123669601D01*
X134048227Y-123669612D01*
X134024409Y-123774447D01*
X133980538Y-123872983D01*
X133918365Y-123961120D01*
X133840250Y-124035507D01*
X133749184Y-124093300D01*
X133648622Y-124132306D01*
X133542402Y-124151034D01*
X133434565Y-124148776D01*
X133329216Y-124125613D01*
X133230381Y-124082433D01*
X133141806Y-124020872D01*
X133066881Y-123943285D01*
X133008452Y-123852622D01*
X132968746Y-123752337D01*
X132949274Y-123646243D01*
X132950781Y-123538394D01*
X132973205Y-123432893D01*
X133015698Y-123333752D01*
X133076636Y-123244755D01*
X133153701Y-123169287D01*
X133243953Y-123110227D01*
X133343960Y-123069822D01*
X133449907Y-123049611D01*
X133557769Y-123050365D01*
X133557769Y-123050365D01*
G37*
G36*
X112066733Y-121675068D02*
X112073771Y-121675117D01*
X112306510Y-121701223D01*
X112529746Y-121772038D01*
X112734976Y-121884864D01*
X112914383Y-122035404D01*
X113061133Y-122217924D01*
X113169637Y-122425472D01*
X113235761Y-122650142D01*
X113235764Y-122650176D01*
X113235768Y-122650189D01*
X113256990Y-122883375D01*
X113232513Y-123116245D01*
X113232510Y-123116254D01*
X113232506Y-123116294D01*
X113163252Y-123340019D01*
X113051861Y-123546031D01*
X112902577Y-123726485D01*
X112721086Y-123874505D01*
X112514300Y-123984455D01*
X112290097Y-124052146D01*
X112057016Y-124075000D01*
X111542949Y-124075000D01*
X111533267Y-124074932D01*
X111526229Y-124074883D01*
X111293490Y-124048777D01*
X111070254Y-123977962D01*
X110865024Y-123865136D01*
X110685617Y-123714596D01*
X110538867Y-123532076D01*
X110430363Y-123324528D01*
X110364239Y-123099858D01*
X110364236Y-123099824D01*
X110364232Y-123099811D01*
X110343010Y-122866625D01*
X110367487Y-122633755D01*
X110367490Y-122633746D01*
X110367494Y-122633706D01*
X110436748Y-122409981D01*
X110548139Y-122203969D01*
X110697423Y-122023515D01*
X110878914Y-121875495D01*
X111085700Y-121765545D01*
X111309903Y-121697854D01*
X111542984Y-121675000D01*
X112057051Y-121675000D01*
X112066733Y-121675068D01*
X112066733Y-121675068D01*
G37*
G36*
X115266733Y-121675068D02*
X115273771Y-121675117D01*
X115506510Y-121701223D01*
X115729746Y-121772038D01*
X115934976Y-121884864D01*
X116114383Y-122035404D01*
X116261133Y-122217924D01*
X116369637Y-122425472D01*
X116435761Y-122650142D01*
X116435764Y-122650176D01*
X116435768Y-122650189D01*
X116456990Y-122883375D01*
X116432513Y-123116245D01*
X116432510Y-123116254D01*
X116432506Y-123116294D01*
X116363252Y-123340019D01*
X116251861Y-123546031D01*
X116102577Y-123726485D01*
X115921086Y-123874505D01*
X115714300Y-123984455D01*
X115490097Y-124052146D01*
X115257016Y-124075000D01*
X114742949Y-124075000D01*
X114733267Y-124074932D01*
X114726229Y-124074883D01*
X114493490Y-124048777D01*
X114270254Y-123977962D01*
X114065024Y-123865136D01*
X113885617Y-123714596D01*
X113738867Y-123532076D01*
X113630363Y-123324528D01*
X113564239Y-123099858D01*
X113564236Y-123099824D01*
X113564232Y-123099811D01*
X113543010Y-122866625D01*
X113567487Y-122633755D01*
X113567490Y-122633746D01*
X113567494Y-122633706D01*
X113636748Y-122409981D01*
X113748139Y-122203969D01*
X113897423Y-122023515D01*
X114078914Y-121875495D01*
X114285700Y-121765545D01*
X114509903Y-121697854D01*
X114742984Y-121675000D01*
X115257051Y-121675000D01*
X115266733Y-121675068D01*
X115266733Y-121675068D01*
G37*
G36*
X118766733Y-121675068D02*
X118773771Y-121675117D01*
X119006510Y-121701223D01*
X119229746Y-121772038D01*
X119434976Y-121884864D01*
X119614383Y-122035404D01*
X119761133Y-122217924D01*
X119869637Y-122425472D01*
X119935761Y-122650142D01*
X119935764Y-122650176D01*
X119935768Y-122650189D01*
X119956990Y-122883375D01*
X119932513Y-123116245D01*
X119932510Y-123116254D01*
X119932506Y-123116294D01*
X119863252Y-123340019D01*
X119751861Y-123546031D01*
X119602577Y-123726485D01*
X119421086Y-123874505D01*
X119214300Y-123984455D01*
X118990097Y-124052146D01*
X118757016Y-124075000D01*
X118242949Y-124075000D01*
X118233267Y-124074932D01*
X118226229Y-124074883D01*
X117993490Y-124048777D01*
X117770254Y-123977962D01*
X117565024Y-123865136D01*
X117385617Y-123714596D01*
X117238867Y-123532076D01*
X117130363Y-123324528D01*
X117064239Y-123099858D01*
X117064236Y-123099824D01*
X117064232Y-123099811D01*
X117043010Y-122866625D01*
X117067487Y-122633755D01*
X117067490Y-122633746D01*
X117067494Y-122633706D01*
X117136748Y-122409981D01*
X117248139Y-122203969D01*
X117397423Y-122023515D01*
X117578914Y-121875495D01*
X117785700Y-121765545D01*
X118009903Y-121697854D01*
X118242984Y-121675000D01*
X118757051Y-121675000D01*
X118766733Y-121675068D01*
X118766733Y-121675068D01*
G37*
G36*
X144575000Y-123925000D02*
X143775000Y-123925000D01*
X143775000Y-122975000D01*
X144575000Y-122975000D01*
X144575000Y-123925000D01*
X144575000Y-123925000D01*
G37*
G36*
X145525000Y-123925000D02*
X144725000Y-123925000D01*
X144725000Y-122975000D01*
X145525000Y-122975000D01*
X145525000Y-123925000D01*
X145525000Y-123925000D01*
G37*
G36*
X141175000Y-123900000D02*
X139525000Y-123900000D01*
X139525000Y-122500000D01*
X141175000Y-122500000D01*
X141175000Y-123900000D01*
X141175000Y-123900000D01*
G37*
G36*
X149250000Y-120488019D02*
X149251980Y-120501949D01*
X149257761Y-120514775D01*
X149264645Y-120523374D01*
X149876626Y-121135355D01*
X149887875Y-121143805D01*
X149901033Y-121148787D01*
X149911981Y-121150000D01*
X149950000Y-121150000D01*
X149950000Y-121188019D01*
X149951980Y-121201949D01*
X149957761Y-121214775D01*
X149964645Y-121223374D01*
X149991271Y-121250000D01*
X149964645Y-121276626D01*
X149956195Y-121287875D01*
X149951213Y-121301033D01*
X149950000Y-121311981D01*
X149950000Y-123850000D01*
X147750000Y-123850000D01*
X147750000Y-121311981D01*
X147748020Y-121298051D01*
X147742239Y-121285225D01*
X147735355Y-121276626D01*
X147708729Y-121250000D01*
X147735355Y-121223374D01*
X147743805Y-121212125D01*
X147748787Y-121198967D01*
X147750000Y-121188019D01*
X147750000Y-121150000D01*
X147788019Y-121150000D01*
X147801949Y-121148020D01*
X147814775Y-121142239D01*
X147823374Y-121135355D01*
X148435355Y-120523374D01*
X148443805Y-120512125D01*
X148448787Y-120498967D01*
X148450000Y-120488019D01*
X148450000Y-119150000D01*
X149250000Y-119150000D01*
X149250000Y-120488019D01*
X149250000Y-120488019D01*
G37*
G36*
X155725000Y-123375000D02*
X154525000Y-123375000D01*
X154525000Y-122225000D01*
X155725000Y-122225000D01*
X155725000Y-123375000D01*
X155725000Y-123375000D01*
G37*
G36*
X157175000Y-123375000D02*
X155975000Y-123375000D01*
X155975000Y-122225000D01*
X157175000Y-122225000D01*
X157175000Y-123375000D01*
X157175000Y-123375000D01*
G37*
G36*
X128925000Y-123225000D02*
X127775000Y-123225000D01*
X127775000Y-122025000D01*
X128925000Y-122025000D01*
X128925000Y-123225000D01*
X128925000Y-123225000D01*
G37*
G36*
X126925000Y-123225000D02*
X125775000Y-123225000D01*
X125775000Y-122025000D01*
X126925000Y-122025000D01*
X126925000Y-123225000D01*
X126925000Y-123225000D01*
G37*
G36*
X159325000Y-123175000D02*
X158525000Y-123175000D01*
X158525000Y-122225000D01*
X159325000Y-122225000D01*
X159325000Y-123175000D01*
X159325000Y-123175000D01*
G37*
G36*
X158375000Y-123175000D02*
X157575000Y-123175000D01*
X157575000Y-122225000D01*
X158375000Y-122225000D01*
X158375000Y-123175000D01*
X158375000Y-123175000D01*
G37*
G36*
X121525000Y-123125000D02*
X120575000Y-123125000D01*
X120575000Y-122325000D01*
X121525000Y-122325000D01*
X121525000Y-123125000D01*
X121525000Y-123125000D01*
G37*
G36*
X142375000Y-123025000D02*
X141575000Y-123025000D01*
X141575000Y-122075000D01*
X142375000Y-122075000D01*
X142375000Y-123025000D01*
X142375000Y-123025000D01*
G37*
G36*
X143325000Y-123025000D02*
X142525000Y-123025000D01*
X142525000Y-122075000D01*
X143325000Y-122075000D01*
X143325000Y-123025000D01*
X143325000Y-123025000D01*
G37*
G36*
X132650000Y-122950000D02*
X132205764Y-122950000D01*
X132191834Y-122951980D01*
X132179008Y-122957761D01*
X132174786Y-122961359D01*
X132163173Y-122954187D01*
X132143145Y-122950000D01*
X130800000Y-122950000D01*
X130800000Y-116500000D01*
X132650000Y-116500000D01*
X132650000Y-122950000D01*
X132650000Y-122950000D01*
G37*
G36*
X138700000Y-122950819D02*
X138691834Y-122951980D01*
X138679008Y-122957761D01*
X138674786Y-122961359D01*
X138663173Y-122954187D01*
X138643145Y-122950000D01*
X137405764Y-122950000D01*
X137391834Y-122951980D01*
X137379008Y-122957761D01*
X137374786Y-122961359D01*
X137363173Y-122954187D01*
X137343145Y-122950000D01*
X136850000Y-122950000D01*
X136850000Y-116500000D01*
X138700000Y-116500000D01*
X138700000Y-122950819D01*
X138700000Y-122950819D01*
G37*
G36*
X130325000Y-122925000D02*
X129375000Y-122925000D01*
X129375000Y-122125000D01*
X130325000Y-122125000D01*
X130325000Y-122925000D01*
X130325000Y-122925000D01*
G37*
G36*
X153525000Y-122625000D02*
X152575000Y-122625000D01*
X152575000Y-121825000D01*
X153525000Y-121825000D01*
X153525000Y-122625000D01*
X153525000Y-122625000D01*
G37*
G36*
X144575000Y-122525000D02*
X143775000Y-122525000D01*
X143775000Y-121575000D01*
X144575000Y-121575000D01*
X144575000Y-122525000D01*
X144575000Y-122525000D01*
G37*
G36*
X145525000Y-122525000D02*
X144725000Y-122525000D01*
X144725000Y-121575000D01*
X145525000Y-121575000D01*
X145525000Y-122525000D01*
X145525000Y-122525000D01*
G37*
G36*
X160725000Y-122425000D02*
X159775000Y-122425000D01*
X159775000Y-121625000D01*
X160725000Y-121625000D01*
X160725000Y-122425000D01*
X160725000Y-122425000D01*
G37*
G36*
X168415537Y-120150731D02*
X168626855Y-120194109D01*
X168825717Y-120277703D01*
X169004559Y-120398333D01*
X169156568Y-120551407D01*
X169275942Y-120731081D01*
X169358148Y-120930524D01*
X169399981Y-121141796D01*
X169399981Y-121141805D01*
X169400047Y-121142139D01*
X169396606Y-121388534D01*
X169396530Y-121388868D01*
X169396530Y-121388880D01*
X169348817Y-121598893D01*
X169261074Y-121795965D01*
X169136726Y-121972240D01*
X168980502Y-122121010D01*
X168798367Y-122236596D01*
X168597243Y-122314608D01*
X168384802Y-122352066D01*
X168169128Y-122347549D01*
X167958434Y-122301225D01*
X167760756Y-122214861D01*
X167583618Y-122091747D01*
X167433763Y-121936567D01*
X167316907Y-121755244D01*
X167237495Y-121554671D01*
X167198552Y-121342488D01*
X167201565Y-121126789D01*
X167246414Y-120915786D01*
X167331398Y-120717506D01*
X167453273Y-120539512D01*
X167607401Y-120388577D01*
X167787908Y-120270457D01*
X167987921Y-120189646D01*
X168199818Y-120149225D01*
X168415537Y-120150731D01*
X168415537Y-120150731D01*
G37*
G36*
X125075000Y-122300000D02*
X122225000Y-122300000D01*
X122225000Y-121200000D01*
X125075000Y-121200000D01*
X125075000Y-122300000D01*
X125075000Y-122300000D01*
G37*
G36*
X141175000Y-122200000D02*
X139525000Y-122200000D01*
X139525000Y-120800000D01*
X141175000Y-120800000D01*
X141175000Y-122200000D01*
X141175000Y-122200000D01*
G37*
G36*
X121525000Y-122175000D02*
X120575000Y-122175000D01*
X120575000Y-121375000D01*
X121525000Y-121375000D01*
X121525000Y-122175000D01*
X121525000Y-122175000D01*
G37*
G36*
X166650000Y-122075000D02*
X164650000Y-122075000D01*
X164650000Y-120475000D01*
X166650000Y-120475000D01*
X166650000Y-122075000D01*
X166650000Y-122075000D01*
G37*
G36*
X130325000Y-121975000D02*
X129375000Y-121975000D01*
X129375000Y-121175000D01*
X130325000Y-121175000D01*
X130325000Y-121975000D01*
X130325000Y-121975000D01*
G37*
G36*
X155725000Y-121775000D02*
X154775000Y-121775000D01*
X154775000Y-120975000D01*
X155725000Y-120975000D01*
X155725000Y-121775000D01*
X155725000Y-121775000D01*
G37*
G36*
X128925000Y-121775000D02*
X127775000Y-121775000D01*
X127775000Y-120575000D01*
X128925000Y-120575000D01*
X128925000Y-121775000D01*
X128925000Y-121775000D01*
G37*
G36*
X126925000Y-121775000D02*
X125775000Y-121775000D01*
X125775000Y-120575000D01*
X126925000Y-120575000D01*
X126925000Y-121775000D01*
X126925000Y-121775000D01*
G37*
G36*
X153525000Y-121675000D02*
X152575000Y-121675000D01*
X152575000Y-120875000D01*
X153525000Y-120875000D01*
X153525000Y-121675000D01*
X153525000Y-121675000D01*
G37*
G36*
X160725000Y-121475000D02*
X159775000Y-121475000D01*
X159775000Y-120675000D01*
X160725000Y-120675000D01*
X160725000Y-121475000D01*
X160725000Y-121475000D01*
G37*
G36*
X157350000Y-121412500D02*
X156350000Y-121412500D01*
X156350000Y-119387500D01*
X157350000Y-119387500D01*
X157350000Y-121412500D01*
X157350000Y-121412500D01*
G37*
G36*
X159150000Y-121412500D02*
X158150000Y-121412500D01*
X158150000Y-119387500D01*
X159150000Y-119387500D01*
X159150000Y-121412500D01*
X159150000Y-121412500D01*
G37*
G36*
X163925000Y-121325000D02*
X162775000Y-121325000D01*
X162775000Y-120125000D01*
X163925000Y-120125000D01*
X163925000Y-121325000D01*
X163925000Y-121325000D01*
G37*
G36*
X118525000Y-121175000D02*
X117725000Y-121175000D01*
X117725000Y-120225000D01*
X118525000Y-120225000D01*
X118525000Y-121175000D01*
X118525000Y-121175000D01*
G37*
G36*
X117575000Y-121175000D02*
X116775000Y-121175000D01*
X116775000Y-120225000D01*
X117575000Y-120225000D01*
X117575000Y-121175000D01*
X117575000Y-121175000D01*
G37*
G36*
X121525000Y-120975000D02*
X120375000Y-120975000D01*
X120375000Y-119775000D01*
X121525000Y-119775000D01*
X121525000Y-120975000D01*
X121525000Y-120975000D01*
G37*
G36*
X112594531Y-119100597D02*
X112767427Y-119136088D01*
X112930132Y-119204483D01*
X113076458Y-119303180D01*
X113200828Y-119428422D01*
X113298502Y-119575433D01*
X113365757Y-119738608D01*
X113399973Y-119911407D01*
X113399973Y-119911416D01*
X113400039Y-119911750D01*
X113397224Y-120113346D01*
X113397148Y-120113680D01*
X113397148Y-120113691D01*
X113358123Y-120285459D01*
X113286334Y-120446699D01*
X113184592Y-120590927D01*
X113056778Y-120712644D01*
X112907755Y-120807216D01*
X112743199Y-120871043D01*
X112569383Y-120901692D01*
X112392923Y-120897996D01*
X112220536Y-120860094D01*
X112058800Y-120789433D01*
X111913869Y-120688703D01*
X111791260Y-120561738D01*
X111695651Y-120413382D01*
X111630676Y-120249277D01*
X111598814Y-120075672D01*
X111601279Y-119899191D01*
X111637974Y-119726552D01*
X111707506Y-119564322D01*
X111807222Y-119418691D01*
X111933328Y-119295198D01*
X112081015Y-119198555D01*
X112244663Y-119132437D01*
X112418032Y-119099365D01*
X112594531Y-119100597D01*
X112594531Y-119100597D01*
G37*
G36*
X150750000Y-120850000D02*
X149950000Y-120850000D01*
X149950000Y-119150000D01*
X150750000Y-119150000D01*
X150750000Y-120850000D01*
X150750000Y-120850000D01*
G37*
G36*
X147750000Y-120850000D02*
X146950000Y-120850000D01*
X146950000Y-119150000D01*
X147750000Y-119150000D01*
X147750000Y-120850000D01*
X147750000Y-120850000D01*
G37*
G36*
X155725000Y-120825000D02*
X154775000Y-120825000D01*
X154775000Y-120025000D01*
X155725000Y-120025000D01*
X155725000Y-120825000D01*
X155725000Y-120825000D01*
G37*
G36*
X130325000Y-120725000D02*
X129375000Y-120725000D01*
X129375000Y-119925000D01*
X130325000Y-119925000D01*
X130325000Y-120725000D01*
X130325000Y-120725000D01*
G37*
G36*
X116375000Y-120575000D02*
X115175000Y-120575000D01*
X115175000Y-119425000D01*
X116375000Y-119425000D01*
X116375000Y-120575000D01*
X116375000Y-120575000D01*
G37*
G36*
X114925000Y-120575000D02*
X113725000Y-120575000D01*
X113725000Y-119425000D01*
X114925000Y-119425000D01*
X114925000Y-120575000D01*
X114925000Y-120575000D01*
G37*
G36*
X153750000Y-120450000D02*
X152950000Y-120450000D01*
X152950000Y-119450000D01*
X153750000Y-119450000D01*
X153750000Y-120450000D01*
X153750000Y-120450000D01*
G37*
G36*
X141725000Y-120275000D02*
X140575000Y-120275000D01*
X140575000Y-119075000D01*
X141725000Y-119075000D01*
X141725000Y-120275000D01*
X141725000Y-120275000D01*
G37*
G36*
X140125000Y-120225000D02*
X139175000Y-120225000D01*
X139175000Y-119425000D01*
X140125000Y-119425000D01*
X140125000Y-120225000D01*
X140125000Y-120225000D01*
G37*
G36*
X161525000Y-120225000D02*
X160725000Y-120225000D01*
X160725000Y-119275000D01*
X161525000Y-119275000D01*
X161525000Y-120225000D01*
X161525000Y-120225000D01*
G37*
G36*
X160575000Y-120225000D02*
X159775000Y-120225000D01*
X159775000Y-119275000D01*
X160575000Y-119275000D01*
X160575000Y-120225000D01*
X160575000Y-120225000D01*
G37*
G36*
X127850000Y-120200000D02*
X126850000Y-120200000D01*
X126850000Y-119100000D01*
X127850000Y-119100000D01*
X127850000Y-120200000D01*
X127850000Y-120200000D01*
G37*
G36*
X145775000Y-120075000D02*
X142125000Y-120075000D01*
X142125000Y-119075000D01*
X145775000Y-119075000D01*
X145775000Y-120075000D01*
X145775000Y-120075000D01*
G37*
G36*
X163925000Y-119875000D02*
X162775000Y-119875000D01*
X162775000Y-118675000D01*
X163925000Y-118675000D01*
X163925000Y-119875000D01*
X163925000Y-119875000D01*
G37*
G36*
X168415537Y-117650731D02*
X168626855Y-117694109D01*
X168825717Y-117777703D01*
X169004559Y-117898333D01*
X169156568Y-118051407D01*
X169275942Y-118231081D01*
X169358148Y-118430524D01*
X169399981Y-118641796D01*
X169399981Y-118641805D01*
X169400047Y-118642139D01*
X169396606Y-118888534D01*
X169396530Y-118888868D01*
X169396530Y-118888880D01*
X169348817Y-119098893D01*
X169261074Y-119295965D01*
X169136726Y-119472240D01*
X168980502Y-119621010D01*
X168798367Y-119736596D01*
X168597243Y-119814608D01*
X168384802Y-119852066D01*
X168169128Y-119847549D01*
X167958434Y-119801225D01*
X167760756Y-119714861D01*
X167583618Y-119591747D01*
X167433763Y-119436567D01*
X167316907Y-119255244D01*
X167237495Y-119054671D01*
X167198552Y-118842488D01*
X167201565Y-118626789D01*
X167246414Y-118415786D01*
X167331398Y-118217506D01*
X167453273Y-118039512D01*
X167607401Y-117888577D01*
X167787908Y-117770457D01*
X167987921Y-117689646D01*
X168199818Y-117649225D01*
X168415537Y-117650731D01*
X168415537Y-117650731D01*
G37*
G36*
X130325000Y-119775000D02*
X129375000Y-119775000D01*
X129375000Y-118975000D01*
X130325000Y-118975000D01*
X130325000Y-119775000D01*
X130325000Y-119775000D01*
G37*
G36*
X118525000Y-119775000D02*
X117725000Y-119775000D01*
X117725000Y-118825000D01*
X118525000Y-118825000D01*
X118525000Y-119775000D01*
X118525000Y-119775000D01*
G37*
G36*
X117575000Y-119775000D02*
X116775000Y-119775000D01*
X116775000Y-118825000D01*
X117575000Y-118825000D01*
X117575000Y-119775000D01*
X117575000Y-119775000D01*
G37*
G36*
X155725000Y-119575000D02*
X154775000Y-119575000D01*
X154775000Y-118775000D01*
X155725000Y-118775000D01*
X155725000Y-119575000D01*
X155725000Y-119575000D01*
G37*
G36*
X121525000Y-119525000D02*
X120375000Y-119525000D01*
X120375000Y-118325000D01*
X121525000Y-118325000D01*
X121525000Y-119525000D01*
X121525000Y-119525000D01*
G37*
G36*
X166650000Y-119525000D02*
X164650000Y-119525000D01*
X164650000Y-117925000D01*
X166650000Y-117925000D01*
X166650000Y-119525000D01*
X166650000Y-119525000D01*
G37*
G36*
X125075000Y-119500000D02*
X124125000Y-119500000D01*
X124125000Y-118400000D01*
X125075000Y-118400000D01*
X125075000Y-119500000D01*
X125075000Y-119500000D01*
G37*
G36*
X123175000Y-119500000D02*
X122225000Y-119500000D01*
X122225000Y-118400000D01*
X123175000Y-118400000D01*
X123175000Y-119500000D01*
X123175000Y-119500000D01*
G37*
G36*
X140125000Y-119275000D02*
X139175000Y-119275000D01*
X139175000Y-118475000D01*
X140125000Y-118475000D01*
X140125000Y-119275000D01*
X140125000Y-119275000D01*
G37*
G36*
X141725000Y-118825000D02*
X140575000Y-118825000D01*
X140575000Y-117625000D01*
X141725000Y-117625000D01*
X141725000Y-118825000D01*
X141725000Y-118825000D01*
G37*
G36*
X160575000Y-118825000D02*
X159775000Y-118825000D01*
X159775000Y-117875000D01*
X160575000Y-117875000D01*
X160575000Y-118825000D01*
X160575000Y-118825000D01*
G37*
G36*
X161525000Y-118825000D02*
X160725000Y-118825000D01*
X160725000Y-117875000D01*
X161525000Y-117875000D01*
X161525000Y-118825000D01*
X161525000Y-118825000D01*
G37*
G36*
X150400000Y-118675000D02*
X149000000Y-118675000D01*
X149000000Y-117025000D01*
X150400000Y-117025000D01*
X150400000Y-118675000D01*
X150400000Y-118675000D01*
G37*
G36*
X152100000Y-118675000D02*
X150700000Y-118675000D01*
X150700000Y-117025000D01*
X152100000Y-117025000D01*
X152100000Y-118675000D01*
X152100000Y-118675000D01*
G37*
G36*
X155725000Y-118625000D02*
X154775000Y-118625000D01*
X154775000Y-117825000D01*
X155725000Y-117825000D01*
X155725000Y-118625000D01*
X155725000Y-118625000D01*
G37*
G36*
X147575000Y-118625000D02*
X146775000Y-118625000D01*
X146775000Y-117675000D01*
X147575000Y-117675000D01*
X147575000Y-118625000D01*
X147575000Y-118625000D01*
G37*
G36*
X148525000Y-118625000D02*
X147725000Y-118625000D01*
X147725000Y-117675000D01*
X148525000Y-117675000D01*
X148525000Y-118625000D01*
X148525000Y-118625000D01*
G37*
G36*
X145775000Y-118625000D02*
X142125000Y-118625000D01*
X142125000Y-117625000D01*
X145775000Y-117625000D01*
X145775000Y-118625000D01*
X145775000Y-118625000D01*
G37*
G36*
X130225000Y-118525000D02*
X129275000Y-118525000D01*
X129275000Y-117725000D01*
X130225000Y-117725000D01*
X130225000Y-118525000D01*
X130225000Y-118525000D01*
G37*
G36*
X112066733Y-115925068D02*
X112073771Y-115925117D01*
X112306510Y-115951223D01*
X112529746Y-116022038D01*
X112734976Y-116134864D01*
X112914383Y-116285404D01*
X113061133Y-116467924D01*
X113169637Y-116675472D01*
X113235761Y-116900142D01*
X113235764Y-116900176D01*
X113235768Y-116900189D01*
X113256990Y-117133375D01*
X113232513Y-117366245D01*
X113232510Y-117366254D01*
X113232506Y-117366294D01*
X113163252Y-117590019D01*
X113051861Y-117796031D01*
X112902577Y-117976485D01*
X112721086Y-118124505D01*
X112514300Y-118234455D01*
X112290097Y-118302146D01*
X112057016Y-118325000D01*
X111542949Y-118325000D01*
X111533267Y-118324932D01*
X111526229Y-118324883D01*
X111293490Y-118298777D01*
X111070254Y-118227962D01*
X110865024Y-118115136D01*
X110685617Y-117964596D01*
X110538867Y-117782076D01*
X110430363Y-117574528D01*
X110364239Y-117349858D01*
X110364236Y-117349824D01*
X110364232Y-117349811D01*
X110343010Y-117116625D01*
X110367487Y-116883755D01*
X110367490Y-116883746D01*
X110367494Y-116883706D01*
X110436748Y-116659981D01*
X110548139Y-116453969D01*
X110697423Y-116273515D01*
X110878914Y-116125495D01*
X111085700Y-116015545D01*
X111309903Y-115947854D01*
X111542984Y-115925000D01*
X112057051Y-115925000D01*
X112066733Y-115925068D01*
X112066733Y-115925068D01*
G37*
G36*
X118766733Y-115925068D02*
X118773771Y-115925117D01*
X119006510Y-115951223D01*
X119229746Y-116022038D01*
X119434976Y-116134864D01*
X119614383Y-116285404D01*
X119761133Y-116467924D01*
X119869637Y-116675472D01*
X119935761Y-116900142D01*
X119935764Y-116900176D01*
X119935768Y-116900189D01*
X119956990Y-117133375D01*
X119932513Y-117366245D01*
X119932510Y-117366254D01*
X119932506Y-117366294D01*
X119863252Y-117590019D01*
X119751861Y-117796031D01*
X119602577Y-117976485D01*
X119421086Y-118124505D01*
X119214300Y-118234455D01*
X118990097Y-118302146D01*
X118757016Y-118325000D01*
X118242949Y-118325000D01*
X118233267Y-118324932D01*
X118226229Y-118324883D01*
X117993490Y-118298777D01*
X117770254Y-118227962D01*
X117565024Y-118115136D01*
X117385617Y-117964596D01*
X117238867Y-117782076D01*
X117130363Y-117574528D01*
X117064239Y-117349858D01*
X117064236Y-117349824D01*
X117064232Y-117349811D01*
X117043010Y-117116625D01*
X117067487Y-116883755D01*
X117067490Y-116883746D01*
X117067494Y-116883706D01*
X117136748Y-116659981D01*
X117248139Y-116453969D01*
X117397423Y-116273515D01*
X117578914Y-116125495D01*
X117785700Y-116015545D01*
X118009903Y-115947854D01*
X118242984Y-115925000D01*
X118757051Y-115925000D01*
X118766733Y-115925068D01*
X118766733Y-115925068D01*
G37*
G36*
X115266733Y-115925068D02*
X115273771Y-115925117D01*
X115506510Y-115951223D01*
X115729746Y-116022038D01*
X115934976Y-116134864D01*
X116114383Y-116285404D01*
X116261133Y-116467924D01*
X116369637Y-116675472D01*
X116435761Y-116900142D01*
X116435764Y-116900176D01*
X116435768Y-116900189D01*
X116456990Y-117133375D01*
X116432513Y-117366245D01*
X116432510Y-117366254D01*
X116432506Y-117366294D01*
X116363252Y-117590019D01*
X116251861Y-117796031D01*
X116102577Y-117976485D01*
X115921086Y-118124505D01*
X115714300Y-118234455D01*
X115490097Y-118302146D01*
X115257016Y-118325000D01*
X114742949Y-118325000D01*
X114733267Y-118324932D01*
X114726229Y-118324883D01*
X114493490Y-118298777D01*
X114270254Y-118227962D01*
X114065024Y-118115136D01*
X113885617Y-117964596D01*
X113738867Y-117782076D01*
X113630363Y-117574528D01*
X113564239Y-117349858D01*
X113564236Y-117349824D01*
X113564232Y-117349811D01*
X113543010Y-117116625D01*
X113567487Y-116883755D01*
X113567490Y-116883746D01*
X113567494Y-116883706D01*
X113636748Y-116659981D01*
X113748139Y-116453969D01*
X113897423Y-116273515D01*
X114078914Y-116125495D01*
X114285700Y-116015545D01*
X114509903Y-115947854D01*
X114742984Y-115925000D01*
X115257051Y-115925000D01*
X115266733Y-115925068D01*
X115266733Y-115925068D01*
G37*
G36*
X128800000Y-118100000D02*
X127800000Y-118100000D01*
X127800000Y-117000000D01*
X128800000Y-117000000D01*
X128800000Y-118100000D01*
X128800000Y-118100000D01*
G37*
G36*
X126900000Y-118100000D02*
X125900000Y-118100000D01*
X125900000Y-117000000D01*
X126900000Y-117000000D01*
X126900000Y-118100000D01*
X126900000Y-118100000D01*
G37*
G36*
X153750000Y-118050000D02*
X152950000Y-118050000D01*
X152950000Y-117050000D01*
X153750000Y-117050000D01*
X153750000Y-118050000D01*
X153750000Y-118050000D01*
G37*
G36*
X121700000Y-117925000D02*
X120500000Y-117925000D01*
X120500000Y-116775000D01*
X121700000Y-116775000D01*
X121700000Y-117925000D01*
X121700000Y-117925000D01*
G37*
G36*
X124350000Y-117925000D02*
X123550000Y-117925000D01*
X123550000Y-116975000D01*
X124350000Y-116975000D01*
X124350000Y-117925000D01*
X124350000Y-117925000D01*
G37*
G36*
X123150000Y-117925000D02*
X121950000Y-117925000D01*
X121950000Y-116775000D01*
X123150000Y-116775000D01*
X123150000Y-117925000D01*
X123150000Y-117925000D01*
G37*
G36*
X125300000Y-117925000D02*
X124500000Y-117925000D01*
X124500000Y-116975000D01*
X125300000Y-116975000D01*
X125300000Y-117925000D01*
X125300000Y-117925000D01*
G37*
G36*
X130225000Y-117575000D02*
X129275000Y-117575000D01*
X129275000Y-116775000D01*
X130225000Y-116775000D01*
X130225000Y-117575000D01*
X130225000Y-117575000D01*
G37*
G36*
X147575000Y-117225000D02*
X146775000Y-117225000D01*
X146775000Y-116275000D01*
X147575000Y-116275000D01*
X147575000Y-117225000D01*
X147575000Y-117225000D01*
G37*
G36*
X148525000Y-117225000D02*
X147725000Y-117225000D01*
X147725000Y-116275000D01*
X148525000Y-116275000D01*
X148525000Y-117225000D01*
X148525000Y-117225000D01*
G37*
M02*
