G04 #@! TF.FileFunction,Legend,Bot*
%FSLAX46Y46*%
G04 Gerber Fmt 4.6, Leading zero omitted, Abs format (unit mm)*
G04 Created by KiCad (PCBNEW 4.0.0-rc1-stable) date 2016-04-17 08:43:01*
%MOMM*%
G01*
G04 APERTURE LIST*
%ADD10C,0.100000*%
%ADD11C,0.120000*%
%ADD12C,0.152000*%
G04 APERTURE END LIST*
D10*
D11*
X165057143Y-123171429D02*
X165247619Y-122638095D01*
X165438095Y-123171429D01*
X166161905Y-122638095D02*
X165704762Y-122638095D01*
X165933333Y-122638095D02*
X165933333Y-123438095D01*
X165857143Y-123323810D01*
X165780952Y-123247619D01*
X165704762Y-123209524D01*
X166504762Y-122714286D02*
X166542857Y-122676190D01*
X166504762Y-122638095D01*
X166466667Y-122676190D01*
X166504762Y-122714286D01*
X166504762Y-122638095D01*
X167038095Y-123438095D02*
X167114286Y-123438095D01*
X167190476Y-123400000D01*
X167228571Y-123361905D01*
X167266667Y-123285714D01*
X167304762Y-123133333D01*
X167304762Y-122942857D01*
X167266667Y-122790476D01*
X167228571Y-122714286D01*
X167190476Y-122676190D01*
X167114286Y-122638095D01*
X167038095Y-122638095D01*
X166961905Y-122676190D01*
X166923809Y-122714286D01*
X166885714Y-122790476D01*
X166847619Y-122942857D01*
X166847619Y-123133333D01*
X166885714Y-123285714D01*
X166923809Y-123361905D01*
X166961905Y-123400000D01*
X167038095Y-123438095D01*
X163850000Y-122600000D02*
X162550000Y-123400000D01*
X163963217Y-123000000D02*
G75*
G03X163963217Y-123000000I-763217J0D01*
G01*
X163397619Y-122664286D02*
X163359524Y-122626190D01*
X163245238Y-122588095D01*
X163169048Y-122588095D01*
X163054762Y-122626190D01*
X162978571Y-122702381D01*
X162940476Y-122778571D01*
X162902381Y-122930952D01*
X162902381Y-123045238D01*
X162940476Y-123197619D01*
X162978571Y-123273810D01*
X163054762Y-123350000D01*
X163169048Y-123388095D01*
X163245238Y-123388095D01*
X163359524Y-123350000D01*
X163397619Y-123311905D01*
X150416666Y-116621429D02*
X150416666Y-116088095D01*
X150416666Y-116545238D02*
X150454761Y-116583333D01*
X150530952Y-116621429D01*
X150645238Y-116621429D01*
X150721428Y-116583333D01*
X150759523Y-116507143D01*
X150759523Y-116088095D01*
X151140476Y-116088095D02*
X151140476Y-116621429D01*
X151140476Y-116888095D02*
X151102381Y-116850000D01*
X151140476Y-116811905D01*
X151178571Y-116850000D01*
X151140476Y-116888095D01*
X151140476Y-116811905D01*
X151864285Y-116126190D02*
X151788095Y-116088095D01*
X151635714Y-116088095D01*
X151559523Y-116126190D01*
X151521428Y-116164286D01*
X151483333Y-116240476D01*
X151483333Y-116469048D01*
X151521428Y-116545238D01*
X151559523Y-116583333D01*
X151635714Y-116621429D01*
X151788095Y-116621429D01*
X151864285Y-116583333D01*
X152511904Y-116126190D02*
X152435714Y-116088095D01*
X152283333Y-116088095D01*
X152207142Y-116126190D01*
X152169047Y-116202381D01*
X152169047Y-116507143D01*
X152207142Y-116583333D01*
X152283333Y-116621429D01*
X152435714Y-116621429D01*
X152511904Y-116583333D01*
X152549999Y-116507143D01*
X152549999Y-116430952D01*
X152169047Y-116354762D01*
X153235713Y-116126190D02*
X153159523Y-116088095D01*
X153007142Y-116088095D01*
X152930951Y-116126190D01*
X152892856Y-116164286D01*
X152854761Y-116240476D01*
X152854761Y-116469048D01*
X152892856Y-116545238D01*
X152930951Y-116583333D01*
X153007142Y-116621429D01*
X153159523Y-116621429D01*
X153235713Y-116583333D01*
X153578570Y-116088095D02*
X153578570Y-116621429D01*
X153578570Y-116888095D02*
X153540475Y-116850000D01*
X153578570Y-116811905D01*
X153616665Y-116850000D01*
X153578570Y-116888095D01*
X153578570Y-116811905D01*
X153959522Y-116088095D02*
X153959522Y-116621429D01*
X153959522Y-116469048D02*
X153997617Y-116545238D01*
X154035713Y-116583333D01*
X154111903Y-116621429D01*
X154188094Y-116621429D01*
X154797617Y-116126190D02*
X154721427Y-116088095D01*
X154569046Y-116088095D01*
X154492855Y-116126190D01*
X154454760Y-116164286D01*
X154416665Y-116240476D01*
X154416665Y-116469048D01*
X154454760Y-116545238D01*
X154492855Y-116583333D01*
X154569046Y-116621429D01*
X154721427Y-116621429D01*
X154797617Y-116583333D01*
X155483331Y-116621429D02*
X155483331Y-116088095D01*
X155140474Y-116621429D02*
X155140474Y-116202381D01*
X155178569Y-116126190D01*
X155254760Y-116088095D01*
X155369046Y-116088095D01*
X155445236Y-116126190D01*
X155483331Y-116164286D01*
X155864284Y-116088095D02*
X155864284Y-116621429D01*
X155864284Y-116888095D02*
X155826189Y-116850000D01*
X155864284Y-116811905D01*
X155902379Y-116850000D01*
X155864284Y-116888095D01*
X155864284Y-116811905D01*
X156130950Y-116621429D02*
X156435712Y-116621429D01*
X156245236Y-116888095D02*
X156245236Y-116202381D01*
X156283331Y-116126190D01*
X156359522Y-116088095D01*
X156435712Y-116088095D01*
X156664284Y-116126190D02*
X156740474Y-116088095D01*
X156892855Y-116088095D01*
X156969046Y-116126190D01*
X157007141Y-116202381D01*
X157007141Y-116240476D01*
X156969046Y-116316667D01*
X156892855Y-116354762D01*
X156778570Y-116354762D01*
X156702379Y-116392857D01*
X156664284Y-116469048D01*
X156664284Y-116507143D01*
X156702379Y-116583333D01*
X156778570Y-116621429D01*
X156892855Y-116621429D01*
X156969046Y-116583333D01*
X157349998Y-116164286D02*
X157388093Y-116126190D01*
X157349998Y-116088095D01*
X157311903Y-116126190D01*
X157349998Y-116164286D01*
X157349998Y-116088095D01*
X158073807Y-116126190D02*
X157997617Y-116088095D01*
X157845236Y-116088095D01*
X157769045Y-116126190D01*
X157730950Y-116164286D01*
X157692855Y-116240476D01*
X157692855Y-116469048D01*
X157730950Y-116545238D01*
X157769045Y-116583333D01*
X157845236Y-116621429D01*
X157997617Y-116621429D01*
X158073807Y-116583333D01*
X158530950Y-116088095D02*
X158454759Y-116126190D01*
X158416664Y-116164286D01*
X158378569Y-116240476D01*
X158378569Y-116469048D01*
X158416664Y-116545238D01*
X158454759Y-116583333D01*
X158530950Y-116621429D01*
X158645236Y-116621429D01*
X158721426Y-116583333D01*
X158759521Y-116545238D01*
X158797617Y-116469048D01*
X158797617Y-116240476D01*
X158759521Y-116164286D01*
X158721426Y-116126190D01*
X158645236Y-116088095D01*
X158530950Y-116088095D01*
X159140474Y-116088095D02*
X159140474Y-116621429D01*
X159140474Y-116545238D02*
X159178569Y-116583333D01*
X159254760Y-116621429D01*
X159369046Y-116621429D01*
X159445236Y-116583333D01*
X159483331Y-116507143D01*
X159483331Y-116088095D01*
X159483331Y-116507143D02*
X159521427Y-116583333D01*
X159597617Y-116621429D01*
X159711903Y-116621429D01*
X159788093Y-116583333D01*
X159826188Y-116507143D01*
X159826188Y-116088095D01*
X160778570Y-116926190D02*
X160092855Y-115897619D01*
X161007141Y-116126190D02*
X161083331Y-116088095D01*
X161235712Y-116088095D01*
X161311903Y-116126190D01*
X161349998Y-116202381D01*
X161349998Y-116240476D01*
X161311903Y-116316667D01*
X161235712Y-116354762D01*
X161121427Y-116354762D01*
X161045236Y-116392857D01*
X161007141Y-116469048D01*
X161007141Y-116507143D01*
X161045236Y-116583333D01*
X161121427Y-116621429D01*
X161235712Y-116621429D01*
X161311903Y-116583333D01*
X161807141Y-116088095D02*
X161730950Y-116126190D01*
X161692855Y-116164286D01*
X161654760Y-116240476D01*
X161654760Y-116469048D01*
X161692855Y-116545238D01*
X161730950Y-116583333D01*
X161807141Y-116621429D01*
X161921427Y-116621429D01*
X161997617Y-116583333D01*
X162035712Y-116545238D01*
X162073808Y-116469048D01*
X162073808Y-116240476D01*
X162035712Y-116164286D01*
X161997617Y-116126190D01*
X161921427Y-116088095D01*
X161807141Y-116088095D01*
X162530951Y-116088095D02*
X162454760Y-116126190D01*
X162416665Y-116202381D01*
X162416665Y-116888095D01*
X163178570Y-116088095D02*
X163178570Y-116888095D01*
X163178570Y-116126190D02*
X163102380Y-116088095D01*
X162949999Y-116088095D01*
X162873808Y-116126190D01*
X162835713Y-116164286D01*
X162797618Y-116240476D01*
X162797618Y-116469048D01*
X162835713Y-116545238D01*
X162873808Y-116583333D01*
X162949999Y-116621429D01*
X163102380Y-116621429D01*
X163178570Y-116583333D01*
X163864285Y-116126190D02*
X163788095Y-116088095D01*
X163635714Y-116088095D01*
X163559523Y-116126190D01*
X163521428Y-116202381D01*
X163521428Y-116507143D01*
X163559523Y-116583333D01*
X163635714Y-116621429D01*
X163788095Y-116621429D01*
X163864285Y-116583333D01*
X163902380Y-116507143D01*
X163902380Y-116430952D01*
X163521428Y-116354762D01*
X164245237Y-116088095D02*
X164245237Y-116621429D01*
X164245237Y-116469048D02*
X164283332Y-116545238D01*
X164321428Y-116583333D01*
X164397618Y-116621429D01*
X164473809Y-116621429D01*
X164740475Y-116088095D02*
X164740475Y-116621429D01*
X164740475Y-116888095D02*
X164702380Y-116850000D01*
X164740475Y-116811905D01*
X164778570Y-116850000D01*
X164740475Y-116888095D01*
X164740475Y-116811905D01*
X165121427Y-116621429D02*
X165121427Y-116088095D01*
X165121427Y-116545238D02*
X165159522Y-116583333D01*
X165235713Y-116621429D01*
X165349999Y-116621429D01*
X165426189Y-116583333D01*
X165464284Y-116507143D01*
X165464284Y-116088095D01*
X166188094Y-116621429D02*
X166188094Y-115973810D01*
X166149999Y-115897619D01*
X166111904Y-115859524D01*
X166035713Y-115821429D01*
X165921428Y-115821429D01*
X165845237Y-115859524D01*
X166188094Y-116126190D02*
X166111904Y-116088095D01*
X165959523Y-116088095D01*
X165883332Y-116126190D01*
X165845237Y-116164286D01*
X165807142Y-116240476D01*
X165807142Y-116469048D01*
X165845237Y-116545238D01*
X165883332Y-116583333D01*
X165959523Y-116621429D01*
X166111904Y-116621429D01*
X166188094Y-116583333D01*
X166569047Y-116621429D02*
X166569047Y-115821429D01*
X166569047Y-116583333D02*
X166645238Y-116621429D01*
X166797619Y-116621429D01*
X166873809Y-116583333D01*
X166911904Y-116545238D01*
X166950000Y-116469048D01*
X166950000Y-116240476D01*
X166911904Y-116164286D01*
X166873809Y-116126190D01*
X166797619Y-116088095D01*
X166645238Y-116088095D01*
X166569047Y-116126190D01*
X167597619Y-116126190D02*
X167521429Y-116088095D01*
X167369048Y-116088095D01*
X167292857Y-116126190D01*
X167254762Y-116202381D01*
X167254762Y-116507143D01*
X167292857Y-116583333D01*
X167369048Y-116621429D01*
X167521429Y-116621429D01*
X167597619Y-116583333D01*
X167635714Y-116507143D01*
X167635714Y-116430952D01*
X167254762Y-116354762D01*
X167978571Y-116621429D02*
X167978571Y-116088095D01*
X167978571Y-116545238D02*
X168016666Y-116583333D01*
X168092857Y-116621429D01*
X168207143Y-116621429D01*
X168283333Y-116583333D01*
X168321428Y-116507143D01*
X168321428Y-116088095D01*
X169273810Y-116926190D02*
X168588095Y-115897619D01*
D12*
X125525000Y-118150000D02*
X125525000Y-116750000D01*
X125525000Y-116750000D02*
X123325000Y-116750000D01*
X123325000Y-116750000D02*
X123325000Y-118150000D01*
X123325000Y-118150000D02*
X125525000Y-118150000D01*
X157350000Y-123600000D02*
X157350000Y-122000000D01*
X157350000Y-122000000D02*
X154350000Y-122000000D01*
X154350000Y-122000000D02*
X154350000Y-123600000D01*
X154350000Y-123600000D02*
X157350000Y-123600000D01*
X125550000Y-122550000D02*
X125550000Y-118150000D01*
X125550000Y-118150000D02*
X121750000Y-118150000D01*
X121750000Y-118150000D02*
X121750000Y-122550000D01*
X121750000Y-122550000D02*
X125550000Y-122550000D01*
X130550000Y-118750000D02*
X129150000Y-118750000D01*
X129150000Y-118750000D02*
X129150000Y-120950000D01*
X129150000Y-120950000D02*
X130550000Y-120950000D01*
X130550000Y-120950000D02*
X130550000Y-118750000D01*
X130550000Y-120950000D02*
X129150000Y-120950000D01*
X129150000Y-120950000D02*
X129150000Y-123150000D01*
X129150000Y-123150000D02*
X130550000Y-123150000D01*
X130550000Y-123150000D02*
X130550000Y-120950000D01*
X152350000Y-122850000D02*
X153750000Y-122850000D01*
X153750000Y-122850000D02*
X153750000Y-120650000D01*
X153750000Y-120650000D02*
X152350000Y-120650000D01*
X152350000Y-120650000D02*
X152350000Y-122850000D01*
X146550000Y-116050000D02*
X146550000Y-117450000D01*
X146550000Y-117450000D02*
X148750000Y-117450000D01*
X148750000Y-117450000D02*
X148750000Y-116050000D01*
X148750000Y-116050000D02*
X146550000Y-116050000D01*
X116550000Y-120800000D02*
X116550000Y-119200000D01*
X116550000Y-119200000D02*
X113550000Y-119200000D01*
X113550000Y-119200000D02*
X113550000Y-120800000D01*
X113550000Y-120800000D02*
X116550000Y-120800000D01*
X121750000Y-121150000D02*
X120350000Y-121150000D01*
X120350000Y-121150000D02*
X120350000Y-123350000D01*
X120350000Y-123350000D02*
X121750000Y-123350000D01*
X121750000Y-123350000D02*
X121750000Y-121150000D01*
X140350000Y-120450000D02*
X141950000Y-120450000D01*
X141950000Y-120450000D02*
X141950000Y-117450000D01*
X141950000Y-117450000D02*
X140350000Y-117450000D01*
X140350000Y-117450000D02*
X140350000Y-120450000D01*
X138950000Y-120450000D02*
X140350000Y-120450000D01*
X140350000Y-120450000D02*
X140350000Y-118250000D01*
X140350000Y-118250000D02*
X138950000Y-118250000D01*
X138950000Y-118250000D02*
X138950000Y-120450000D01*
X129150000Y-120400000D02*
X127550000Y-120400000D01*
X127550000Y-120400000D02*
X127550000Y-123400000D01*
X127550000Y-123400000D02*
X129150000Y-123400000D01*
X129150000Y-123400000D02*
X129150000Y-120400000D01*
X129050000Y-118750000D02*
X130450000Y-118750000D01*
X130450000Y-118750000D02*
X130450000Y-116550000D01*
X130450000Y-116550000D02*
X129050000Y-116550000D01*
X129050000Y-116550000D02*
X129050000Y-118750000D01*
X125550000Y-123400000D02*
X127150000Y-123400000D01*
X127150000Y-123400000D02*
X127150000Y-120400000D01*
X127150000Y-120400000D02*
X125550000Y-120400000D01*
X125550000Y-120400000D02*
X125550000Y-123400000D01*
X120150000Y-121150000D02*
X121750000Y-121150000D01*
X121750000Y-121150000D02*
X121750000Y-118150000D01*
X121750000Y-118150000D02*
X120150000Y-118150000D01*
X120150000Y-118150000D02*
X120150000Y-121150000D01*
X123325000Y-118150000D02*
X123325000Y-116550000D01*
X123325000Y-116550000D02*
X120325000Y-116550000D01*
X120325000Y-116550000D02*
X120325000Y-118150000D01*
X120325000Y-118150000D02*
X123325000Y-118150000D01*
X159550000Y-119050000D02*
X159550000Y-120450000D01*
X159550000Y-120450000D02*
X161750000Y-120450000D01*
X161750000Y-120450000D02*
X161750000Y-119050000D01*
X161750000Y-119050000D02*
X159550000Y-119050000D01*
X159550000Y-117650000D02*
X159550000Y-119050000D01*
X159550000Y-119050000D02*
X161750000Y-119050000D01*
X161750000Y-119050000D02*
X161750000Y-117650000D01*
X161750000Y-117650000D02*
X159550000Y-117650000D01*
X141950000Y-117450000D02*
X141950000Y-120250000D01*
X141950000Y-120250000D02*
X145950000Y-120250000D01*
X145950000Y-120250000D02*
X145950000Y-117450000D01*
X145950000Y-117450000D02*
X141950000Y-117450000D01*
X118750000Y-120000000D02*
X118750000Y-118600000D01*
X118750000Y-118600000D02*
X116550000Y-118600000D01*
X116550000Y-118600000D02*
X116550000Y-120000000D01*
X116550000Y-120000000D02*
X118750000Y-120000000D01*
X118750000Y-121400000D02*
X118750000Y-120000000D01*
X118750000Y-120000000D02*
X116550000Y-120000000D01*
X116550000Y-120000000D02*
X116550000Y-121400000D01*
X116550000Y-121400000D02*
X118750000Y-121400000D01*
X164150000Y-118500000D02*
X162550000Y-118500000D01*
X162550000Y-118500000D02*
X162550000Y-121500000D01*
X162550000Y-121500000D02*
X164150000Y-121500000D01*
X164150000Y-121500000D02*
X164150000Y-118500000D01*
X125550000Y-116800000D02*
X125550000Y-120400000D01*
X125550000Y-120400000D02*
X129150000Y-120400000D01*
X129150000Y-120400000D02*
X129150000Y-116800000D01*
X129150000Y-116800000D02*
X125550000Y-116800000D01*
X156194000Y-121756000D02*
X159306000Y-121756000D01*
X159306000Y-121756000D02*
X159306000Y-119044000D01*
X159306000Y-119044000D02*
X156194000Y-119044000D01*
X156194000Y-119044000D02*
X156194000Y-121756000D01*
X156650000Y-121905000D02*
G75*
G03X156650000Y-121905000I-5000J0D01*
G01*
X160950000Y-120450000D02*
X159550000Y-120450000D01*
X159550000Y-120450000D02*
X159550000Y-122650000D01*
X159550000Y-122650000D02*
X160950000Y-122650000D01*
X160950000Y-122650000D02*
X160950000Y-120450000D01*
X157350000Y-122000000D02*
X157350000Y-123400000D01*
X157350000Y-123400000D02*
X159550000Y-123400000D01*
X159550000Y-123400000D02*
X159550000Y-122000000D01*
X159550000Y-122000000D02*
X157350000Y-122000000D01*
X154550000Y-122000000D02*
X155950000Y-122000000D01*
X155950000Y-122000000D02*
X155950000Y-119800000D01*
X155950000Y-119800000D02*
X154550000Y-119800000D01*
X154550000Y-119800000D02*
X154550000Y-122000000D01*
X154550000Y-119800000D02*
X155950000Y-119800000D01*
X155950000Y-119800000D02*
X155950000Y-117600000D01*
X155950000Y-117600000D02*
X154550000Y-117600000D01*
X154550000Y-117600000D02*
X154550000Y-119800000D01*
X146550000Y-117450000D02*
X146550000Y-118850000D01*
X146550000Y-118850000D02*
X148750000Y-118850000D01*
X148750000Y-118850000D02*
X148750000Y-117450000D01*
X148750000Y-117450000D02*
X146550000Y-117450000D01*
X141350000Y-120550000D02*
X139350000Y-120550000D01*
X139350000Y-120550000D02*
X139350000Y-124150000D01*
X139350000Y-124150000D02*
X141350000Y-124150000D01*
X141350000Y-124150000D02*
X141350000Y-120550000D01*
X143550000Y-121350000D02*
X143550000Y-122750000D01*
X143550000Y-122750000D02*
X145750000Y-122750000D01*
X145750000Y-122750000D02*
X145750000Y-121350000D01*
X145750000Y-121350000D02*
X143550000Y-121350000D01*
X143550000Y-123250000D02*
X143550000Y-121850000D01*
X143550000Y-121850000D02*
X141350000Y-121850000D01*
X141350000Y-121850000D02*
X141350000Y-123250000D01*
X141350000Y-123250000D02*
X143550000Y-123250000D01*
X145750000Y-124150000D02*
X145750000Y-122750000D01*
X145750000Y-122750000D02*
X143550000Y-122750000D01*
X143550000Y-122750000D02*
X143550000Y-124150000D01*
X143550000Y-124150000D02*
X145750000Y-124150000D01*
X154350000Y-120650000D02*
X154350000Y-118850000D01*
X152350000Y-118850000D02*
X152350000Y-120650000D01*
X152350000Y-120650000D02*
X154350000Y-120650000D01*
X152350000Y-118850000D02*
X152350000Y-116850000D01*
X152350000Y-118850000D02*
X148750000Y-118850000D01*
X148750000Y-116850000D02*
X148750000Y-118850000D01*
X138950000Y-122825000D02*
X138950000Y-116125000D01*
X138950000Y-116125000D02*
X130550000Y-116125000D01*
X130550000Y-116125000D02*
X130550000Y-123325000D01*
X131550000Y-123850000D02*
G75*
G03X131550000Y-123850000I-500000J0D01*
G01*
M02*
