M48
;DRILL file {KiCad 4.0.0-rc1-stable} date 2016-04-17 16:36:32
;FORMAT={-:-/ absolute / metric / decimal}
FMAT,2
METRIC,TZ
T1C0.254
T2C0.400
T3C1.000
T4C1.600
T5C1.700
T6C2.000
%
G90
G05
M71
T1
X114.3Y-119.1
X114.3Y-121.
X119.15Y-119.2
X122.55Y-119.9
X123.173Y-120.912
X123.4Y-123.6
X123.882Y-120.174
X123.95Y-116.625
X124.799Y-120.335
X124.8Y-123.6
X125.213Y-119.834
X125.85Y-120.25
X126.2Y-119.686
X127.298Y-116.625
X127.45Y-117.323
X127.45Y-118.25
X127.475Y-122.625
X128.172Y-119.325
X128.8Y-119.6
X128.8Y-120.275
X133.55Y-116.2
X134.35Y-116.2
X135.1Y-116.2
X135.9Y-116.2
X138.7Y-123.6
X140.8Y-117.35
X143.05Y-123.6
X143.1Y-120.484
X143.4Y-116.725
X143.75Y-120.5
X144.46Y-120.413
X145.15Y-120.45
X145.85Y-120.5
X146.35Y-118.45
X146.55Y-120.55
X147.1Y-122.05
X148.75Y-118.45
X150.4Y-123.7
X150.95Y-116.4
X151.5Y-122.6
X151.746Y-121.45
X151.75Y-122.05
X151.85Y-116.325
X153.3Y-118.65
X155.15Y-123.65
X156.045Y-120.463
X156.4Y-119.
X156.55Y-123.65
X158.9Y-123.65
X160.25Y-123.65
X161.25Y-123.65
T2
X141.6Y-121.55
X141.6Y-123.6
T3
X165.65Y-118.725
X165.65Y-121.275
T4
X112.5Y-120.
T5
X111.8Y-117.125
X111.8Y-122.875
X115.Y-117.125
X115.Y-122.875
X118.5Y-117.125
X118.5Y-122.875
T6
X168.3Y-118.75
X168.3Y-121.25
T0
M30
