G04 #@! TF.FileFunction,Copper,L2,Inr,Signal*
%FSLAX46Y46*%
G04 Gerber Fmt 4.6, Leading zero omitted, Abs format (unit mm)*
G04 Created by KiCad (PCBNEW 4.0.4-stable) date 11/13/16 19:36:12*
%MOMM*%
%LPD*%
G01*
G04 APERTURE LIST*
%ADD10C,0.100000*%
%ADD11O,2.700000X2.200000*%
%ADD12R,1.800000X1.400000*%
%ADD13C,0.500000*%
%ADD14C,0.700000*%
%ADD15C,0.457200*%
%ADD16C,0.500000*%
%ADD17C,0.300000*%
%ADD18C,0.127000*%
%ADD19C,0.150000*%
G04 APERTURE END LIST*
D10*
D11*
X111800000Y-122875000D03*
X111800000Y-117125000D03*
X115000000Y-122875000D03*
X115000000Y-117125000D03*
X118500000Y-122875000D03*
X118500000Y-117125000D03*
D12*
X165650000Y-118725000D03*
X165650000Y-121275000D03*
D13*
X114300000Y-121000000D03*
X114300000Y-119100000D03*
X122550000Y-119900000D03*
X160250000Y-123649996D03*
X127450000Y-118250000D03*
X123172682Y-120912098D03*
X123882102Y-120174379D03*
X147099687Y-122050000D03*
X148750000Y-118450000D03*
X158900000Y-123650000D03*
X155150000Y-123650000D03*
X156044548Y-120463157D03*
X156400000Y-119000000D03*
D14*
X141600000Y-123600020D03*
D13*
X140800000Y-117350000D03*
X128799988Y-120274980D03*
X127475000Y-122625000D03*
D15*
X138700000Y-123600000D03*
X123400000Y-123600000D03*
D13*
X123950000Y-116625000D03*
X153300000Y-118650000D03*
X161250000Y-123650000D03*
X150400000Y-123700000D03*
X125213500Y-119834012D03*
X146350000Y-118450000D03*
X156550000Y-123650000D03*
X143100012Y-120483859D03*
X128799984Y-119600000D03*
X151500016Y-122600000D03*
X151750000Y-122050000D03*
X133550000Y-116200000D03*
X134350000Y-116200000D03*
X135100000Y-116200000D03*
X135900000Y-116200000D03*
X151746007Y-121450001D03*
D14*
X141600000Y-121549980D03*
D13*
X126200022Y-119685964D03*
X125850000Y-120250000D03*
X124799328Y-120334988D03*
X127297909Y-116625323D03*
D15*
X124800000Y-123600000D03*
D13*
X145150000Y-120450000D03*
X144459664Y-120412527D03*
X143750005Y-120500000D03*
X150950000Y-116400000D03*
X145850000Y-120500000D03*
X151850000Y-116324990D03*
X146550000Y-120550000D03*
X127450000Y-117322979D03*
X119150000Y-119200000D03*
X143399999Y-116724968D03*
X143050000Y-123600000D03*
X128172170Y-119325010D03*
D16*
X161000001Y-123400001D02*
X161250000Y-123650000D01*
X160554353Y-122954353D02*
X161000001Y-123400001D01*
X156550000Y-122954353D02*
X160554353Y-122954353D01*
X146350000Y-118450000D02*
X150400000Y-122500000D01*
X150400000Y-122500000D02*
X150400000Y-123346447D01*
X150400000Y-123346447D02*
X150400000Y-123700000D01*
X150753553Y-123700000D02*
X150400000Y-123700000D01*
X152037998Y-123700000D02*
X150753553Y-123700000D01*
X152783645Y-122954353D02*
X152037998Y-123700000D01*
X156550000Y-122954353D02*
X152783645Y-122954353D01*
D17*
X127264002Y-119250000D02*
X126578060Y-119250000D01*
X126578060Y-119250000D02*
X126464023Y-119135963D01*
X126464023Y-119135963D02*
X125911549Y-119135963D01*
X125911549Y-119135963D02*
X125463499Y-119584013D01*
X125463499Y-119584013D02*
X125213500Y-119834012D01*
X128459162Y-118650000D02*
X127864002Y-118650000D01*
X127864002Y-118650000D02*
X127264002Y-119250000D01*
D16*
X129153537Y-119600000D02*
X129153537Y-119344375D01*
X129153537Y-119344375D02*
X128459162Y-118650000D01*
X143100012Y-120483859D02*
X142850013Y-120733858D01*
X142850013Y-120733858D02*
X142850013Y-121409969D01*
X142850013Y-121409969D02*
X141960001Y-122299981D01*
X141960001Y-122299981D02*
X131853518Y-122299981D01*
X131853518Y-122299981D02*
X129153537Y-119600000D01*
X129153537Y-119600000D02*
X128799984Y-119600000D01*
X143100012Y-120483859D02*
X143100012Y-120130306D01*
X145996447Y-118450000D02*
X146350000Y-118450000D01*
X143100012Y-120130306D02*
X144780318Y-118450000D01*
X144780318Y-118450000D02*
X145996447Y-118450000D01*
X156550000Y-123650000D02*
X156550000Y-122954353D01*
X151500001Y-122299999D02*
X151500001Y-122599985D01*
X151750000Y-122050000D02*
X151500001Y-122299999D01*
X151500001Y-122599985D02*
X151500016Y-122600000D01*
X144511076Y-117799990D02*
X146619242Y-117799990D01*
X151746007Y-121450001D02*
X151746007Y-122046007D01*
X146619242Y-117799990D02*
X150869252Y-122050000D01*
X151746007Y-122046007D02*
X151750000Y-122050000D01*
X151396447Y-122050000D02*
X151750000Y-122050000D01*
X150869252Y-122050000D02*
X151396447Y-122050000D01*
X141600000Y-121549980D02*
X141600000Y-120711066D01*
X141600000Y-120711066D02*
X144511076Y-117799990D01*
X134350000Y-116200000D02*
X133550000Y-116200000D01*
X135100000Y-116200000D02*
X134350000Y-116200000D01*
X135900000Y-116200000D02*
X135100000Y-116200000D01*
X141600000Y-121549980D02*
X136250020Y-116200000D01*
X136250020Y-116200000D02*
X135900000Y-116200000D01*
D18*
X127800000Y-117703002D02*
X127716503Y-117786499D01*
X124549329Y-120084989D02*
X124799328Y-120334988D01*
X127716503Y-117786499D02*
X125713501Y-117786499D01*
X125713501Y-117786499D02*
X124549329Y-118950671D01*
X124549329Y-118950671D02*
X124549329Y-120084989D01*
D19*
X127297909Y-116625323D02*
X127651462Y-116625323D01*
X127925001Y-116898862D02*
X127925001Y-117578001D01*
X127925001Y-117578001D02*
X127800000Y-117703002D01*
X127651462Y-116625323D02*
X127925001Y-116898862D01*
X127450000Y-117322979D02*
X122577021Y-117322979D01*
X120700000Y-119200000D02*
X119150000Y-119200000D01*
X122577021Y-117322979D02*
X120700000Y-119200000D01*
X142250001Y-122800001D02*
X142800001Y-123350001D01*
X130622007Y-122800001D02*
X142250001Y-122800001D01*
X128172170Y-120350164D02*
X130622007Y-122800001D01*
X142800001Y-123350001D02*
X143050000Y-123600000D01*
X128172170Y-119325010D02*
X128172170Y-120350164D01*
G36*
X132946967Y-121453033D02*
X132971778Y-121469488D01*
X133000000Y-121475000D01*
X140368934Y-121475000D01*
X140946967Y-122053033D01*
X140971778Y-122069488D01*
X141000000Y-122075000D01*
X141240992Y-122075000D01*
X141245504Y-122079520D01*
X141475134Y-122174871D01*
X141723775Y-122175088D01*
X141774881Y-122153971D01*
X146574596Y-122153971D01*
X146654354Y-122347000D01*
X146801910Y-122494814D01*
X146994800Y-122574908D01*
X147203658Y-122575091D01*
X147396687Y-122495333D01*
X147544501Y-122347777D01*
X147624595Y-122154887D01*
X147624778Y-121946029D01*
X147545020Y-121753000D01*
X147397464Y-121605186D01*
X147204574Y-121525092D01*
X146995716Y-121524909D01*
X146802687Y-121604667D01*
X146654873Y-121752223D01*
X146574779Y-121945113D01*
X146574596Y-122153971D01*
X141774881Y-122153971D01*
X141953571Y-122080138D01*
X142129540Y-121904476D01*
X142220397Y-121685669D01*
X142453033Y-121453033D01*
X142469488Y-121428222D01*
X142475000Y-121400000D01*
X142475000Y-120603971D01*
X143224914Y-120603971D01*
X143304672Y-120797000D01*
X143452228Y-120944814D01*
X143645118Y-121024908D01*
X143853976Y-121025091D01*
X144047005Y-120945333D01*
X144148542Y-120843973D01*
X144161887Y-120857341D01*
X144354777Y-120937435D01*
X144563635Y-120937618D01*
X144756664Y-120857860D01*
X144786050Y-120828525D01*
X144852223Y-120894814D01*
X145045113Y-120974908D01*
X145253971Y-120975091D01*
X145447000Y-120895333D01*
X145474963Y-120867419D01*
X145552223Y-120944814D01*
X145745113Y-121024908D01*
X145953971Y-121025091D01*
X146147000Y-120945333D01*
X146174963Y-120917419D01*
X146252223Y-120994814D01*
X146445113Y-121074908D01*
X146653971Y-121075091D01*
X146847000Y-120995333D01*
X146994814Y-120847777D01*
X147074908Y-120654887D01*
X147075091Y-120446029D01*
X146995333Y-120253000D01*
X146847777Y-120105186D01*
X146654887Y-120025092D01*
X146446029Y-120024909D01*
X146253000Y-120104667D01*
X146225037Y-120132581D01*
X146147777Y-120055186D01*
X145954887Y-119975092D01*
X145746029Y-119974909D01*
X145553000Y-120054667D01*
X145525037Y-120082581D01*
X145447777Y-120005186D01*
X145254887Y-119925092D01*
X145046029Y-119924909D01*
X144853000Y-120004667D01*
X144823614Y-120034002D01*
X144757441Y-119967713D01*
X144564551Y-119887619D01*
X144355693Y-119887436D01*
X144162664Y-119967194D01*
X144061127Y-120068554D01*
X144047782Y-120055186D01*
X143854892Y-119975092D01*
X143646034Y-119974909D01*
X143453005Y-120054667D01*
X143305191Y-120202223D01*
X143225097Y-120395113D01*
X143224914Y-120603971D01*
X142475000Y-120603971D01*
X142475000Y-120578528D01*
X144728538Y-118324990D01*
X146401780Y-118324990D01*
X150498021Y-122421231D01*
X150549688Y-122455754D01*
X151146967Y-123053033D01*
X151171778Y-123069488D01*
X151200000Y-123075000D01*
X151274936Y-123075000D01*
X151299106Y-123085036D01*
X151299107Y-123085037D01*
X151299109Y-123085037D01*
X151395129Y-123124908D01*
X151500016Y-123125000D01*
X151603987Y-123125091D01*
X151725216Y-123075000D01*
X152000000Y-123075000D01*
X152029179Y-123069091D01*
X152053033Y-123053033D01*
X152653033Y-122453033D01*
X152669488Y-122428222D01*
X152675000Y-122400000D01*
X152675000Y-121675000D01*
X161925000Y-121675000D01*
X161925000Y-124125000D01*
X160475191Y-124125000D01*
X160547000Y-124095329D01*
X160694814Y-123947773D01*
X160774908Y-123754883D01*
X160775091Y-123546025D01*
X160695333Y-123352996D01*
X160547777Y-123205182D01*
X160354887Y-123125088D01*
X160146029Y-123124905D01*
X159953000Y-123204663D01*
X159805186Y-123352219D01*
X159725092Y-123545109D01*
X159724909Y-123753967D01*
X159804667Y-123946996D01*
X159952223Y-124094810D01*
X160024930Y-124125000D01*
X159125201Y-124125000D01*
X159197000Y-124095333D01*
X159344814Y-123947777D01*
X159424908Y-123754887D01*
X159425091Y-123546029D01*
X159345333Y-123353000D01*
X159197777Y-123205186D01*
X159004887Y-123125092D01*
X158796029Y-123124909D01*
X158603000Y-123204667D01*
X158455186Y-123352223D01*
X158375092Y-123545113D01*
X158374909Y-123753971D01*
X158454667Y-123947000D01*
X158602223Y-124094814D01*
X158674920Y-124125000D01*
X155375201Y-124125000D01*
X155447000Y-124095333D01*
X155594814Y-123947777D01*
X155674908Y-123754887D01*
X155675091Y-123546029D01*
X155595333Y-123353000D01*
X155447777Y-123205186D01*
X155254887Y-123125092D01*
X155046029Y-123124909D01*
X154853000Y-123204667D01*
X154705186Y-123352223D01*
X154625092Y-123545113D01*
X154624909Y-123753971D01*
X154704667Y-123947000D01*
X154852223Y-124094814D01*
X154924920Y-124125000D01*
X143154191Y-124125000D01*
X143347000Y-124045333D01*
X143494814Y-123897777D01*
X143574908Y-123704887D01*
X143575091Y-123496029D01*
X143495333Y-123303000D01*
X143347777Y-123155186D01*
X143154887Y-123075092D01*
X143019949Y-123074974D01*
X142497488Y-122552514D01*
X142383940Y-122476643D01*
X142250001Y-122450001D01*
X130766982Y-122450001D01*
X129054747Y-120737767D01*
X129096988Y-120720313D01*
X129244802Y-120572757D01*
X129324896Y-120379867D01*
X129325079Y-120171009D01*
X129245321Y-119977980D01*
X129097765Y-119830166D01*
X128904875Y-119750072D01*
X128696017Y-119749889D01*
X128522170Y-119821721D01*
X128522170Y-119717436D01*
X128616984Y-119622787D01*
X128697078Y-119429897D01*
X128697261Y-119221039D01*
X128617503Y-119028010D01*
X128469947Y-118880196D01*
X128277057Y-118800102D01*
X128068199Y-118799919D01*
X127875170Y-118879677D01*
X127727356Y-119027233D01*
X127647262Y-119220123D01*
X127647079Y-119428981D01*
X127726837Y-119622010D01*
X127822170Y-119717510D01*
X127822170Y-120350164D01*
X127841239Y-120446029D01*
X127848812Y-120484103D01*
X127924683Y-120597651D01*
X128652032Y-121325000D01*
X124475000Y-121325000D01*
X124475000Y-120753205D01*
X124501551Y-120779802D01*
X124694441Y-120859896D01*
X124903299Y-120860079D01*
X125096328Y-120780321D01*
X125244142Y-120632765D01*
X125324236Y-120439875D01*
X125324311Y-120353971D01*
X125324909Y-120353971D01*
X125404667Y-120547000D01*
X125552223Y-120694814D01*
X125745113Y-120774908D01*
X125953971Y-120775091D01*
X126147000Y-120695333D01*
X126294814Y-120547777D01*
X126374908Y-120354887D01*
X126375060Y-120181691D01*
X126497022Y-120131297D01*
X126644836Y-119983741D01*
X126724930Y-119790851D01*
X126725113Y-119581993D01*
X126645355Y-119388964D01*
X126497799Y-119241150D01*
X126304909Y-119161056D01*
X126096051Y-119160873D01*
X125903022Y-119240631D01*
X125755208Y-119388187D01*
X125675114Y-119581077D01*
X125674962Y-119754273D01*
X125553000Y-119804667D01*
X125405186Y-119952223D01*
X125325092Y-120145113D01*
X125324909Y-120353971D01*
X125324311Y-120353971D01*
X125324419Y-120231017D01*
X125244661Y-120037988D01*
X125097105Y-119890174D01*
X124904215Y-119810080D01*
X124887829Y-119810066D01*
X124887829Y-119090883D01*
X125853713Y-118124999D01*
X126933444Y-118124999D01*
X126925092Y-118145113D01*
X126924909Y-118353971D01*
X127004667Y-118547000D01*
X127152223Y-118694814D01*
X127345113Y-118774908D01*
X127553971Y-118775091D01*
X127747000Y-118695333D01*
X127894814Y-118547777D01*
X127974908Y-118354887D01*
X127975091Y-118146029D01*
X127932018Y-118041785D01*
X127955859Y-118025855D01*
X127998476Y-117983237D01*
X128047487Y-117950489D01*
X128122976Y-117875000D01*
X129368934Y-117875000D01*
X132946967Y-121453033D01*
X132946967Y-121453033D01*
G37*
X132946967Y-121453033D02*
X132971778Y-121469488D01*
X133000000Y-121475000D01*
X140368934Y-121475000D01*
X140946967Y-122053033D01*
X140971778Y-122069488D01*
X141000000Y-122075000D01*
X141240992Y-122075000D01*
X141245504Y-122079520D01*
X141475134Y-122174871D01*
X141723775Y-122175088D01*
X141774881Y-122153971D01*
X146574596Y-122153971D01*
X146654354Y-122347000D01*
X146801910Y-122494814D01*
X146994800Y-122574908D01*
X147203658Y-122575091D01*
X147396687Y-122495333D01*
X147544501Y-122347777D01*
X147624595Y-122154887D01*
X147624778Y-121946029D01*
X147545020Y-121753000D01*
X147397464Y-121605186D01*
X147204574Y-121525092D01*
X146995716Y-121524909D01*
X146802687Y-121604667D01*
X146654873Y-121752223D01*
X146574779Y-121945113D01*
X146574596Y-122153971D01*
X141774881Y-122153971D01*
X141953571Y-122080138D01*
X142129540Y-121904476D01*
X142220397Y-121685669D01*
X142453033Y-121453033D01*
X142469488Y-121428222D01*
X142475000Y-121400000D01*
X142475000Y-120603971D01*
X143224914Y-120603971D01*
X143304672Y-120797000D01*
X143452228Y-120944814D01*
X143645118Y-121024908D01*
X143853976Y-121025091D01*
X144047005Y-120945333D01*
X144148542Y-120843973D01*
X144161887Y-120857341D01*
X144354777Y-120937435D01*
X144563635Y-120937618D01*
X144756664Y-120857860D01*
X144786050Y-120828525D01*
X144852223Y-120894814D01*
X145045113Y-120974908D01*
X145253971Y-120975091D01*
X145447000Y-120895333D01*
X145474963Y-120867419D01*
X145552223Y-120944814D01*
X145745113Y-121024908D01*
X145953971Y-121025091D01*
X146147000Y-120945333D01*
X146174963Y-120917419D01*
X146252223Y-120994814D01*
X146445113Y-121074908D01*
X146653971Y-121075091D01*
X146847000Y-120995333D01*
X146994814Y-120847777D01*
X147074908Y-120654887D01*
X147075091Y-120446029D01*
X146995333Y-120253000D01*
X146847777Y-120105186D01*
X146654887Y-120025092D01*
X146446029Y-120024909D01*
X146253000Y-120104667D01*
X146225037Y-120132581D01*
X146147777Y-120055186D01*
X145954887Y-119975092D01*
X145746029Y-119974909D01*
X145553000Y-120054667D01*
X145525037Y-120082581D01*
X145447777Y-120005186D01*
X145254887Y-119925092D01*
X145046029Y-119924909D01*
X144853000Y-120004667D01*
X144823614Y-120034002D01*
X144757441Y-119967713D01*
X144564551Y-119887619D01*
X144355693Y-119887436D01*
X144162664Y-119967194D01*
X144061127Y-120068554D01*
X144047782Y-120055186D01*
X143854892Y-119975092D01*
X143646034Y-119974909D01*
X143453005Y-120054667D01*
X143305191Y-120202223D01*
X143225097Y-120395113D01*
X143224914Y-120603971D01*
X142475000Y-120603971D01*
X142475000Y-120578528D01*
X144728538Y-118324990D01*
X146401780Y-118324990D01*
X150498021Y-122421231D01*
X150549688Y-122455754D01*
X151146967Y-123053033D01*
X151171778Y-123069488D01*
X151200000Y-123075000D01*
X151274936Y-123075000D01*
X151299106Y-123085036D01*
X151299107Y-123085037D01*
X151299109Y-123085037D01*
X151395129Y-123124908D01*
X151500016Y-123125000D01*
X151603987Y-123125091D01*
X151725216Y-123075000D01*
X152000000Y-123075000D01*
X152029179Y-123069091D01*
X152053033Y-123053033D01*
X152653033Y-122453033D01*
X152669488Y-122428222D01*
X152675000Y-122400000D01*
X152675000Y-121675000D01*
X161925000Y-121675000D01*
X161925000Y-124125000D01*
X160475191Y-124125000D01*
X160547000Y-124095329D01*
X160694814Y-123947773D01*
X160774908Y-123754883D01*
X160775091Y-123546025D01*
X160695333Y-123352996D01*
X160547777Y-123205182D01*
X160354887Y-123125088D01*
X160146029Y-123124905D01*
X159953000Y-123204663D01*
X159805186Y-123352219D01*
X159725092Y-123545109D01*
X159724909Y-123753967D01*
X159804667Y-123946996D01*
X159952223Y-124094810D01*
X160024930Y-124125000D01*
X159125201Y-124125000D01*
X159197000Y-124095333D01*
X159344814Y-123947777D01*
X159424908Y-123754887D01*
X159425091Y-123546029D01*
X159345333Y-123353000D01*
X159197777Y-123205186D01*
X159004887Y-123125092D01*
X158796029Y-123124909D01*
X158603000Y-123204667D01*
X158455186Y-123352223D01*
X158375092Y-123545113D01*
X158374909Y-123753971D01*
X158454667Y-123947000D01*
X158602223Y-124094814D01*
X158674920Y-124125000D01*
X155375201Y-124125000D01*
X155447000Y-124095333D01*
X155594814Y-123947777D01*
X155674908Y-123754887D01*
X155675091Y-123546029D01*
X155595333Y-123353000D01*
X155447777Y-123205186D01*
X155254887Y-123125092D01*
X155046029Y-123124909D01*
X154853000Y-123204667D01*
X154705186Y-123352223D01*
X154625092Y-123545113D01*
X154624909Y-123753971D01*
X154704667Y-123947000D01*
X154852223Y-124094814D01*
X154924920Y-124125000D01*
X143154191Y-124125000D01*
X143347000Y-124045333D01*
X143494814Y-123897777D01*
X143574908Y-123704887D01*
X143575091Y-123496029D01*
X143495333Y-123303000D01*
X143347777Y-123155186D01*
X143154887Y-123075092D01*
X143019949Y-123074974D01*
X142497488Y-122552514D01*
X142383940Y-122476643D01*
X142250001Y-122450001D01*
X130766982Y-122450001D01*
X129054747Y-120737767D01*
X129096988Y-120720313D01*
X129244802Y-120572757D01*
X129324896Y-120379867D01*
X129325079Y-120171009D01*
X129245321Y-119977980D01*
X129097765Y-119830166D01*
X128904875Y-119750072D01*
X128696017Y-119749889D01*
X128522170Y-119821721D01*
X128522170Y-119717436D01*
X128616984Y-119622787D01*
X128697078Y-119429897D01*
X128697261Y-119221039D01*
X128617503Y-119028010D01*
X128469947Y-118880196D01*
X128277057Y-118800102D01*
X128068199Y-118799919D01*
X127875170Y-118879677D01*
X127727356Y-119027233D01*
X127647262Y-119220123D01*
X127647079Y-119428981D01*
X127726837Y-119622010D01*
X127822170Y-119717510D01*
X127822170Y-120350164D01*
X127841239Y-120446029D01*
X127848812Y-120484103D01*
X127924683Y-120597651D01*
X128652032Y-121325000D01*
X124475000Y-121325000D01*
X124475000Y-120753205D01*
X124501551Y-120779802D01*
X124694441Y-120859896D01*
X124903299Y-120860079D01*
X125096328Y-120780321D01*
X125244142Y-120632765D01*
X125324236Y-120439875D01*
X125324311Y-120353971D01*
X125324909Y-120353971D01*
X125404667Y-120547000D01*
X125552223Y-120694814D01*
X125745113Y-120774908D01*
X125953971Y-120775091D01*
X126147000Y-120695333D01*
X126294814Y-120547777D01*
X126374908Y-120354887D01*
X126375060Y-120181691D01*
X126497022Y-120131297D01*
X126644836Y-119983741D01*
X126724930Y-119790851D01*
X126725113Y-119581993D01*
X126645355Y-119388964D01*
X126497799Y-119241150D01*
X126304909Y-119161056D01*
X126096051Y-119160873D01*
X125903022Y-119240631D01*
X125755208Y-119388187D01*
X125675114Y-119581077D01*
X125674962Y-119754273D01*
X125553000Y-119804667D01*
X125405186Y-119952223D01*
X125325092Y-120145113D01*
X125324909Y-120353971D01*
X125324311Y-120353971D01*
X125324419Y-120231017D01*
X125244661Y-120037988D01*
X125097105Y-119890174D01*
X124904215Y-119810080D01*
X124887829Y-119810066D01*
X124887829Y-119090883D01*
X125853713Y-118124999D01*
X126933444Y-118124999D01*
X126925092Y-118145113D01*
X126924909Y-118353971D01*
X127004667Y-118547000D01*
X127152223Y-118694814D01*
X127345113Y-118774908D01*
X127553971Y-118775091D01*
X127747000Y-118695333D01*
X127894814Y-118547777D01*
X127974908Y-118354887D01*
X127975091Y-118146029D01*
X127932018Y-118041785D01*
X127955859Y-118025855D01*
X127998476Y-117983237D01*
X128047487Y-117950489D01*
X128122976Y-117875000D01*
X129368934Y-117875000D01*
X132946967Y-121453033D01*
G36*
X150653000Y-115954667D02*
X150505186Y-116102223D01*
X150425092Y-116295113D01*
X150424909Y-116503971D01*
X150504667Y-116697000D01*
X150652223Y-116844814D01*
X150845113Y-116924908D01*
X151053971Y-116925091D01*
X151247000Y-116845333D01*
X151394814Y-116697777D01*
X151419933Y-116637283D01*
X151552223Y-116769804D01*
X151745113Y-116849898D01*
X151953971Y-116850081D01*
X152147000Y-116770323D01*
X152294814Y-116622767D01*
X152374908Y-116429877D01*
X152375091Y-116221019D01*
X152295333Y-116027990D01*
X152147777Y-115880176D01*
X152135312Y-115875000D01*
X152725000Y-115875000D01*
X152725000Y-121325000D01*
X152600000Y-121325000D01*
X152500049Y-121343807D01*
X152408251Y-121402878D01*
X152346666Y-121493010D01*
X152325000Y-121600000D01*
X152325000Y-122286092D01*
X151886092Y-122725000D01*
X151313908Y-122725000D01*
X150879072Y-122290164D01*
X150771231Y-122128769D01*
X147196433Y-118553971D01*
X148224909Y-118553971D01*
X148304667Y-118747000D01*
X148452223Y-118894814D01*
X148645113Y-118974908D01*
X148853971Y-118975091D01*
X149047000Y-118895333D01*
X149194814Y-118747777D01*
X149274908Y-118554887D01*
X149275091Y-118346029D01*
X149195333Y-118153000D01*
X149047777Y-118005186D01*
X148854887Y-117925092D01*
X148646029Y-117924909D01*
X148453000Y-118004667D01*
X148305186Y-118152223D01*
X148225092Y-118345113D01*
X148224909Y-118553971D01*
X147196433Y-118553971D01*
X146721555Y-118079093D01*
X146647777Y-118005186D01*
X146550910Y-117964964D01*
X146550909Y-117964963D01*
X146550907Y-117964963D01*
X146507226Y-117946825D01*
X146506990Y-117946666D01*
X146506704Y-117946608D01*
X146454887Y-117925092D01*
X146400218Y-117925044D01*
X146400000Y-117925000D01*
X146349887Y-117925000D01*
X146246029Y-117924909D01*
X146245809Y-117925000D01*
X144600000Y-117925000D01*
X144496520Y-117945212D01*
X144405546Y-118005546D01*
X142205546Y-120205546D01*
X142146666Y-120293010D01*
X142125000Y-120400000D01*
X142125000Y-121286092D01*
X141686092Y-121725000D01*
X141113908Y-121725000D01*
X140594454Y-121205546D01*
X140506990Y-121146666D01*
X140400000Y-121125000D01*
X133113908Y-121125000D01*
X129594454Y-117605546D01*
X129506990Y-117546666D01*
X129400000Y-117525000D01*
X128275001Y-117525000D01*
X128275001Y-117453971D01*
X140274909Y-117453971D01*
X140354667Y-117647000D01*
X140502223Y-117794814D01*
X140695113Y-117874908D01*
X140903971Y-117875091D01*
X141097000Y-117795333D01*
X141244814Y-117647777D01*
X141324908Y-117454887D01*
X141325091Y-117246029D01*
X141245333Y-117053000D01*
X141097777Y-116905186D01*
X140914152Y-116828939D01*
X142874908Y-116828939D01*
X142954666Y-117021968D01*
X143102222Y-117169782D01*
X143295112Y-117249876D01*
X143503970Y-117250059D01*
X143696999Y-117170301D01*
X143844813Y-117022745D01*
X143924907Y-116829855D01*
X143925090Y-116620997D01*
X143845332Y-116427968D01*
X143697776Y-116280154D01*
X143504886Y-116200060D01*
X143296028Y-116199877D01*
X143102999Y-116279635D01*
X142955185Y-116427191D01*
X142875091Y-116620081D01*
X142874908Y-116828939D01*
X140914152Y-116828939D01*
X140904887Y-116825092D01*
X140696029Y-116824909D01*
X140503000Y-116904667D01*
X140355186Y-117052223D01*
X140275092Y-117245113D01*
X140274909Y-117453971D01*
X128275001Y-117453971D01*
X128275001Y-116898862D01*
X128248359Y-116764923D01*
X128244576Y-116759262D01*
X128172489Y-116651375D01*
X127898949Y-116377836D01*
X127785401Y-116301965D01*
X127699966Y-116284971D01*
X127595686Y-116180509D01*
X127475000Y-116130396D01*
X127475000Y-115875000D01*
X150845809Y-115875000D01*
X150653000Y-115954667D01*
X150653000Y-115954667D01*
G37*
X150653000Y-115954667D02*
X150505186Y-116102223D01*
X150425092Y-116295113D01*
X150424909Y-116503971D01*
X150504667Y-116697000D01*
X150652223Y-116844814D01*
X150845113Y-116924908D01*
X151053971Y-116925091D01*
X151247000Y-116845333D01*
X151394814Y-116697777D01*
X151419933Y-116637283D01*
X151552223Y-116769804D01*
X151745113Y-116849898D01*
X151953971Y-116850081D01*
X152147000Y-116770323D01*
X152294814Y-116622767D01*
X152374908Y-116429877D01*
X152375091Y-116221019D01*
X152295333Y-116027990D01*
X152147777Y-115880176D01*
X152135312Y-115875000D01*
X152725000Y-115875000D01*
X152725000Y-121325000D01*
X152600000Y-121325000D01*
X152500049Y-121343807D01*
X152408251Y-121402878D01*
X152346666Y-121493010D01*
X152325000Y-121600000D01*
X152325000Y-122286092D01*
X151886092Y-122725000D01*
X151313908Y-122725000D01*
X150879072Y-122290164D01*
X150771231Y-122128769D01*
X147196433Y-118553971D01*
X148224909Y-118553971D01*
X148304667Y-118747000D01*
X148452223Y-118894814D01*
X148645113Y-118974908D01*
X148853971Y-118975091D01*
X149047000Y-118895333D01*
X149194814Y-118747777D01*
X149274908Y-118554887D01*
X149275091Y-118346029D01*
X149195333Y-118153000D01*
X149047777Y-118005186D01*
X148854887Y-117925092D01*
X148646029Y-117924909D01*
X148453000Y-118004667D01*
X148305186Y-118152223D01*
X148225092Y-118345113D01*
X148224909Y-118553971D01*
X147196433Y-118553971D01*
X146721555Y-118079093D01*
X146647777Y-118005186D01*
X146550910Y-117964964D01*
X146550909Y-117964963D01*
X146550907Y-117964963D01*
X146507226Y-117946825D01*
X146506990Y-117946666D01*
X146506704Y-117946608D01*
X146454887Y-117925092D01*
X146400218Y-117925044D01*
X146400000Y-117925000D01*
X146349887Y-117925000D01*
X146246029Y-117924909D01*
X146245809Y-117925000D01*
X144600000Y-117925000D01*
X144496520Y-117945212D01*
X144405546Y-118005546D01*
X142205546Y-120205546D01*
X142146666Y-120293010D01*
X142125000Y-120400000D01*
X142125000Y-121286092D01*
X141686092Y-121725000D01*
X141113908Y-121725000D01*
X140594454Y-121205546D01*
X140506990Y-121146666D01*
X140400000Y-121125000D01*
X133113908Y-121125000D01*
X129594454Y-117605546D01*
X129506990Y-117546666D01*
X129400000Y-117525000D01*
X128275001Y-117525000D01*
X128275001Y-117453971D01*
X140274909Y-117453971D01*
X140354667Y-117647000D01*
X140502223Y-117794814D01*
X140695113Y-117874908D01*
X140903971Y-117875091D01*
X141097000Y-117795333D01*
X141244814Y-117647777D01*
X141324908Y-117454887D01*
X141325091Y-117246029D01*
X141245333Y-117053000D01*
X141097777Y-116905186D01*
X140914152Y-116828939D01*
X142874908Y-116828939D01*
X142954666Y-117021968D01*
X143102222Y-117169782D01*
X143295112Y-117249876D01*
X143503970Y-117250059D01*
X143696999Y-117170301D01*
X143844813Y-117022745D01*
X143924907Y-116829855D01*
X143925090Y-116620997D01*
X143845332Y-116427968D01*
X143697776Y-116280154D01*
X143504886Y-116200060D01*
X143296028Y-116199877D01*
X143102999Y-116279635D01*
X142955185Y-116427191D01*
X142875091Y-116620081D01*
X142874908Y-116828939D01*
X140914152Y-116828939D01*
X140904887Y-116825092D01*
X140696029Y-116824909D01*
X140503000Y-116904667D01*
X140355186Y-117052223D01*
X140275092Y-117245113D01*
X140274909Y-117453971D01*
X128275001Y-117453971D01*
X128275001Y-116898862D01*
X128248359Y-116764923D01*
X128244576Y-116759262D01*
X128172489Y-116651375D01*
X127898949Y-116377836D01*
X127785401Y-116301965D01*
X127699966Y-116284971D01*
X127595686Y-116180509D01*
X127475000Y-116130396D01*
X127475000Y-115875000D01*
X150845809Y-115875000D01*
X150653000Y-115954667D01*
G36*
X110668174Y-115940249D02*
X110453985Y-116135049D01*
X110281915Y-116367893D01*
X110158577Y-116629832D01*
X110106777Y-116820481D01*
X110170788Y-117050000D01*
X111725000Y-117050000D01*
X111725000Y-117030000D01*
X111875000Y-117030000D01*
X111875000Y-117050000D01*
X111895000Y-117050000D01*
X111895000Y-117200000D01*
X111875000Y-117200000D01*
X111875000Y-118600000D01*
X112125000Y-118600000D01*
X112411317Y-118557027D01*
X112683749Y-118459022D01*
X112931826Y-118309751D01*
X113146015Y-118114951D01*
X113318085Y-117882107D01*
X113441423Y-117620168D01*
X113451011Y-117584879D01*
X113467259Y-117640084D01*
X113591586Y-117877899D01*
X113759737Y-118087037D01*
X113965307Y-118259531D01*
X114200467Y-118388811D01*
X114456258Y-118469953D01*
X114722939Y-118499866D01*
X114742137Y-118500000D01*
X115257863Y-118500000D01*
X115524935Y-118473813D01*
X115781835Y-118396251D01*
X116018776Y-118270267D01*
X116226735Y-118100660D01*
X116397790Y-117893890D01*
X116525425Y-117657834D01*
X116604779Y-117401482D01*
X116632829Y-117134599D01*
X116608508Y-116867351D01*
X116532741Y-116609916D01*
X116408414Y-116372101D01*
X116240263Y-116162963D01*
X116034693Y-115990469D01*
X115799533Y-115861189D01*
X115764261Y-115850000D01*
X117730582Y-115850000D01*
X117718165Y-115853749D01*
X117481224Y-115979733D01*
X117273265Y-116149340D01*
X117102210Y-116356110D01*
X116974575Y-116592166D01*
X116895221Y-116848518D01*
X116867171Y-117115401D01*
X116891492Y-117382649D01*
X116967259Y-117640084D01*
X117091586Y-117877899D01*
X117259737Y-118087037D01*
X117465307Y-118259531D01*
X117700467Y-118388811D01*
X117956258Y-118469953D01*
X118222939Y-118499866D01*
X118242137Y-118500000D01*
X118757863Y-118500000D01*
X119024935Y-118473813D01*
X119281835Y-118396251D01*
X119518776Y-118270267D01*
X119726735Y-118100660D01*
X119897790Y-117893890D01*
X120025425Y-117657834D01*
X120104779Y-117401482D01*
X120132829Y-117134599D01*
X120108508Y-116867351D01*
X120032741Y-116609916D01*
X119908414Y-116372101D01*
X119740263Y-116162963D01*
X119534693Y-115990469D01*
X119299533Y-115861189D01*
X119264261Y-115850000D01*
X127125000Y-115850000D01*
X127125000Y-116128928D01*
X127053502Y-116157815D01*
X126967350Y-116214191D01*
X126893790Y-116286227D01*
X126835622Y-116371179D01*
X126795063Y-116465811D01*
X126773657Y-116566519D01*
X126772219Y-116669466D01*
X126790805Y-116770733D01*
X126828706Y-116866460D01*
X126884479Y-116953003D01*
X126903770Y-116972979D01*
X122577021Y-116972979D01*
X122544899Y-116976129D01*
X122512638Y-116978951D01*
X122510866Y-116979466D01*
X122509039Y-116979645D01*
X122478118Y-116988981D01*
X122447043Y-116998009D01*
X122445410Y-116998855D01*
X122443646Y-116999388D01*
X122415117Y-117014557D01*
X122386397Y-117029444D01*
X122384955Y-117030595D01*
X122383334Y-117031457D01*
X122358292Y-117051880D01*
X122333014Y-117072060D01*
X122330453Y-117074585D01*
X122330399Y-117074629D01*
X122330358Y-117074679D01*
X122329534Y-117075491D01*
X120555026Y-118850000D01*
X119542351Y-118850000D01*
X119486267Y-118793523D01*
X119400911Y-118735950D01*
X119305998Y-118696052D01*
X119205143Y-118675350D01*
X119102188Y-118674631D01*
X119001054Y-118693924D01*
X118905593Y-118732492D01*
X118819441Y-118788868D01*
X118745881Y-118860904D01*
X118687713Y-118945856D01*
X118647154Y-119040488D01*
X118625748Y-119141196D01*
X118624310Y-119244143D01*
X118642896Y-119345410D01*
X118680797Y-119441137D01*
X118736570Y-119527680D01*
X118808091Y-119601742D01*
X118892635Y-119660501D01*
X118986981Y-119701720D01*
X119087537Y-119723829D01*
X119190472Y-119725985D01*
X119291866Y-119708107D01*
X119387856Y-119670875D01*
X119474786Y-119615707D01*
X119543786Y-119550000D01*
X120700000Y-119550000D01*
X120732216Y-119546841D01*
X120764383Y-119544027D01*
X120766150Y-119543514D01*
X120767982Y-119543334D01*
X120798945Y-119533986D01*
X120829978Y-119524970D01*
X120831611Y-119524124D01*
X120833375Y-119523591D01*
X120861904Y-119508422D01*
X120890624Y-119493535D01*
X120892066Y-119492384D01*
X120893687Y-119491522D01*
X120918704Y-119471119D01*
X120944008Y-119450919D01*
X120946565Y-119448396D01*
X120946622Y-119448350D01*
X120946666Y-119448297D01*
X120947487Y-119447487D01*
X122721996Y-117672979D01*
X125348309Y-117672979D01*
X124309973Y-118711315D01*
X124290111Y-118735495D01*
X124270028Y-118759430D01*
X124269170Y-118760990D01*
X124268041Y-118762365D01*
X124253252Y-118789946D01*
X124238202Y-118817322D01*
X124237665Y-118819015D01*
X124236822Y-118820587D01*
X124227667Y-118850530D01*
X124218226Y-118880293D01*
X124218028Y-118882061D01*
X124217507Y-118883764D01*
X124214346Y-118914887D01*
X124210862Y-118945945D01*
X124210838Y-118949423D01*
X124210831Y-118949489D01*
X124210837Y-118949551D01*
X124210829Y-118950671D01*
X124210829Y-119000263D01*
X124205546Y-119005546D01*
X124146666Y-119093010D01*
X124125000Y-119200000D01*
X124125000Y-121400000D01*
X124143807Y-121499951D01*
X124202878Y-121591749D01*
X124293010Y-121653334D01*
X124400000Y-121675000D01*
X129002032Y-121675000D01*
X130374520Y-123047489D01*
X130399531Y-123068033D01*
X130424269Y-123088791D01*
X130425881Y-123089677D01*
X130427304Y-123090846D01*
X130455818Y-123106135D01*
X130484127Y-123121698D01*
X130485879Y-123122254D01*
X130487504Y-123123125D01*
X130518435Y-123132581D01*
X130549238Y-123142353D01*
X130551068Y-123142558D01*
X130552827Y-123143096D01*
X130554342Y-123143250D01*
X130605546Y-123194454D01*
X130693010Y-123253334D01*
X130800000Y-123275000D01*
X142230026Y-123275000D01*
X142525341Y-123570316D01*
X142524310Y-123644143D01*
X142542896Y-123745410D01*
X142580797Y-123841137D01*
X142636570Y-123927680D01*
X142708091Y-124001742D01*
X142725000Y-124013494D01*
X142725000Y-124150000D01*
X119269418Y-124150000D01*
X119281835Y-124146251D01*
X119518776Y-124020267D01*
X119726735Y-123850660D01*
X119897790Y-123643890D01*
X119898625Y-123642344D01*
X124295738Y-123642344D01*
X124313566Y-123739483D01*
X124349922Y-123831308D01*
X124403422Y-123914324D01*
X124472027Y-123985367D01*
X124553125Y-124041731D01*
X124643626Y-124081270D01*
X124740083Y-124102477D01*
X124838823Y-124104546D01*
X124936083Y-124087396D01*
X125028161Y-124051681D01*
X125111547Y-123998763D01*
X125183068Y-123930655D01*
X125239997Y-123849953D01*
X125280166Y-123759730D01*
X125302047Y-123663423D01*
X125303622Y-123550619D01*
X125284439Y-123453739D01*
X125246804Y-123362430D01*
X125192151Y-123280170D01*
X125122560Y-123210092D01*
X125040683Y-123154865D01*
X124949639Y-123116594D01*
X124852895Y-123096735D01*
X124754137Y-123096046D01*
X124657125Y-123114552D01*
X124565555Y-123151548D01*
X124482915Y-123205626D01*
X124412353Y-123274726D01*
X124356556Y-123356215D01*
X124317650Y-123446990D01*
X124297117Y-123543593D01*
X124295738Y-123642344D01*
X119898625Y-123642344D01*
X120025425Y-123407834D01*
X120104779Y-123151482D01*
X120132829Y-122884599D01*
X120108508Y-122617351D01*
X120032741Y-122359916D01*
X119908414Y-122122101D01*
X119740263Y-121912963D01*
X119534693Y-121740469D01*
X119299533Y-121611189D01*
X119043742Y-121530047D01*
X118777061Y-121500134D01*
X118757863Y-121500000D01*
X118242137Y-121500000D01*
X117975065Y-121526187D01*
X117718165Y-121603749D01*
X117481224Y-121729733D01*
X117273265Y-121899340D01*
X117102210Y-122106110D01*
X116974575Y-122342166D01*
X116895221Y-122598518D01*
X116867171Y-122865401D01*
X116891492Y-123132649D01*
X116967259Y-123390084D01*
X117091586Y-123627899D01*
X117259737Y-123837037D01*
X117465307Y-124009531D01*
X117700467Y-124138811D01*
X117735739Y-124150000D01*
X115769418Y-124150000D01*
X115781835Y-124146251D01*
X116018776Y-124020267D01*
X116226735Y-123850660D01*
X116397790Y-123643890D01*
X116525425Y-123407834D01*
X116604779Y-123151482D01*
X116632829Y-122884599D01*
X116608508Y-122617351D01*
X116532741Y-122359916D01*
X116408414Y-122122101D01*
X116240263Y-121912963D01*
X116034693Y-121740469D01*
X115799533Y-121611189D01*
X115543742Y-121530047D01*
X115277061Y-121500134D01*
X115257863Y-121500000D01*
X114742137Y-121500000D01*
X114475065Y-121526187D01*
X114218165Y-121603749D01*
X113981224Y-121729733D01*
X113773265Y-121899340D01*
X113602210Y-122106110D01*
X113474575Y-122342166D01*
X113451470Y-122416808D01*
X113441423Y-122379832D01*
X113318085Y-122117893D01*
X113146015Y-121885049D01*
X112931826Y-121690249D01*
X112683749Y-121540978D01*
X112411317Y-121442973D01*
X112125000Y-121400000D01*
X111875000Y-121400000D01*
X111875000Y-122800000D01*
X111895000Y-122800000D01*
X111895000Y-122950000D01*
X111875000Y-122950000D01*
X111875000Y-122970000D01*
X111725000Y-122970000D01*
X111725000Y-122950000D01*
X110170788Y-122950000D01*
X110106777Y-123179519D01*
X110158577Y-123370168D01*
X110281915Y-123632107D01*
X110453985Y-123864951D01*
X110668174Y-124059751D01*
X110818161Y-124150000D01*
X109850000Y-124150000D01*
X109850000Y-122570481D01*
X110106777Y-122570481D01*
X110170788Y-122800000D01*
X111725000Y-122800000D01*
X111725000Y-121400000D01*
X111475000Y-121400000D01*
X111188683Y-121442973D01*
X110916251Y-121540978D01*
X110668174Y-121690249D01*
X110453985Y-121885049D01*
X110281915Y-122117893D01*
X110158577Y-122379832D01*
X110106777Y-122570481D01*
X109850000Y-122570481D01*
X109850000Y-120090389D01*
X111423587Y-120090389D01*
X111461644Y-120297744D01*
X111539252Y-120493758D01*
X111653454Y-120670964D01*
X111799900Y-120822614D01*
X111973014Y-120942931D01*
X112166200Y-121027332D01*
X112372100Y-121072602D01*
X112582872Y-121077017D01*
X112790487Y-121040409D01*
X112987038Y-120964172D01*
X113165038Y-120851210D01*
X113317707Y-120705826D01*
X113439229Y-120533556D01*
X113524977Y-120340964D01*
X113571683Y-120135385D01*
X113575046Y-119894591D01*
X113534097Y-119687788D01*
X113453761Y-119492876D01*
X113337096Y-119317281D01*
X113188546Y-119167691D01*
X113013770Y-119049803D01*
X112819424Y-118968107D01*
X112612912Y-118925716D01*
X112402099Y-118924245D01*
X112195014Y-118963748D01*
X111999547Y-119042722D01*
X111823142Y-119158158D01*
X111672518Y-119305660D01*
X111553413Y-119479609D01*
X111470362Y-119673380D01*
X111426531Y-119879591D01*
X111423587Y-120090389D01*
X109850000Y-120090389D01*
X109850000Y-117429519D01*
X110106777Y-117429519D01*
X110158577Y-117620168D01*
X110281915Y-117882107D01*
X110453985Y-118114951D01*
X110668174Y-118309751D01*
X110916251Y-118459022D01*
X111188683Y-118557027D01*
X111475000Y-118600000D01*
X111725000Y-118600000D01*
X111725000Y-117200000D01*
X110170788Y-117200000D01*
X110106777Y-117429519D01*
X109850000Y-117429519D01*
X109850000Y-115850000D01*
X110818161Y-115850000D01*
X110668174Y-115940249D01*
X110668174Y-115940249D01*
G37*
X110668174Y-115940249D02*
X110453985Y-116135049D01*
X110281915Y-116367893D01*
X110158577Y-116629832D01*
X110106777Y-116820481D01*
X110170788Y-117050000D01*
X111725000Y-117050000D01*
X111725000Y-117030000D01*
X111875000Y-117030000D01*
X111875000Y-117050000D01*
X111895000Y-117050000D01*
X111895000Y-117200000D01*
X111875000Y-117200000D01*
X111875000Y-118600000D01*
X112125000Y-118600000D01*
X112411317Y-118557027D01*
X112683749Y-118459022D01*
X112931826Y-118309751D01*
X113146015Y-118114951D01*
X113318085Y-117882107D01*
X113441423Y-117620168D01*
X113451011Y-117584879D01*
X113467259Y-117640084D01*
X113591586Y-117877899D01*
X113759737Y-118087037D01*
X113965307Y-118259531D01*
X114200467Y-118388811D01*
X114456258Y-118469953D01*
X114722939Y-118499866D01*
X114742137Y-118500000D01*
X115257863Y-118500000D01*
X115524935Y-118473813D01*
X115781835Y-118396251D01*
X116018776Y-118270267D01*
X116226735Y-118100660D01*
X116397790Y-117893890D01*
X116525425Y-117657834D01*
X116604779Y-117401482D01*
X116632829Y-117134599D01*
X116608508Y-116867351D01*
X116532741Y-116609916D01*
X116408414Y-116372101D01*
X116240263Y-116162963D01*
X116034693Y-115990469D01*
X115799533Y-115861189D01*
X115764261Y-115850000D01*
X117730582Y-115850000D01*
X117718165Y-115853749D01*
X117481224Y-115979733D01*
X117273265Y-116149340D01*
X117102210Y-116356110D01*
X116974575Y-116592166D01*
X116895221Y-116848518D01*
X116867171Y-117115401D01*
X116891492Y-117382649D01*
X116967259Y-117640084D01*
X117091586Y-117877899D01*
X117259737Y-118087037D01*
X117465307Y-118259531D01*
X117700467Y-118388811D01*
X117956258Y-118469953D01*
X118222939Y-118499866D01*
X118242137Y-118500000D01*
X118757863Y-118500000D01*
X119024935Y-118473813D01*
X119281835Y-118396251D01*
X119518776Y-118270267D01*
X119726735Y-118100660D01*
X119897790Y-117893890D01*
X120025425Y-117657834D01*
X120104779Y-117401482D01*
X120132829Y-117134599D01*
X120108508Y-116867351D01*
X120032741Y-116609916D01*
X119908414Y-116372101D01*
X119740263Y-116162963D01*
X119534693Y-115990469D01*
X119299533Y-115861189D01*
X119264261Y-115850000D01*
X127125000Y-115850000D01*
X127125000Y-116128928D01*
X127053502Y-116157815D01*
X126967350Y-116214191D01*
X126893790Y-116286227D01*
X126835622Y-116371179D01*
X126795063Y-116465811D01*
X126773657Y-116566519D01*
X126772219Y-116669466D01*
X126790805Y-116770733D01*
X126828706Y-116866460D01*
X126884479Y-116953003D01*
X126903770Y-116972979D01*
X122577021Y-116972979D01*
X122544899Y-116976129D01*
X122512638Y-116978951D01*
X122510866Y-116979466D01*
X122509039Y-116979645D01*
X122478118Y-116988981D01*
X122447043Y-116998009D01*
X122445410Y-116998855D01*
X122443646Y-116999388D01*
X122415117Y-117014557D01*
X122386397Y-117029444D01*
X122384955Y-117030595D01*
X122383334Y-117031457D01*
X122358292Y-117051880D01*
X122333014Y-117072060D01*
X122330453Y-117074585D01*
X122330399Y-117074629D01*
X122330358Y-117074679D01*
X122329534Y-117075491D01*
X120555026Y-118850000D01*
X119542351Y-118850000D01*
X119486267Y-118793523D01*
X119400911Y-118735950D01*
X119305998Y-118696052D01*
X119205143Y-118675350D01*
X119102188Y-118674631D01*
X119001054Y-118693924D01*
X118905593Y-118732492D01*
X118819441Y-118788868D01*
X118745881Y-118860904D01*
X118687713Y-118945856D01*
X118647154Y-119040488D01*
X118625748Y-119141196D01*
X118624310Y-119244143D01*
X118642896Y-119345410D01*
X118680797Y-119441137D01*
X118736570Y-119527680D01*
X118808091Y-119601742D01*
X118892635Y-119660501D01*
X118986981Y-119701720D01*
X119087537Y-119723829D01*
X119190472Y-119725985D01*
X119291866Y-119708107D01*
X119387856Y-119670875D01*
X119474786Y-119615707D01*
X119543786Y-119550000D01*
X120700000Y-119550000D01*
X120732216Y-119546841D01*
X120764383Y-119544027D01*
X120766150Y-119543514D01*
X120767982Y-119543334D01*
X120798945Y-119533986D01*
X120829978Y-119524970D01*
X120831611Y-119524124D01*
X120833375Y-119523591D01*
X120861904Y-119508422D01*
X120890624Y-119493535D01*
X120892066Y-119492384D01*
X120893687Y-119491522D01*
X120918704Y-119471119D01*
X120944008Y-119450919D01*
X120946565Y-119448396D01*
X120946622Y-119448350D01*
X120946666Y-119448297D01*
X120947487Y-119447487D01*
X122721996Y-117672979D01*
X125348309Y-117672979D01*
X124309973Y-118711315D01*
X124290111Y-118735495D01*
X124270028Y-118759430D01*
X124269170Y-118760990D01*
X124268041Y-118762365D01*
X124253252Y-118789946D01*
X124238202Y-118817322D01*
X124237665Y-118819015D01*
X124236822Y-118820587D01*
X124227667Y-118850530D01*
X124218226Y-118880293D01*
X124218028Y-118882061D01*
X124217507Y-118883764D01*
X124214346Y-118914887D01*
X124210862Y-118945945D01*
X124210838Y-118949423D01*
X124210831Y-118949489D01*
X124210837Y-118949551D01*
X124210829Y-118950671D01*
X124210829Y-119000263D01*
X124205546Y-119005546D01*
X124146666Y-119093010D01*
X124125000Y-119200000D01*
X124125000Y-121400000D01*
X124143807Y-121499951D01*
X124202878Y-121591749D01*
X124293010Y-121653334D01*
X124400000Y-121675000D01*
X129002032Y-121675000D01*
X130374520Y-123047489D01*
X130399531Y-123068033D01*
X130424269Y-123088791D01*
X130425881Y-123089677D01*
X130427304Y-123090846D01*
X130455818Y-123106135D01*
X130484127Y-123121698D01*
X130485879Y-123122254D01*
X130487504Y-123123125D01*
X130518435Y-123132581D01*
X130549238Y-123142353D01*
X130551068Y-123142558D01*
X130552827Y-123143096D01*
X130554342Y-123143250D01*
X130605546Y-123194454D01*
X130693010Y-123253334D01*
X130800000Y-123275000D01*
X142230026Y-123275000D01*
X142525341Y-123570316D01*
X142524310Y-123644143D01*
X142542896Y-123745410D01*
X142580797Y-123841137D01*
X142636570Y-123927680D01*
X142708091Y-124001742D01*
X142725000Y-124013494D01*
X142725000Y-124150000D01*
X119269418Y-124150000D01*
X119281835Y-124146251D01*
X119518776Y-124020267D01*
X119726735Y-123850660D01*
X119897790Y-123643890D01*
X119898625Y-123642344D01*
X124295738Y-123642344D01*
X124313566Y-123739483D01*
X124349922Y-123831308D01*
X124403422Y-123914324D01*
X124472027Y-123985367D01*
X124553125Y-124041731D01*
X124643626Y-124081270D01*
X124740083Y-124102477D01*
X124838823Y-124104546D01*
X124936083Y-124087396D01*
X125028161Y-124051681D01*
X125111547Y-123998763D01*
X125183068Y-123930655D01*
X125239997Y-123849953D01*
X125280166Y-123759730D01*
X125302047Y-123663423D01*
X125303622Y-123550619D01*
X125284439Y-123453739D01*
X125246804Y-123362430D01*
X125192151Y-123280170D01*
X125122560Y-123210092D01*
X125040683Y-123154865D01*
X124949639Y-123116594D01*
X124852895Y-123096735D01*
X124754137Y-123096046D01*
X124657125Y-123114552D01*
X124565555Y-123151548D01*
X124482915Y-123205626D01*
X124412353Y-123274726D01*
X124356556Y-123356215D01*
X124317650Y-123446990D01*
X124297117Y-123543593D01*
X124295738Y-123642344D01*
X119898625Y-123642344D01*
X120025425Y-123407834D01*
X120104779Y-123151482D01*
X120132829Y-122884599D01*
X120108508Y-122617351D01*
X120032741Y-122359916D01*
X119908414Y-122122101D01*
X119740263Y-121912963D01*
X119534693Y-121740469D01*
X119299533Y-121611189D01*
X119043742Y-121530047D01*
X118777061Y-121500134D01*
X118757863Y-121500000D01*
X118242137Y-121500000D01*
X117975065Y-121526187D01*
X117718165Y-121603749D01*
X117481224Y-121729733D01*
X117273265Y-121899340D01*
X117102210Y-122106110D01*
X116974575Y-122342166D01*
X116895221Y-122598518D01*
X116867171Y-122865401D01*
X116891492Y-123132649D01*
X116967259Y-123390084D01*
X117091586Y-123627899D01*
X117259737Y-123837037D01*
X117465307Y-124009531D01*
X117700467Y-124138811D01*
X117735739Y-124150000D01*
X115769418Y-124150000D01*
X115781835Y-124146251D01*
X116018776Y-124020267D01*
X116226735Y-123850660D01*
X116397790Y-123643890D01*
X116525425Y-123407834D01*
X116604779Y-123151482D01*
X116632829Y-122884599D01*
X116608508Y-122617351D01*
X116532741Y-122359916D01*
X116408414Y-122122101D01*
X116240263Y-121912963D01*
X116034693Y-121740469D01*
X115799533Y-121611189D01*
X115543742Y-121530047D01*
X115277061Y-121500134D01*
X115257863Y-121500000D01*
X114742137Y-121500000D01*
X114475065Y-121526187D01*
X114218165Y-121603749D01*
X113981224Y-121729733D01*
X113773265Y-121899340D01*
X113602210Y-122106110D01*
X113474575Y-122342166D01*
X113451470Y-122416808D01*
X113441423Y-122379832D01*
X113318085Y-122117893D01*
X113146015Y-121885049D01*
X112931826Y-121690249D01*
X112683749Y-121540978D01*
X112411317Y-121442973D01*
X112125000Y-121400000D01*
X111875000Y-121400000D01*
X111875000Y-122800000D01*
X111895000Y-122800000D01*
X111895000Y-122950000D01*
X111875000Y-122950000D01*
X111875000Y-122970000D01*
X111725000Y-122970000D01*
X111725000Y-122950000D01*
X110170788Y-122950000D01*
X110106777Y-123179519D01*
X110158577Y-123370168D01*
X110281915Y-123632107D01*
X110453985Y-123864951D01*
X110668174Y-124059751D01*
X110818161Y-124150000D01*
X109850000Y-124150000D01*
X109850000Y-122570481D01*
X110106777Y-122570481D01*
X110170788Y-122800000D01*
X111725000Y-122800000D01*
X111725000Y-121400000D01*
X111475000Y-121400000D01*
X111188683Y-121442973D01*
X110916251Y-121540978D01*
X110668174Y-121690249D01*
X110453985Y-121885049D01*
X110281915Y-122117893D01*
X110158577Y-122379832D01*
X110106777Y-122570481D01*
X109850000Y-122570481D01*
X109850000Y-120090389D01*
X111423587Y-120090389D01*
X111461644Y-120297744D01*
X111539252Y-120493758D01*
X111653454Y-120670964D01*
X111799900Y-120822614D01*
X111973014Y-120942931D01*
X112166200Y-121027332D01*
X112372100Y-121072602D01*
X112582872Y-121077017D01*
X112790487Y-121040409D01*
X112987038Y-120964172D01*
X113165038Y-120851210D01*
X113317707Y-120705826D01*
X113439229Y-120533556D01*
X113524977Y-120340964D01*
X113571683Y-120135385D01*
X113575046Y-119894591D01*
X113534097Y-119687788D01*
X113453761Y-119492876D01*
X113337096Y-119317281D01*
X113188546Y-119167691D01*
X113013770Y-119049803D01*
X112819424Y-118968107D01*
X112612912Y-118925716D01*
X112402099Y-118924245D01*
X112195014Y-118963748D01*
X111999547Y-119042722D01*
X111823142Y-119158158D01*
X111672518Y-119305660D01*
X111553413Y-119479609D01*
X111470362Y-119673380D01*
X111426531Y-119879591D01*
X111423587Y-120090389D01*
X109850000Y-120090389D01*
X109850000Y-117429519D01*
X110106777Y-117429519D01*
X110158577Y-117620168D01*
X110281915Y-117882107D01*
X110453985Y-118114951D01*
X110668174Y-118309751D01*
X110916251Y-118459022D01*
X111188683Y-118557027D01*
X111475000Y-118600000D01*
X111725000Y-118600000D01*
X111725000Y-117200000D01*
X110170788Y-117200000D01*
X110106777Y-117429519D01*
X109850000Y-117429519D01*
X109850000Y-115850000D01*
X110818161Y-115850000D01*
X110668174Y-115940249D01*
G36*
X170150000Y-124150000D02*
X162275000Y-124150000D01*
X162275000Y-121600000D01*
X162256193Y-121500049D01*
X162219966Y-121443750D01*
X164375000Y-121443750D01*
X164375000Y-122011935D01*
X164389411Y-122084384D01*
X164417679Y-122152629D01*
X164458719Y-122214049D01*
X164510952Y-122266282D01*
X164572371Y-122307321D01*
X164640617Y-122335589D01*
X164713066Y-122350000D01*
X165481250Y-122350000D01*
X165575000Y-122256250D01*
X165575000Y-121350000D01*
X165725000Y-121350000D01*
X165725000Y-122256250D01*
X165818750Y-122350000D01*
X166586934Y-122350000D01*
X166659383Y-122335589D01*
X166727629Y-122307321D01*
X166789048Y-122266282D01*
X166841281Y-122214049D01*
X166882321Y-122152629D01*
X166910589Y-122084384D01*
X166925000Y-122011935D01*
X166925000Y-121443750D01*
X166831250Y-121350000D01*
X165725000Y-121350000D01*
X165575000Y-121350000D01*
X164468750Y-121350000D01*
X164375000Y-121443750D01*
X162219966Y-121443750D01*
X162197122Y-121408251D01*
X162106990Y-121346666D01*
X162000000Y-121325000D01*
X153075000Y-121325000D01*
X153075000Y-120538065D01*
X164375000Y-120538065D01*
X164375000Y-121106250D01*
X164468750Y-121200000D01*
X165575000Y-121200000D01*
X165575000Y-120293750D01*
X165725000Y-120293750D01*
X165725000Y-121200000D01*
X166831250Y-121200000D01*
X166925000Y-121106250D01*
X166925000Y-120538065D01*
X166910589Y-120465616D01*
X166882321Y-120397371D01*
X166841281Y-120335951D01*
X166789048Y-120283718D01*
X166727629Y-120242679D01*
X166659383Y-120214411D01*
X166586934Y-120200000D01*
X165818750Y-120200000D01*
X165725000Y-120293750D01*
X165575000Y-120293750D01*
X165481250Y-120200000D01*
X164713066Y-120200000D01*
X164640617Y-120214411D01*
X164572371Y-120242679D01*
X164510952Y-120283718D01*
X164458719Y-120335951D01*
X164417679Y-120397371D01*
X164389411Y-120465616D01*
X164375000Y-120538065D01*
X153075000Y-120538065D01*
X153075000Y-119124641D01*
X153136981Y-119151720D01*
X153237537Y-119173829D01*
X153340472Y-119175985D01*
X153441866Y-119158107D01*
X153537856Y-119120875D01*
X153624786Y-119065707D01*
X153699345Y-118994706D01*
X153758693Y-118910574D01*
X153800570Y-118816517D01*
X153823380Y-118716118D01*
X153825022Y-118598521D01*
X153805024Y-118497524D01*
X153765790Y-118402335D01*
X153708814Y-118316579D01*
X153636267Y-118243523D01*
X153550911Y-118185950D01*
X153455998Y-118146052D01*
X153355143Y-118125350D01*
X153252188Y-118124631D01*
X153151054Y-118143924D01*
X153075000Y-118174651D01*
X153075000Y-118025000D01*
X164473670Y-118025000D01*
X164473670Y-119425000D01*
X164477162Y-119468793D01*
X164500164Y-119543070D01*
X164542949Y-119607998D01*
X164602128Y-119658436D01*
X164673016Y-119690390D01*
X164750000Y-119701330D01*
X166550000Y-119701330D01*
X166593793Y-119697838D01*
X166668070Y-119674836D01*
X166732998Y-119632051D01*
X166783436Y-119572872D01*
X166815390Y-119501984D01*
X166826330Y-119425000D01*
X166826330Y-118857205D01*
X167023324Y-118857205D01*
X167068461Y-119103138D01*
X167160507Y-119335620D01*
X167295956Y-119545795D01*
X167469649Y-119725659D01*
X167674969Y-119868361D01*
X167904097Y-119968464D01*
X168047810Y-120000062D01*
X167938273Y-120020957D01*
X167706439Y-120114623D01*
X167497215Y-120251536D01*
X167318568Y-120426480D01*
X167177303Y-120632792D01*
X167078802Y-120862613D01*
X167026815Y-121107189D01*
X167023324Y-121357205D01*
X167068461Y-121603138D01*
X167160507Y-121835620D01*
X167295956Y-122045795D01*
X167469649Y-122225659D01*
X167674969Y-122368361D01*
X167904097Y-122468464D01*
X168148305Y-122522157D01*
X168398290Y-122527393D01*
X168644532Y-122483974D01*
X168877650Y-122393553D01*
X169088766Y-122259575D01*
X169269839Y-122087142D01*
X169413970Y-121882823D01*
X169515671Y-121654400D01*
X169571067Y-121410573D01*
X169575054Y-121124980D01*
X169526488Y-120879701D01*
X169431205Y-120648528D01*
X169292835Y-120440264D01*
X169116648Y-120262842D01*
X168909355Y-120123022D01*
X168678852Y-120026127D01*
X168552530Y-120000196D01*
X168644532Y-119983974D01*
X168877650Y-119893553D01*
X169088766Y-119759575D01*
X169269839Y-119587142D01*
X169413970Y-119382823D01*
X169515671Y-119154400D01*
X169571067Y-118910573D01*
X169575054Y-118624980D01*
X169526488Y-118379701D01*
X169431205Y-118148528D01*
X169292835Y-117940264D01*
X169116648Y-117762842D01*
X168909355Y-117623022D01*
X168678852Y-117526127D01*
X168433919Y-117475849D01*
X168183884Y-117474104D01*
X167938273Y-117520957D01*
X167706439Y-117614623D01*
X167497215Y-117751536D01*
X167318568Y-117926480D01*
X167177303Y-118132792D01*
X167078802Y-118362613D01*
X167026815Y-118607189D01*
X167023324Y-118857205D01*
X166826330Y-118857205D01*
X166826330Y-118025000D01*
X166822838Y-117981207D01*
X166799836Y-117906930D01*
X166757051Y-117842002D01*
X166697872Y-117791564D01*
X166626984Y-117759610D01*
X166550000Y-117748670D01*
X164750000Y-117748670D01*
X164706207Y-117752162D01*
X164631930Y-117775164D01*
X164567002Y-117817949D01*
X164516564Y-117877128D01*
X164484610Y-117948016D01*
X164473670Y-118025000D01*
X153075000Y-118025000D01*
X153075000Y-115850000D01*
X170150000Y-115850000D01*
X170150000Y-124150000D01*
X170150000Y-124150000D01*
G37*
X170150000Y-124150000D02*
X162275000Y-124150000D01*
X162275000Y-121600000D01*
X162256193Y-121500049D01*
X162219966Y-121443750D01*
X164375000Y-121443750D01*
X164375000Y-122011935D01*
X164389411Y-122084384D01*
X164417679Y-122152629D01*
X164458719Y-122214049D01*
X164510952Y-122266282D01*
X164572371Y-122307321D01*
X164640617Y-122335589D01*
X164713066Y-122350000D01*
X165481250Y-122350000D01*
X165575000Y-122256250D01*
X165575000Y-121350000D01*
X165725000Y-121350000D01*
X165725000Y-122256250D01*
X165818750Y-122350000D01*
X166586934Y-122350000D01*
X166659383Y-122335589D01*
X166727629Y-122307321D01*
X166789048Y-122266282D01*
X166841281Y-122214049D01*
X166882321Y-122152629D01*
X166910589Y-122084384D01*
X166925000Y-122011935D01*
X166925000Y-121443750D01*
X166831250Y-121350000D01*
X165725000Y-121350000D01*
X165575000Y-121350000D01*
X164468750Y-121350000D01*
X164375000Y-121443750D01*
X162219966Y-121443750D01*
X162197122Y-121408251D01*
X162106990Y-121346666D01*
X162000000Y-121325000D01*
X153075000Y-121325000D01*
X153075000Y-120538065D01*
X164375000Y-120538065D01*
X164375000Y-121106250D01*
X164468750Y-121200000D01*
X165575000Y-121200000D01*
X165575000Y-120293750D01*
X165725000Y-120293750D01*
X165725000Y-121200000D01*
X166831250Y-121200000D01*
X166925000Y-121106250D01*
X166925000Y-120538065D01*
X166910589Y-120465616D01*
X166882321Y-120397371D01*
X166841281Y-120335951D01*
X166789048Y-120283718D01*
X166727629Y-120242679D01*
X166659383Y-120214411D01*
X166586934Y-120200000D01*
X165818750Y-120200000D01*
X165725000Y-120293750D01*
X165575000Y-120293750D01*
X165481250Y-120200000D01*
X164713066Y-120200000D01*
X164640617Y-120214411D01*
X164572371Y-120242679D01*
X164510952Y-120283718D01*
X164458719Y-120335951D01*
X164417679Y-120397371D01*
X164389411Y-120465616D01*
X164375000Y-120538065D01*
X153075000Y-120538065D01*
X153075000Y-119124641D01*
X153136981Y-119151720D01*
X153237537Y-119173829D01*
X153340472Y-119175985D01*
X153441866Y-119158107D01*
X153537856Y-119120875D01*
X153624786Y-119065707D01*
X153699345Y-118994706D01*
X153758693Y-118910574D01*
X153800570Y-118816517D01*
X153823380Y-118716118D01*
X153825022Y-118598521D01*
X153805024Y-118497524D01*
X153765790Y-118402335D01*
X153708814Y-118316579D01*
X153636267Y-118243523D01*
X153550911Y-118185950D01*
X153455998Y-118146052D01*
X153355143Y-118125350D01*
X153252188Y-118124631D01*
X153151054Y-118143924D01*
X153075000Y-118174651D01*
X153075000Y-118025000D01*
X164473670Y-118025000D01*
X164473670Y-119425000D01*
X164477162Y-119468793D01*
X164500164Y-119543070D01*
X164542949Y-119607998D01*
X164602128Y-119658436D01*
X164673016Y-119690390D01*
X164750000Y-119701330D01*
X166550000Y-119701330D01*
X166593793Y-119697838D01*
X166668070Y-119674836D01*
X166732998Y-119632051D01*
X166783436Y-119572872D01*
X166815390Y-119501984D01*
X166826330Y-119425000D01*
X166826330Y-118857205D01*
X167023324Y-118857205D01*
X167068461Y-119103138D01*
X167160507Y-119335620D01*
X167295956Y-119545795D01*
X167469649Y-119725659D01*
X167674969Y-119868361D01*
X167904097Y-119968464D01*
X168047810Y-120000062D01*
X167938273Y-120020957D01*
X167706439Y-120114623D01*
X167497215Y-120251536D01*
X167318568Y-120426480D01*
X167177303Y-120632792D01*
X167078802Y-120862613D01*
X167026815Y-121107189D01*
X167023324Y-121357205D01*
X167068461Y-121603138D01*
X167160507Y-121835620D01*
X167295956Y-122045795D01*
X167469649Y-122225659D01*
X167674969Y-122368361D01*
X167904097Y-122468464D01*
X168148305Y-122522157D01*
X168398290Y-122527393D01*
X168644532Y-122483974D01*
X168877650Y-122393553D01*
X169088766Y-122259575D01*
X169269839Y-122087142D01*
X169413970Y-121882823D01*
X169515671Y-121654400D01*
X169571067Y-121410573D01*
X169575054Y-121124980D01*
X169526488Y-120879701D01*
X169431205Y-120648528D01*
X169292835Y-120440264D01*
X169116648Y-120262842D01*
X168909355Y-120123022D01*
X168678852Y-120026127D01*
X168552530Y-120000196D01*
X168644532Y-119983974D01*
X168877650Y-119893553D01*
X169088766Y-119759575D01*
X169269839Y-119587142D01*
X169413970Y-119382823D01*
X169515671Y-119154400D01*
X169571067Y-118910573D01*
X169575054Y-118624980D01*
X169526488Y-118379701D01*
X169431205Y-118148528D01*
X169292835Y-117940264D01*
X169116648Y-117762842D01*
X168909355Y-117623022D01*
X168678852Y-117526127D01*
X168433919Y-117475849D01*
X168183884Y-117474104D01*
X167938273Y-117520957D01*
X167706439Y-117614623D01*
X167497215Y-117751536D01*
X167318568Y-117926480D01*
X167177303Y-118132792D01*
X167078802Y-118362613D01*
X167026815Y-118607189D01*
X167023324Y-118857205D01*
X166826330Y-118857205D01*
X166826330Y-118025000D01*
X166822838Y-117981207D01*
X166799836Y-117906930D01*
X166757051Y-117842002D01*
X166697872Y-117791564D01*
X166626984Y-117759610D01*
X166550000Y-117748670D01*
X164750000Y-117748670D01*
X164706207Y-117752162D01*
X164631930Y-117775164D01*
X164567002Y-117817949D01*
X164516564Y-117877128D01*
X164484610Y-117948016D01*
X164473670Y-118025000D01*
X153075000Y-118025000D01*
X153075000Y-115850000D01*
X170150000Y-115850000D01*
X170150000Y-124150000D01*
M02*
