G04 #@! TF.FileFunction,Copper,L3,Inr,Signal*
%FSLAX46Y46*%
G04 Gerber Fmt 4.6, Leading zero omitted, Abs format (unit mm)*
G04 Created by KiCad (PCBNEW 4.0.0-rc1-stable) date 2016-04-17 08:43:01*
%MOMM*%
G01*
G04 APERTURE LIST*
%ADD10C,0.100000*%
%ADD11O,2.700000X2.200000*%
%ADD12R,1.800000X1.400000*%
%ADD13C,0.500000*%
%ADD14C,0.700000*%
%ADD15C,0.457200*%
%ADD16C,0.150000*%
G04 APERTURE END LIST*
D10*
D11*
X111800000Y-122875000D03*
X111800000Y-117125000D03*
X115000000Y-122875000D03*
X115000000Y-117125000D03*
X118500000Y-122875000D03*
X118500000Y-117125000D03*
D12*
X165650000Y-118725000D03*
X165650000Y-121275000D03*
D13*
X114300000Y-121000000D03*
X114300000Y-119100000D03*
X122550000Y-119900000D03*
X160250000Y-123649996D03*
X127450000Y-118250000D03*
X123172682Y-120912098D03*
X123882102Y-120174379D03*
X147099687Y-122050000D03*
X148750000Y-118450000D03*
X158900000Y-123650000D03*
X155150000Y-123650000D03*
X156044548Y-120463157D03*
X156400000Y-119000000D03*
D14*
X141600000Y-123600020D03*
D13*
X140800000Y-117350000D03*
X128799988Y-120274980D03*
X127475000Y-122625000D03*
D15*
X138700000Y-123600000D03*
X123400000Y-123600000D03*
D13*
X123950000Y-116625000D03*
X153300000Y-118650000D03*
X161250000Y-123650000D03*
X150400000Y-123700000D03*
X125213500Y-119834012D03*
X146350000Y-118450000D03*
X156550000Y-123650000D03*
X143100012Y-120483859D03*
X128799984Y-119600000D03*
X151500016Y-122600000D03*
X151750000Y-122050000D03*
X133550000Y-116200000D03*
X134350000Y-116200000D03*
X135100000Y-116200000D03*
X135900000Y-116200000D03*
X151746007Y-121450001D03*
D14*
X141600000Y-121549980D03*
D13*
X126200022Y-119685964D03*
X125850000Y-120250000D03*
X124799328Y-120334988D03*
X127297909Y-116625323D03*
D15*
X124800000Y-123600000D03*
D13*
X145150000Y-120450000D03*
X144459664Y-120412527D03*
X143750005Y-120500000D03*
X150950000Y-116400000D03*
X145850000Y-120500000D03*
X151850000Y-116324990D03*
X146550000Y-120550000D03*
X127450000Y-117322979D03*
X119150000Y-119200000D03*
X143399999Y-116724968D03*
X143050000Y-123600000D03*
X128172170Y-119325010D03*
D16*
X143150020Y-122050000D02*
X141600000Y-123600020D01*
X147099687Y-122050000D02*
X143150020Y-122050000D01*
X123400000Y-123600000D02*
X121800000Y-123600000D01*
X121800000Y-123600000D02*
X119350000Y-121150000D01*
X119350000Y-121150000D02*
X111850000Y-121150000D01*
X111850000Y-121150000D02*
X111800000Y-121200000D01*
X111800000Y-121200000D02*
X111800000Y-122875000D01*
X122799999Y-120149999D02*
X122550000Y-119900000D01*
X123882102Y-120174379D02*
X122824379Y-120174379D01*
X122824379Y-120174379D02*
X122799999Y-120149999D01*
X123400000Y-120750000D02*
X122799999Y-120149999D01*
X123400000Y-123600000D02*
X123400000Y-120750000D01*
X160499999Y-123399997D02*
X160250000Y-123649996D01*
X162624996Y-121275000D02*
X160499999Y-123399997D01*
X165650000Y-121275000D02*
X162624996Y-121275000D01*
X160249996Y-123650000D02*
X160250000Y-123649996D01*
X158900000Y-123650000D02*
X160249996Y-123650000D01*
X123882102Y-120174379D02*
X123882102Y-116692898D01*
X123882102Y-116692898D02*
X123950000Y-116625000D01*
X123882102Y-120174379D02*
X123882102Y-120202678D01*
X123882102Y-120202678D02*
X123172682Y-120912098D01*
X127450000Y-118250000D02*
X127200001Y-118499999D01*
X127200001Y-118499999D02*
X125556482Y-118499999D01*
X125556482Y-118499999D02*
X124132101Y-119924380D01*
X124132101Y-119924380D02*
X123882102Y-120174379D01*
X128799988Y-120274980D02*
X128446435Y-120274980D01*
X128446435Y-120274980D02*
X127450000Y-119278545D01*
X127450000Y-119278545D02*
X127450000Y-118603553D01*
X127450000Y-118603553D02*
X127450000Y-118250000D01*
X127475000Y-122625000D02*
X127475000Y-121599968D01*
X127475000Y-121599968D02*
X128799988Y-120274980D01*
X138700000Y-123600000D02*
X137725000Y-122625000D01*
X137725000Y-122625000D02*
X127475000Y-122625000D01*
X141600000Y-123600020D02*
X138700020Y-123600020D01*
X138700020Y-123600020D02*
X138700000Y-123600000D01*
X141600000Y-123600020D02*
X140800000Y-122800020D01*
X140800000Y-122800020D02*
X140800000Y-117350000D01*
X148750000Y-118450000D02*
X148750000Y-120399687D01*
X148750000Y-120399687D02*
X147099687Y-122050000D01*
X156044548Y-120463157D02*
X150763157Y-120463157D01*
X150763157Y-120463157D02*
X148750000Y-118450000D01*
X156044548Y-120463157D02*
X156044548Y-122755452D01*
X156044548Y-122755452D02*
X155150000Y-123650000D01*
X156400000Y-119000000D02*
X156400000Y-120107705D01*
X156400000Y-120107705D02*
X156044548Y-120463157D01*
X158900000Y-123650000D02*
X158900000Y-121500000D01*
X158900000Y-121500000D02*
X156400000Y-119000000D01*
G36*
X110453985Y-116135051D02*
X110158577Y-116629833D01*
X110106777Y-116820481D01*
X110170788Y-117050000D01*
X111725000Y-117050000D01*
X111725000Y-117030000D01*
X111875000Y-117030000D01*
X111875000Y-117050000D01*
X111895000Y-117050000D01*
X111895000Y-117200000D01*
X111875000Y-117200000D01*
X111875000Y-118600000D01*
X112125000Y-118600000D01*
X112307428Y-118553971D01*
X145824909Y-118553971D01*
X145904667Y-118747000D01*
X146052223Y-118894814D01*
X146245113Y-118974908D01*
X146453971Y-118975091D01*
X146647000Y-118895333D01*
X146788609Y-118753971D01*
X152774909Y-118753971D01*
X152854667Y-118947000D01*
X153002223Y-119094814D01*
X153195113Y-119174908D01*
X153403971Y-119175091D01*
X153597000Y-119095333D01*
X153744814Y-118947777D01*
X153824908Y-118754887D01*
X153825091Y-118546029D01*
X153745333Y-118353000D01*
X153597777Y-118205186D01*
X153404887Y-118125092D01*
X153196029Y-118124909D01*
X153003000Y-118204667D01*
X152855186Y-118352223D01*
X152775092Y-118545113D01*
X152774909Y-118753971D01*
X146788609Y-118753971D01*
X146794814Y-118747777D01*
X146874908Y-118554887D01*
X146875091Y-118346029D01*
X146795333Y-118153000D01*
X146667557Y-118025000D01*
X164469613Y-118025000D01*
X164469613Y-119425000D01*
X164488788Y-119526909D01*
X164549016Y-119620506D01*
X164640914Y-119683296D01*
X164750000Y-119705387D01*
X166550000Y-119705387D01*
X166651909Y-119686212D01*
X166745506Y-119625984D01*
X166808296Y-119534086D01*
X166830387Y-119425000D01*
X166830387Y-119002501D01*
X167024779Y-119002501D01*
X167218477Y-119471286D01*
X167576827Y-119830262D01*
X167986030Y-120000178D01*
X167578714Y-120168477D01*
X167219738Y-120526827D01*
X167025222Y-120995274D01*
X167024779Y-121502501D01*
X167218477Y-121971286D01*
X167576827Y-122330262D01*
X168045274Y-122524778D01*
X168552501Y-122525221D01*
X169021286Y-122331523D01*
X169380262Y-121973173D01*
X169574778Y-121504726D01*
X169575221Y-120997499D01*
X169381523Y-120528714D01*
X169023173Y-120169738D01*
X168613970Y-119999822D01*
X169021286Y-119831523D01*
X169380262Y-119473173D01*
X169574778Y-119004726D01*
X169575221Y-118497499D01*
X169381523Y-118028714D01*
X169023173Y-117669738D01*
X168554726Y-117475222D01*
X168047499Y-117474779D01*
X167578714Y-117668477D01*
X167219738Y-118026827D01*
X167025222Y-118495274D01*
X167024779Y-119002501D01*
X166830387Y-119002501D01*
X166830387Y-118025000D01*
X166811212Y-117923091D01*
X166750984Y-117829494D01*
X166659086Y-117766704D01*
X166550000Y-117744613D01*
X164750000Y-117744613D01*
X164648091Y-117763788D01*
X164554494Y-117824016D01*
X164491704Y-117915914D01*
X164469613Y-118025000D01*
X146667557Y-118025000D01*
X146647777Y-118005186D01*
X146454887Y-117925092D01*
X146246029Y-117924909D01*
X146053000Y-118004667D01*
X145905186Y-118152223D01*
X145825092Y-118345113D01*
X145824909Y-118553971D01*
X112307428Y-118553971D01*
X112683749Y-118459021D01*
X113146015Y-118114949D01*
X113441423Y-117620167D01*
X113441559Y-117619665D01*
X113447830Y-117651190D01*
X113745892Y-118097272D01*
X114191974Y-118395334D01*
X114718164Y-118500000D01*
X115281836Y-118500000D01*
X115808026Y-118395334D01*
X116254108Y-118097272D01*
X116552170Y-117651190D01*
X116656836Y-117125000D01*
X116552170Y-116598810D01*
X116254108Y-116152728D01*
X115808026Y-115854666D01*
X115784569Y-115850000D01*
X117715431Y-115850000D01*
X117691974Y-115854666D01*
X117245892Y-116152728D01*
X116947830Y-116598810D01*
X116843164Y-117125000D01*
X116947830Y-117651190D01*
X117245892Y-118097272D01*
X117691974Y-118395334D01*
X118218164Y-118500000D01*
X118781836Y-118500000D01*
X119308026Y-118395334D01*
X119754108Y-118097272D01*
X120052170Y-117651190D01*
X120156836Y-117125000D01*
X120078125Y-116729294D01*
X126772818Y-116729294D01*
X126852576Y-116922323D01*
X126990524Y-117060512D01*
X126925092Y-117218092D01*
X126924909Y-117426950D01*
X127004667Y-117619979D01*
X127152223Y-117767793D01*
X127345113Y-117847887D01*
X127553971Y-117848070D01*
X127747000Y-117768312D01*
X127894814Y-117620756D01*
X127974908Y-117427866D01*
X127975091Y-117219008D01*
X127895333Y-117025979D01*
X127757385Y-116887790D01*
X127781821Y-116828939D01*
X142874908Y-116828939D01*
X142954666Y-117021968D01*
X143102222Y-117169782D01*
X143295112Y-117249876D01*
X143503970Y-117250059D01*
X143696999Y-117170301D01*
X143844813Y-117022745D01*
X143924907Y-116829855D01*
X143925090Y-116620997D01*
X143845332Y-116427968D01*
X143697776Y-116280154D01*
X143504886Y-116200060D01*
X143296028Y-116199877D01*
X143102999Y-116279635D01*
X142955185Y-116427191D01*
X142875091Y-116620081D01*
X142874908Y-116828939D01*
X127781821Y-116828939D01*
X127822817Y-116730210D01*
X127823000Y-116521352D01*
X127743242Y-116328323D01*
X127595686Y-116180509D01*
X127402796Y-116100415D01*
X127193938Y-116100232D01*
X127000909Y-116179990D01*
X126853095Y-116327546D01*
X126773001Y-116520436D01*
X126772818Y-116729294D01*
X120078125Y-116729294D01*
X120052170Y-116598810D01*
X119754108Y-116152728D01*
X119308026Y-115854666D01*
X119284569Y-115850000D01*
X133157500Y-115850000D01*
X133105186Y-115902223D01*
X133025092Y-116095113D01*
X133024909Y-116303971D01*
X133104667Y-116497000D01*
X133252223Y-116644814D01*
X133445113Y-116724908D01*
X133653971Y-116725091D01*
X133847000Y-116645333D01*
X133950050Y-116542463D01*
X134052223Y-116644814D01*
X134245113Y-116724908D01*
X134453971Y-116725091D01*
X134647000Y-116645333D01*
X134725007Y-116567463D01*
X134802223Y-116644814D01*
X134995113Y-116724908D01*
X135203971Y-116725091D01*
X135397000Y-116645333D01*
X135500050Y-116542463D01*
X135602223Y-116644814D01*
X135795113Y-116724908D01*
X136003971Y-116725091D01*
X136197000Y-116645333D01*
X136344814Y-116497777D01*
X136424908Y-116304887D01*
X136425091Y-116096029D01*
X136345333Y-115903000D01*
X136292426Y-115850000D01*
X151624775Y-115850000D01*
X151553000Y-115879657D01*
X151405186Y-116027213D01*
X151380067Y-116087707D01*
X151247777Y-115955186D01*
X151054887Y-115875092D01*
X150846029Y-115874909D01*
X150653000Y-115954667D01*
X150505186Y-116102223D01*
X150425092Y-116295113D01*
X150424909Y-116503971D01*
X150504667Y-116697000D01*
X150652223Y-116844814D01*
X150845113Y-116924908D01*
X151053971Y-116925091D01*
X151247000Y-116845333D01*
X151394814Y-116697777D01*
X151419933Y-116637283D01*
X151552223Y-116769804D01*
X151745113Y-116849898D01*
X151953971Y-116850081D01*
X152147000Y-116770323D01*
X152294814Y-116622767D01*
X152374908Y-116429877D01*
X152375091Y-116221019D01*
X152295333Y-116027990D01*
X152147777Y-115880176D01*
X152075104Y-115850000D01*
X170150000Y-115850000D01*
X170150000Y-124150000D01*
X161414696Y-124150000D01*
X161547000Y-124095333D01*
X161694814Y-123947777D01*
X161774908Y-123754887D01*
X161775091Y-123546029D01*
X161695333Y-123353000D01*
X161547777Y-123205186D01*
X161354887Y-123125092D01*
X161146029Y-123124909D01*
X160953000Y-123204667D01*
X160805186Y-123352223D01*
X160725092Y-123545113D01*
X160724909Y-123753971D01*
X160804667Y-123947000D01*
X160952223Y-124094814D01*
X161085127Y-124150000D01*
X156714696Y-124150000D01*
X156847000Y-124095333D01*
X156994814Y-123947777D01*
X157074908Y-123754887D01*
X157075091Y-123546029D01*
X156995333Y-123353000D01*
X156847777Y-123205186D01*
X156654887Y-123125092D01*
X156446029Y-123124909D01*
X156253000Y-123204667D01*
X156105186Y-123352223D01*
X156025092Y-123545113D01*
X156024909Y-123753971D01*
X156104667Y-123947000D01*
X156252223Y-124094814D01*
X156385127Y-124150000D01*
X150685705Y-124150000D01*
X150697000Y-124145333D01*
X150844814Y-123997777D01*
X150924908Y-123804887D01*
X150925091Y-123596029D01*
X150845333Y-123403000D01*
X150697777Y-123255186D01*
X150504887Y-123175092D01*
X150296029Y-123174909D01*
X150103000Y-123254667D01*
X149955186Y-123402223D01*
X149875092Y-123595113D01*
X149874909Y-123803971D01*
X149954667Y-123997000D01*
X150102223Y-124144814D01*
X150114712Y-124150000D01*
X119284569Y-124150000D01*
X119308026Y-124145334D01*
X119754108Y-123847272D01*
X119852690Y-123699733D01*
X124296313Y-123699733D01*
X124372820Y-123884894D01*
X124514361Y-124026682D01*
X124699388Y-124103512D01*
X124899733Y-124103687D01*
X125084894Y-124027180D01*
X125226682Y-123885639D01*
X125302117Y-123703971D01*
X142524909Y-123703971D01*
X142604667Y-123897000D01*
X142752223Y-124044814D01*
X142945113Y-124124908D01*
X143153971Y-124125091D01*
X143347000Y-124045333D01*
X143494814Y-123897777D01*
X143574908Y-123704887D01*
X143575091Y-123496029D01*
X143495333Y-123303000D01*
X143347777Y-123155186D01*
X143154887Y-123075092D01*
X142946029Y-123074909D01*
X142753000Y-123154667D01*
X142605186Y-123302223D01*
X142525092Y-123495113D01*
X142524909Y-123703971D01*
X125302117Y-123703971D01*
X125303512Y-123700612D01*
X125303687Y-123500267D01*
X125227180Y-123315106D01*
X125085639Y-123173318D01*
X124900612Y-123096488D01*
X124700267Y-123096313D01*
X124515106Y-123172820D01*
X124373318Y-123314361D01*
X124296488Y-123499388D01*
X124296313Y-123699733D01*
X119852690Y-123699733D01*
X120052170Y-123401190D01*
X120156836Y-122875000D01*
X120122817Y-122703971D01*
X150974925Y-122703971D01*
X151054683Y-122897000D01*
X151202239Y-123044814D01*
X151395129Y-123124908D01*
X151603987Y-123125091D01*
X151797016Y-123045333D01*
X151944830Y-122897777D01*
X152024924Y-122704887D01*
X152025100Y-122504382D01*
X152047000Y-122495333D01*
X152194814Y-122347777D01*
X152274908Y-122154887D01*
X152275091Y-121946029D01*
X152195333Y-121753000D01*
X152190470Y-121748128D01*
X152190821Y-121747778D01*
X152270915Y-121554888D01*
X152271012Y-121443750D01*
X164375000Y-121443750D01*
X164375000Y-122049592D01*
X164432090Y-122187421D01*
X164537580Y-122292910D01*
X164675408Y-122350000D01*
X165481250Y-122350000D01*
X165575000Y-122256250D01*
X165575000Y-121350000D01*
X165725000Y-121350000D01*
X165725000Y-122256250D01*
X165818750Y-122350000D01*
X166624592Y-122350000D01*
X166762420Y-122292910D01*
X166867910Y-122187421D01*
X166925000Y-122049592D01*
X166925000Y-121443750D01*
X166831250Y-121350000D01*
X165725000Y-121350000D01*
X165575000Y-121350000D01*
X164468750Y-121350000D01*
X164375000Y-121443750D01*
X152271012Y-121443750D01*
X152271098Y-121346030D01*
X152191340Y-121153001D01*
X152043784Y-121005187D01*
X151850894Y-120925093D01*
X151642036Y-120924910D01*
X151449007Y-121004668D01*
X151301193Y-121152224D01*
X151221099Y-121345114D01*
X151220916Y-121553972D01*
X151300674Y-121747001D01*
X151305537Y-121751873D01*
X151305186Y-121752223D01*
X151225092Y-121945113D01*
X151224916Y-122145618D01*
X151203016Y-122154667D01*
X151055202Y-122302223D01*
X150975108Y-122495113D01*
X150974925Y-122703971D01*
X120122817Y-122703971D01*
X120052170Y-122348810D01*
X119754108Y-121902728D01*
X119411426Y-121673755D01*
X140974892Y-121673755D01*
X141069842Y-121903551D01*
X141245504Y-122079520D01*
X141475134Y-122174871D01*
X141723775Y-122175088D01*
X141953571Y-122080138D01*
X142129540Y-121904476D01*
X142224891Y-121674846D01*
X142225108Y-121426205D01*
X142130158Y-121196409D01*
X141954496Y-121020440D01*
X141724866Y-120925089D01*
X141476225Y-120924872D01*
X141246429Y-121019822D01*
X141070460Y-121195484D01*
X140975109Y-121425114D01*
X140974892Y-121673755D01*
X119411426Y-121673755D01*
X119308026Y-121604666D01*
X118781836Y-121500000D01*
X118218164Y-121500000D01*
X117691974Y-121604666D01*
X117245892Y-121902728D01*
X116947830Y-122348810D01*
X116843164Y-122875000D01*
X116947830Y-123401190D01*
X117245892Y-123847272D01*
X117691974Y-124145334D01*
X117715431Y-124150000D01*
X115784569Y-124150000D01*
X115808026Y-124145334D01*
X116254108Y-123847272D01*
X116552170Y-123401190D01*
X116656836Y-122875000D01*
X116552170Y-122348810D01*
X116254108Y-121902728D01*
X115808026Y-121604666D01*
X115281836Y-121500000D01*
X114718164Y-121500000D01*
X114191974Y-121604666D01*
X113745892Y-121902728D01*
X113447830Y-122348810D01*
X113441559Y-122380335D01*
X113441423Y-122379833D01*
X113146015Y-121885051D01*
X112683749Y-121540979D01*
X112125000Y-121400000D01*
X111875000Y-121400000D01*
X111875000Y-122800000D01*
X111895000Y-122800000D01*
X111895000Y-122950000D01*
X111875000Y-122950000D01*
X111875000Y-122970000D01*
X111725000Y-122970000D01*
X111725000Y-122950000D01*
X110170788Y-122950000D01*
X110106777Y-123179519D01*
X110158577Y-123370167D01*
X110453985Y-123864949D01*
X110836955Y-124150000D01*
X109850000Y-124150000D01*
X109850000Y-122570481D01*
X110106777Y-122570481D01*
X110170788Y-122800000D01*
X111725000Y-122800000D01*
X111725000Y-121400000D01*
X111475000Y-121400000D01*
X110916251Y-121540979D01*
X110453985Y-121885051D01*
X110158577Y-122379833D01*
X110106777Y-122570481D01*
X109850000Y-122570481D01*
X109850000Y-120212893D01*
X111424814Y-120212893D01*
X111588128Y-120608143D01*
X111890267Y-120910809D01*
X112285231Y-121074813D01*
X112712893Y-121075186D01*
X113108143Y-120911872D01*
X113410809Y-120609733D01*
X113481720Y-120438959D01*
X124274237Y-120438959D01*
X124353995Y-120631988D01*
X124501551Y-120779802D01*
X124694441Y-120859896D01*
X124903299Y-120860079D01*
X125096328Y-120780321D01*
X125244142Y-120632765D01*
X125324236Y-120439875D01*
X125324309Y-120356277D01*
X125325636Y-120355729D01*
X125404667Y-120547000D01*
X125552223Y-120694814D01*
X125745113Y-120774908D01*
X125953971Y-120775091D01*
X126147000Y-120695333D01*
X126254690Y-120587830D01*
X142574921Y-120587830D01*
X142654679Y-120780859D01*
X142802235Y-120928673D01*
X142995125Y-121008767D01*
X143203983Y-121008950D01*
X143397012Y-120929192D01*
X143416857Y-120909381D01*
X143452228Y-120944814D01*
X143645118Y-121024908D01*
X143853976Y-121025091D01*
X144047005Y-120945333D01*
X144148542Y-120843973D01*
X144161887Y-120857341D01*
X144354777Y-120937435D01*
X144563635Y-120937618D01*
X144756664Y-120857860D01*
X144786050Y-120828525D01*
X144852223Y-120894814D01*
X145045113Y-120974908D01*
X145253971Y-120975091D01*
X145447000Y-120895333D01*
X145474963Y-120867419D01*
X145552223Y-120944814D01*
X145745113Y-121024908D01*
X145953971Y-121025091D01*
X146147000Y-120945333D01*
X146174963Y-120917419D01*
X146252223Y-120994814D01*
X146445113Y-121074908D01*
X146653971Y-121075091D01*
X146847000Y-120995333D01*
X146994814Y-120847777D01*
X147074908Y-120654887D01*
X147075043Y-120500408D01*
X164375000Y-120500408D01*
X164375000Y-121106250D01*
X164468750Y-121200000D01*
X165575000Y-121200000D01*
X165575000Y-120293750D01*
X165725000Y-120293750D01*
X165725000Y-121200000D01*
X166831250Y-121200000D01*
X166925000Y-121106250D01*
X166925000Y-120500408D01*
X166867910Y-120362579D01*
X166762420Y-120257090D01*
X166624592Y-120200000D01*
X165818750Y-120200000D01*
X165725000Y-120293750D01*
X165575000Y-120293750D01*
X165481250Y-120200000D01*
X164675408Y-120200000D01*
X164537580Y-120257090D01*
X164432090Y-120362579D01*
X164375000Y-120500408D01*
X147075043Y-120500408D01*
X147075091Y-120446029D01*
X146995333Y-120253000D01*
X146847777Y-120105186D01*
X146654887Y-120025092D01*
X146446029Y-120024909D01*
X146253000Y-120104667D01*
X146225037Y-120132581D01*
X146147777Y-120055186D01*
X145954887Y-119975092D01*
X145746029Y-119974909D01*
X145553000Y-120054667D01*
X145525037Y-120082581D01*
X145447777Y-120005186D01*
X145254887Y-119925092D01*
X145046029Y-119924909D01*
X144853000Y-120004667D01*
X144823614Y-120034002D01*
X144757441Y-119967713D01*
X144564551Y-119887619D01*
X144355693Y-119887436D01*
X144162664Y-119967194D01*
X144061127Y-120068554D01*
X144047782Y-120055186D01*
X143854892Y-119975092D01*
X143646034Y-119974909D01*
X143453005Y-120054667D01*
X143433160Y-120074478D01*
X143397789Y-120039045D01*
X143204899Y-119958951D01*
X142996041Y-119958768D01*
X142803012Y-120038526D01*
X142655198Y-120186082D01*
X142575104Y-120378972D01*
X142574921Y-120587830D01*
X126254690Y-120587830D01*
X126294814Y-120547777D01*
X126374908Y-120354887D01*
X126375060Y-120181691D01*
X126497022Y-120131297D01*
X126644836Y-119983741D01*
X126724930Y-119790851D01*
X126725113Y-119581993D01*
X126661890Y-119428981D01*
X127647079Y-119428981D01*
X127726837Y-119622010D01*
X127874393Y-119769824D01*
X128067283Y-119849918D01*
X128276141Y-119850101D01*
X128326650Y-119829231D01*
X128354651Y-119897000D01*
X128502207Y-120044814D01*
X128695097Y-120124908D01*
X128903955Y-120125091D01*
X129096984Y-120045333D01*
X129244798Y-119897777D01*
X129324892Y-119704887D01*
X129325075Y-119496029D01*
X129245317Y-119303000D01*
X129097761Y-119155186D01*
X128904871Y-119075092D01*
X128696013Y-119074909D01*
X128645504Y-119095779D01*
X128617503Y-119028010D01*
X128469947Y-118880196D01*
X128277057Y-118800102D01*
X128068199Y-118799919D01*
X127875170Y-118879677D01*
X127727356Y-119027233D01*
X127647262Y-119220123D01*
X127647079Y-119428981D01*
X126661890Y-119428981D01*
X126645355Y-119388964D01*
X126497799Y-119241150D01*
X126304909Y-119161056D01*
X126096051Y-119160873D01*
X125903022Y-119240631D01*
X125755208Y-119388187D01*
X125676080Y-119578752D01*
X125658833Y-119537012D01*
X125511277Y-119389198D01*
X125318387Y-119309104D01*
X125109529Y-119308921D01*
X124916500Y-119388679D01*
X124768686Y-119536235D01*
X124688592Y-119729125D01*
X124688519Y-119812723D01*
X124502328Y-119889655D01*
X124354514Y-120037211D01*
X124274420Y-120230101D01*
X124274237Y-120438959D01*
X113481720Y-120438959D01*
X113574813Y-120214769D01*
X113575186Y-119787107D01*
X113411872Y-119391857D01*
X113324140Y-119303971D01*
X118624909Y-119303971D01*
X118704667Y-119497000D01*
X118852223Y-119644814D01*
X119045113Y-119724908D01*
X119253971Y-119725091D01*
X119447000Y-119645333D01*
X119594814Y-119497777D01*
X119674908Y-119304887D01*
X119675091Y-119096029D01*
X119595333Y-118903000D01*
X119447777Y-118755186D01*
X119254887Y-118675092D01*
X119046029Y-118674909D01*
X118853000Y-118754667D01*
X118705186Y-118902223D01*
X118625092Y-119095113D01*
X118624909Y-119303971D01*
X113324140Y-119303971D01*
X113109733Y-119089191D01*
X112714769Y-118925187D01*
X112287107Y-118924814D01*
X111891857Y-119088128D01*
X111589191Y-119390267D01*
X111425187Y-119785231D01*
X111424814Y-120212893D01*
X109850000Y-120212893D01*
X109850000Y-117429519D01*
X110106777Y-117429519D01*
X110158577Y-117620167D01*
X110453985Y-118114949D01*
X110916251Y-118459021D01*
X111475000Y-118600000D01*
X111725000Y-118600000D01*
X111725000Y-117200000D01*
X110170788Y-117200000D01*
X110106777Y-117429519D01*
X109850000Y-117429519D01*
X109850000Y-115850000D01*
X110836955Y-115850000D01*
X110453985Y-116135051D01*
X110453985Y-116135051D01*
G37*
X110453985Y-116135051D02*
X110158577Y-116629833D01*
X110106777Y-116820481D01*
X110170788Y-117050000D01*
X111725000Y-117050000D01*
X111725000Y-117030000D01*
X111875000Y-117030000D01*
X111875000Y-117050000D01*
X111895000Y-117050000D01*
X111895000Y-117200000D01*
X111875000Y-117200000D01*
X111875000Y-118600000D01*
X112125000Y-118600000D01*
X112307428Y-118553971D01*
X145824909Y-118553971D01*
X145904667Y-118747000D01*
X146052223Y-118894814D01*
X146245113Y-118974908D01*
X146453971Y-118975091D01*
X146647000Y-118895333D01*
X146788609Y-118753971D01*
X152774909Y-118753971D01*
X152854667Y-118947000D01*
X153002223Y-119094814D01*
X153195113Y-119174908D01*
X153403971Y-119175091D01*
X153597000Y-119095333D01*
X153744814Y-118947777D01*
X153824908Y-118754887D01*
X153825091Y-118546029D01*
X153745333Y-118353000D01*
X153597777Y-118205186D01*
X153404887Y-118125092D01*
X153196029Y-118124909D01*
X153003000Y-118204667D01*
X152855186Y-118352223D01*
X152775092Y-118545113D01*
X152774909Y-118753971D01*
X146788609Y-118753971D01*
X146794814Y-118747777D01*
X146874908Y-118554887D01*
X146875091Y-118346029D01*
X146795333Y-118153000D01*
X146667557Y-118025000D01*
X164469613Y-118025000D01*
X164469613Y-119425000D01*
X164488788Y-119526909D01*
X164549016Y-119620506D01*
X164640914Y-119683296D01*
X164750000Y-119705387D01*
X166550000Y-119705387D01*
X166651909Y-119686212D01*
X166745506Y-119625984D01*
X166808296Y-119534086D01*
X166830387Y-119425000D01*
X166830387Y-119002501D01*
X167024779Y-119002501D01*
X167218477Y-119471286D01*
X167576827Y-119830262D01*
X167986030Y-120000178D01*
X167578714Y-120168477D01*
X167219738Y-120526827D01*
X167025222Y-120995274D01*
X167024779Y-121502501D01*
X167218477Y-121971286D01*
X167576827Y-122330262D01*
X168045274Y-122524778D01*
X168552501Y-122525221D01*
X169021286Y-122331523D01*
X169380262Y-121973173D01*
X169574778Y-121504726D01*
X169575221Y-120997499D01*
X169381523Y-120528714D01*
X169023173Y-120169738D01*
X168613970Y-119999822D01*
X169021286Y-119831523D01*
X169380262Y-119473173D01*
X169574778Y-119004726D01*
X169575221Y-118497499D01*
X169381523Y-118028714D01*
X169023173Y-117669738D01*
X168554726Y-117475222D01*
X168047499Y-117474779D01*
X167578714Y-117668477D01*
X167219738Y-118026827D01*
X167025222Y-118495274D01*
X167024779Y-119002501D01*
X166830387Y-119002501D01*
X166830387Y-118025000D01*
X166811212Y-117923091D01*
X166750984Y-117829494D01*
X166659086Y-117766704D01*
X166550000Y-117744613D01*
X164750000Y-117744613D01*
X164648091Y-117763788D01*
X164554494Y-117824016D01*
X164491704Y-117915914D01*
X164469613Y-118025000D01*
X146667557Y-118025000D01*
X146647777Y-118005186D01*
X146454887Y-117925092D01*
X146246029Y-117924909D01*
X146053000Y-118004667D01*
X145905186Y-118152223D01*
X145825092Y-118345113D01*
X145824909Y-118553971D01*
X112307428Y-118553971D01*
X112683749Y-118459021D01*
X113146015Y-118114949D01*
X113441423Y-117620167D01*
X113441559Y-117619665D01*
X113447830Y-117651190D01*
X113745892Y-118097272D01*
X114191974Y-118395334D01*
X114718164Y-118500000D01*
X115281836Y-118500000D01*
X115808026Y-118395334D01*
X116254108Y-118097272D01*
X116552170Y-117651190D01*
X116656836Y-117125000D01*
X116552170Y-116598810D01*
X116254108Y-116152728D01*
X115808026Y-115854666D01*
X115784569Y-115850000D01*
X117715431Y-115850000D01*
X117691974Y-115854666D01*
X117245892Y-116152728D01*
X116947830Y-116598810D01*
X116843164Y-117125000D01*
X116947830Y-117651190D01*
X117245892Y-118097272D01*
X117691974Y-118395334D01*
X118218164Y-118500000D01*
X118781836Y-118500000D01*
X119308026Y-118395334D01*
X119754108Y-118097272D01*
X120052170Y-117651190D01*
X120156836Y-117125000D01*
X120078125Y-116729294D01*
X126772818Y-116729294D01*
X126852576Y-116922323D01*
X126990524Y-117060512D01*
X126925092Y-117218092D01*
X126924909Y-117426950D01*
X127004667Y-117619979D01*
X127152223Y-117767793D01*
X127345113Y-117847887D01*
X127553971Y-117848070D01*
X127747000Y-117768312D01*
X127894814Y-117620756D01*
X127974908Y-117427866D01*
X127975091Y-117219008D01*
X127895333Y-117025979D01*
X127757385Y-116887790D01*
X127781821Y-116828939D01*
X142874908Y-116828939D01*
X142954666Y-117021968D01*
X143102222Y-117169782D01*
X143295112Y-117249876D01*
X143503970Y-117250059D01*
X143696999Y-117170301D01*
X143844813Y-117022745D01*
X143924907Y-116829855D01*
X143925090Y-116620997D01*
X143845332Y-116427968D01*
X143697776Y-116280154D01*
X143504886Y-116200060D01*
X143296028Y-116199877D01*
X143102999Y-116279635D01*
X142955185Y-116427191D01*
X142875091Y-116620081D01*
X142874908Y-116828939D01*
X127781821Y-116828939D01*
X127822817Y-116730210D01*
X127823000Y-116521352D01*
X127743242Y-116328323D01*
X127595686Y-116180509D01*
X127402796Y-116100415D01*
X127193938Y-116100232D01*
X127000909Y-116179990D01*
X126853095Y-116327546D01*
X126773001Y-116520436D01*
X126772818Y-116729294D01*
X120078125Y-116729294D01*
X120052170Y-116598810D01*
X119754108Y-116152728D01*
X119308026Y-115854666D01*
X119284569Y-115850000D01*
X133157500Y-115850000D01*
X133105186Y-115902223D01*
X133025092Y-116095113D01*
X133024909Y-116303971D01*
X133104667Y-116497000D01*
X133252223Y-116644814D01*
X133445113Y-116724908D01*
X133653971Y-116725091D01*
X133847000Y-116645333D01*
X133950050Y-116542463D01*
X134052223Y-116644814D01*
X134245113Y-116724908D01*
X134453971Y-116725091D01*
X134647000Y-116645333D01*
X134725007Y-116567463D01*
X134802223Y-116644814D01*
X134995113Y-116724908D01*
X135203971Y-116725091D01*
X135397000Y-116645333D01*
X135500050Y-116542463D01*
X135602223Y-116644814D01*
X135795113Y-116724908D01*
X136003971Y-116725091D01*
X136197000Y-116645333D01*
X136344814Y-116497777D01*
X136424908Y-116304887D01*
X136425091Y-116096029D01*
X136345333Y-115903000D01*
X136292426Y-115850000D01*
X151624775Y-115850000D01*
X151553000Y-115879657D01*
X151405186Y-116027213D01*
X151380067Y-116087707D01*
X151247777Y-115955186D01*
X151054887Y-115875092D01*
X150846029Y-115874909D01*
X150653000Y-115954667D01*
X150505186Y-116102223D01*
X150425092Y-116295113D01*
X150424909Y-116503971D01*
X150504667Y-116697000D01*
X150652223Y-116844814D01*
X150845113Y-116924908D01*
X151053971Y-116925091D01*
X151247000Y-116845333D01*
X151394814Y-116697777D01*
X151419933Y-116637283D01*
X151552223Y-116769804D01*
X151745113Y-116849898D01*
X151953971Y-116850081D01*
X152147000Y-116770323D01*
X152294814Y-116622767D01*
X152374908Y-116429877D01*
X152375091Y-116221019D01*
X152295333Y-116027990D01*
X152147777Y-115880176D01*
X152075104Y-115850000D01*
X170150000Y-115850000D01*
X170150000Y-124150000D01*
X161414696Y-124150000D01*
X161547000Y-124095333D01*
X161694814Y-123947777D01*
X161774908Y-123754887D01*
X161775091Y-123546029D01*
X161695333Y-123353000D01*
X161547777Y-123205186D01*
X161354887Y-123125092D01*
X161146029Y-123124909D01*
X160953000Y-123204667D01*
X160805186Y-123352223D01*
X160725092Y-123545113D01*
X160724909Y-123753971D01*
X160804667Y-123947000D01*
X160952223Y-124094814D01*
X161085127Y-124150000D01*
X156714696Y-124150000D01*
X156847000Y-124095333D01*
X156994814Y-123947777D01*
X157074908Y-123754887D01*
X157075091Y-123546029D01*
X156995333Y-123353000D01*
X156847777Y-123205186D01*
X156654887Y-123125092D01*
X156446029Y-123124909D01*
X156253000Y-123204667D01*
X156105186Y-123352223D01*
X156025092Y-123545113D01*
X156024909Y-123753971D01*
X156104667Y-123947000D01*
X156252223Y-124094814D01*
X156385127Y-124150000D01*
X150685705Y-124150000D01*
X150697000Y-124145333D01*
X150844814Y-123997777D01*
X150924908Y-123804887D01*
X150925091Y-123596029D01*
X150845333Y-123403000D01*
X150697777Y-123255186D01*
X150504887Y-123175092D01*
X150296029Y-123174909D01*
X150103000Y-123254667D01*
X149955186Y-123402223D01*
X149875092Y-123595113D01*
X149874909Y-123803971D01*
X149954667Y-123997000D01*
X150102223Y-124144814D01*
X150114712Y-124150000D01*
X119284569Y-124150000D01*
X119308026Y-124145334D01*
X119754108Y-123847272D01*
X119852690Y-123699733D01*
X124296313Y-123699733D01*
X124372820Y-123884894D01*
X124514361Y-124026682D01*
X124699388Y-124103512D01*
X124899733Y-124103687D01*
X125084894Y-124027180D01*
X125226682Y-123885639D01*
X125302117Y-123703971D01*
X142524909Y-123703971D01*
X142604667Y-123897000D01*
X142752223Y-124044814D01*
X142945113Y-124124908D01*
X143153971Y-124125091D01*
X143347000Y-124045333D01*
X143494814Y-123897777D01*
X143574908Y-123704887D01*
X143575091Y-123496029D01*
X143495333Y-123303000D01*
X143347777Y-123155186D01*
X143154887Y-123075092D01*
X142946029Y-123074909D01*
X142753000Y-123154667D01*
X142605186Y-123302223D01*
X142525092Y-123495113D01*
X142524909Y-123703971D01*
X125302117Y-123703971D01*
X125303512Y-123700612D01*
X125303687Y-123500267D01*
X125227180Y-123315106D01*
X125085639Y-123173318D01*
X124900612Y-123096488D01*
X124700267Y-123096313D01*
X124515106Y-123172820D01*
X124373318Y-123314361D01*
X124296488Y-123499388D01*
X124296313Y-123699733D01*
X119852690Y-123699733D01*
X120052170Y-123401190D01*
X120156836Y-122875000D01*
X120122817Y-122703971D01*
X150974925Y-122703971D01*
X151054683Y-122897000D01*
X151202239Y-123044814D01*
X151395129Y-123124908D01*
X151603987Y-123125091D01*
X151797016Y-123045333D01*
X151944830Y-122897777D01*
X152024924Y-122704887D01*
X152025100Y-122504382D01*
X152047000Y-122495333D01*
X152194814Y-122347777D01*
X152274908Y-122154887D01*
X152275091Y-121946029D01*
X152195333Y-121753000D01*
X152190470Y-121748128D01*
X152190821Y-121747778D01*
X152270915Y-121554888D01*
X152271012Y-121443750D01*
X164375000Y-121443750D01*
X164375000Y-122049592D01*
X164432090Y-122187421D01*
X164537580Y-122292910D01*
X164675408Y-122350000D01*
X165481250Y-122350000D01*
X165575000Y-122256250D01*
X165575000Y-121350000D01*
X165725000Y-121350000D01*
X165725000Y-122256250D01*
X165818750Y-122350000D01*
X166624592Y-122350000D01*
X166762420Y-122292910D01*
X166867910Y-122187421D01*
X166925000Y-122049592D01*
X166925000Y-121443750D01*
X166831250Y-121350000D01*
X165725000Y-121350000D01*
X165575000Y-121350000D01*
X164468750Y-121350000D01*
X164375000Y-121443750D01*
X152271012Y-121443750D01*
X152271098Y-121346030D01*
X152191340Y-121153001D01*
X152043784Y-121005187D01*
X151850894Y-120925093D01*
X151642036Y-120924910D01*
X151449007Y-121004668D01*
X151301193Y-121152224D01*
X151221099Y-121345114D01*
X151220916Y-121553972D01*
X151300674Y-121747001D01*
X151305537Y-121751873D01*
X151305186Y-121752223D01*
X151225092Y-121945113D01*
X151224916Y-122145618D01*
X151203016Y-122154667D01*
X151055202Y-122302223D01*
X150975108Y-122495113D01*
X150974925Y-122703971D01*
X120122817Y-122703971D01*
X120052170Y-122348810D01*
X119754108Y-121902728D01*
X119411426Y-121673755D01*
X140974892Y-121673755D01*
X141069842Y-121903551D01*
X141245504Y-122079520D01*
X141475134Y-122174871D01*
X141723775Y-122175088D01*
X141953571Y-122080138D01*
X142129540Y-121904476D01*
X142224891Y-121674846D01*
X142225108Y-121426205D01*
X142130158Y-121196409D01*
X141954496Y-121020440D01*
X141724866Y-120925089D01*
X141476225Y-120924872D01*
X141246429Y-121019822D01*
X141070460Y-121195484D01*
X140975109Y-121425114D01*
X140974892Y-121673755D01*
X119411426Y-121673755D01*
X119308026Y-121604666D01*
X118781836Y-121500000D01*
X118218164Y-121500000D01*
X117691974Y-121604666D01*
X117245892Y-121902728D01*
X116947830Y-122348810D01*
X116843164Y-122875000D01*
X116947830Y-123401190D01*
X117245892Y-123847272D01*
X117691974Y-124145334D01*
X117715431Y-124150000D01*
X115784569Y-124150000D01*
X115808026Y-124145334D01*
X116254108Y-123847272D01*
X116552170Y-123401190D01*
X116656836Y-122875000D01*
X116552170Y-122348810D01*
X116254108Y-121902728D01*
X115808026Y-121604666D01*
X115281836Y-121500000D01*
X114718164Y-121500000D01*
X114191974Y-121604666D01*
X113745892Y-121902728D01*
X113447830Y-122348810D01*
X113441559Y-122380335D01*
X113441423Y-122379833D01*
X113146015Y-121885051D01*
X112683749Y-121540979D01*
X112125000Y-121400000D01*
X111875000Y-121400000D01*
X111875000Y-122800000D01*
X111895000Y-122800000D01*
X111895000Y-122950000D01*
X111875000Y-122950000D01*
X111875000Y-122970000D01*
X111725000Y-122970000D01*
X111725000Y-122950000D01*
X110170788Y-122950000D01*
X110106777Y-123179519D01*
X110158577Y-123370167D01*
X110453985Y-123864949D01*
X110836955Y-124150000D01*
X109850000Y-124150000D01*
X109850000Y-122570481D01*
X110106777Y-122570481D01*
X110170788Y-122800000D01*
X111725000Y-122800000D01*
X111725000Y-121400000D01*
X111475000Y-121400000D01*
X110916251Y-121540979D01*
X110453985Y-121885051D01*
X110158577Y-122379833D01*
X110106777Y-122570481D01*
X109850000Y-122570481D01*
X109850000Y-120212893D01*
X111424814Y-120212893D01*
X111588128Y-120608143D01*
X111890267Y-120910809D01*
X112285231Y-121074813D01*
X112712893Y-121075186D01*
X113108143Y-120911872D01*
X113410809Y-120609733D01*
X113481720Y-120438959D01*
X124274237Y-120438959D01*
X124353995Y-120631988D01*
X124501551Y-120779802D01*
X124694441Y-120859896D01*
X124903299Y-120860079D01*
X125096328Y-120780321D01*
X125244142Y-120632765D01*
X125324236Y-120439875D01*
X125324309Y-120356277D01*
X125325636Y-120355729D01*
X125404667Y-120547000D01*
X125552223Y-120694814D01*
X125745113Y-120774908D01*
X125953971Y-120775091D01*
X126147000Y-120695333D01*
X126254690Y-120587830D01*
X142574921Y-120587830D01*
X142654679Y-120780859D01*
X142802235Y-120928673D01*
X142995125Y-121008767D01*
X143203983Y-121008950D01*
X143397012Y-120929192D01*
X143416857Y-120909381D01*
X143452228Y-120944814D01*
X143645118Y-121024908D01*
X143853976Y-121025091D01*
X144047005Y-120945333D01*
X144148542Y-120843973D01*
X144161887Y-120857341D01*
X144354777Y-120937435D01*
X144563635Y-120937618D01*
X144756664Y-120857860D01*
X144786050Y-120828525D01*
X144852223Y-120894814D01*
X145045113Y-120974908D01*
X145253971Y-120975091D01*
X145447000Y-120895333D01*
X145474963Y-120867419D01*
X145552223Y-120944814D01*
X145745113Y-121024908D01*
X145953971Y-121025091D01*
X146147000Y-120945333D01*
X146174963Y-120917419D01*
X146252223Y-120994814D01*
X146445113Y-121074908D01*
X146653971Y-121075091D01*
X146847000Y-120995333D01*
X146994814Y-120847777D01*
X147074908Y-120654887D01*
X147075043Y-120500408D01*
X164375000Y-120500408D01*
X164375000Y-121106250D01*
X164468750Y-121200000D01*
X165575000Y-121200000D01*
X165575000Y-120293750D01*
X165725000Y-120293750D01*
X165725000Y-121200000D01*
X166831250Y-121200000D01*
X166925000Y-121106250D01*
X166925000Y-120500408D01*
X166867910Y-120362579D01*
X166762420Y-120257090D01*
X166624592Y-120200000D01*
X165818750Y-120200000D01*
X165725000Y-120293750D01*
X165575000Y-120293750D01*
X165481250Y-120200000D01*
X164675408Y-120200000D01*
X164537580Y-120257090D01*
X164432090Y-120362579D01*
X164375000Y-120500408D01*
X147075043Y-120500408D01*
X147075091Y-120446029D01*
X146995333Y-120253000D01*
X146847777Y-120105186D01*
X146654887Y-120025092D01*
X146446029Y-120024909D01*
X146253000Y-120104667D01*
X146225037Y-120132581D01*
X146147777Y-120055186D01*
X145954887Y-119975092D01*
X145746029Y-119974909D01*
X145553000Y-120054667D01*
X145525037Y-120082581D01*
X145447777Y-120005186D01*
X145254887Y-119925092D01*
X145046029Y-119924909D01*
X144853000Y-120004667D01*
X144823614Y-120034002D01*
X144757441Y-119967713D01*
X144564551Y-119887619D01*
X144355693Y-119887436D01*
X144162664Y-119967194D01*
X144061127Y-120068554D01*
X144047782Y-120055186D01*
X143854892Y-119975092D01*
X143646034Y-119974909D01*
X143453005Y-120054667D01*
X143433160Y-120074478D01*
X143397789Y-120039045D01*
X143204899Y-119958951D01*
X142996041Y-119958768D01*
X142803012Y-120038526D01*
X142655198Y-120186082D01*
X142575104Y-120378972D01*
X142574921Y-120587830D01*
X126254690Y-120587830D01*
X126294814Y-120547777D01*
X126374908Y-120354887D01*
X126375060Y-120181691D01*
X126497022Y-120131297D01*
X126644836Y-119983741D01*
X126724930Y-119790851D01*
X126725113Y-119581993D01*
X126661890Y-119428981D01*
X127647079Y-119428981D01*
X127726837Y-119622010D01*
X127874393Y-119769824D01*
X128067283Y-119849918D01*
X128276141Y-119850101D01*
X128326650Y-119829231D01*
X128354651Y-119897000D01*
X128502207Y-120044814D01*
X128695097Y-120124908D01*
X128903955Y-120125091D01*
X129096984Y-120045333D01*
X129244798Y-119897777D01*
X129324892Y-119704887D01*
X129325075Y-119496029D01*
X129245317Y-119303000D01*
X129097761Y-119155186D01*
X128904871Y-119075092D01*
X128696013Y-119074909D01*
X128645504Y-119095779D01*
X128617503Y-119028010D01*
X128469947Y-118880196D01*
X128277057Y-118800102D01*
X128068199Y-118799919D01*
X127875170Y-118879677D01*
X127727356Y-119027233D01*
X127647262Y-119220123D01*
X127647079Y-119428981D01*
X126661890Y-119428981D01*
X126645355Y-119388964D01*
X126497799Y-119241150D01*
X126304909Y-119161056D01*
X126096051Y-119160873D01*
X125903022Y-119240631D01*
X125755208Y-119388187D01*
X125676080Y-119578752D01*
X125658833Y-119537012D01*
X125511277Y-119389198D01*
X125318387Y-119309104D01*
X125109529Y-119308921D01*
X124916500Y-119388679D01*
X124768686Y-119536235D01*
X124688592Y-119729125D01*
X124688519Y-119812723D01*
X124502328Y-119889655D01*
X124354514Y-120037211D01*
X124274420Y-120230101D01*
X124274237Y-120438959D01*
X113481720Y-120438959D01*
X113574813Y-120214769D01*
X113575186Y-119787107D01*
X113411872Y-119391857D01*
X113324140Y-119303971D01*
X118624909Y-119303971D01*
X118704667Y-119497000D01*
X118852223Y-119644814D01*
X119045113Y-119724908D01*
X119253971Y-119725091D01*
X119447000Y-119645333D01*
X119594814Y-119497777D01*
X119674908Y-119304887D01*
X119675091Y-119096029D01*
X119595333Y-118903000D01*
X119447777Y-118755186D01*
X119254887Y-118675092D01*
X119046029Y-118674909D01*
X118853000Y-118754667D01*
X118705186Y-118902223D01*
X118625092Y-119095113D01*
X118624909Y-119303971D01*
X113324140Y-119303971D01*
X113109733Y-119089191D01*
X112714769Y-118925187D01*
X112287107Y-118924814D01*
X111891857Y-119088128D01*
X111589191Y-119390267D01*
X111425187Y-119785231D01*
X111424814Y-120212893D01*
X109850000Y-120212893D01*
X109850000Y-117429519D01*
X110106777Y-117429519D01*
X110158577Y-117620167D01*
X110453985Y-118114949D01*
X110916251Y-118459021D01*
X111475000Y-118600000D01*
X111725000Y-118600000D01*
X111725000Y-117200000D01*
X110170788Y-117200000D01*
X110106777Y-117429519D01*
X109850000Y-117429519D01*
X109850000Y-115850000D01*
X110836955Y-115850000D01*
X110453985Y-116135051D01*
M02*
