G04 #@! TF.FileFunction,Soldermask,Top*
%FSLAX46Y46*%
G04 Gerber Fmt 4.6, Leading zero omitted, Abs format (unit mm)*
G04 Created by KiCad (PCBNEW 4.0.4-stable) date 11/13/16 19:36:12*
%MOMM*%
%LPD*%
G01*
G04 APERTURE LIST*
%ADD10C,0.100000*%
G04 APERTURE END LIST*
D10*
G36*
X112066733Y-121675068D02*
X112073771Y-121675117D01*
X112306510Y-121701223D01*
X112529746Y-121772038D01*
X112734976Y-121884864D01*
X112914383Y-122035404D01*
X113061133Y-122217924D01*
X113169637Y-122425472D01*
X113235761Y-122650142D01*
X113235764Y-122650176D01*
X113235768Y-122650189D01*
X113256990Y-122883375D01*
X113232513Y-123116245D01*
X113232510Y-123116254D01*
X113232506Y-123116294D01*
X113163252Y-123340019D01*
X113051861Y-123546031D01*
X112902577Y-123726485D01*
X112721086Y-123874505D01*
X112514300Y-123984455D01*
X112290097Y-124052146D01*
X112057016Y-124075000D01*
X111542949Y-124075000D01*
X111533267Y-124074932D01*
X111526229Y-124074883D01*
X111293490Y-124048777D01*
X111070254Y-123977962D01*
X110865024Y-123865136D01*
X110685617Y-123714596D01*
X110538867Y-123532076D01*
X110430363Y-123324528D01*
X110364239Y-123099858D01*
X110364236Y-123099824D01*
X110364232Y-123099811D01*
X110343010Y-122866625D01*
X110367487Y-122633755D01*
X110367490Y-122633746D01*
X110367494Y-122633706D01*
X110436748Y-122409981D01*
X110548139Y-122203969D01*
X110697423Y-122023515D01*
X110878914Y-121875495D01*
X111085700Y-121765545D01*
X111309903Y-121697854D01*
X111542984Y-121675000D01*
X112057051Y-121675000D01*
X112066733Y-121675068D01*
X112066733Y-121675068D01*
G37*
G36*
X118766733Y-121675068D02*
X118773771Y-121675117D01*
X119006510Y-121701223D01*
X119229746Y-121772038D01*
X119434976Y-121884864D01*
X119614383Y-122035404D01*
X119761133Y-122217924D01*
X119869637Y-122425472D01*
X119935761Y-122650142D01*
X119935764Y-122650176D01*
X119935768Y-122650189D01*
X119956990Y-122883375D01*
X119932513Y-123116245D01*
X119932510Y-123116254D01*
X119932506Y-123116294D01*
X119863252Y-123340019D01*
X119751861Y-123546031D01*
X119602577Y-123726485D01*
X119421086Y-123874505D01*
X119214300Y-123984455D01*
X118990097Y-124052146D01*
X118757016Y-124075000D01*
X118242949Y-124075000D01*
X118233267Y-124074932D01*
X118226229Y-124074883D01*
X117993490Y-124048777D01*
X117770254Y-123977962D01*
X117565024Y-123865136D01*
X117385617Y-123714596D01*
X117238867Y-123532076D01*
X117130363Y-123324528D01*
X117064239Y-123099858D01*
X117064236Y-123099824D01*
X117064232Y-123099811D01*
X117043010Y-122866625D01*
X117067487Y-122633755D01*
X117067490Y-122633746D01*
X117067494Y-122633706D01*
X117136748Y-122409981D01*
X117248139Y-122203969D01*
X117397423Y-122023515D01*
X117578914Y-121875495D01*
X117785700Y-121765545D01*
X118009903Y-121697854D01*
X118242984Y-121675000D01*
X118757051Y-121675000D01*
X118766733Y-121675068D01*
X118766733Y-121675068D01*
G37*
G36*
X115266733Y-121675068D02*
X115273771Y-121675117D01*
X115506510Y-121701223D01*
X115729746Y-121772038D01*
X115934976Y-121884864D01*
X116114383Y-122035404D01*
X116261133Y-122217924D01*
X116369637Y-122425472D01*
X116435761Y-122650142D01*
X116435764Y-122650176D01*
X116435768Y-122650189D01*
X116456990Y-122883375D01*
X116432513Y-123116245D01*
X116432510Y-123116254D01*
X116432506Y-123116294D01*
X116363252Y-123340019D01*
X116251861Y-123546031D01*
X116102577Y-123726485D01*
X115921086Y-123874505D01*
X115714300Y-123984455D01*
X115490097Y-124052146D01*
X115257016Y-124075000D01*
X114742949Y-124075000D01*
X114733267Y-124074932D01*
X114726229Y-124074883D01*
X114493490Y-124048777D01*
X114270254Y-123977962D01*
X114065024Y-123865136D01*
X113885617Y-123714596D01*
X113738867Y-123532076D01*
X113630363Y-123324528D01*
X113564239Y-123099858D01*
X113564236Y-123099824D01*
X113564232Y-123099811D01*
X113543010Y-122866625D01*
X113567487Y-122633755D01*
X113567490Y-122633746D01*
X113567494Y-122633706D01*
X113636748Y-122409981D01*
X113748139Y-122203969D01*
X113897423Y-122023515D01*
X114078914Y-121875495D01*
X114285700Y-121765545D01*
X114509903Y-121697854D01*
X114742984Y-121675000D01*
X115257051Y-121675000D01*
X115266733Y-121675068D01*
X115266733Y-121675068D01*
G37*
G36*
X136300000Y-123600000D02*
X129100000Y-123600000D01*
X129100000Y-116400000D01*
X136300000Y-116400000D01*
X136300000Y-123600000D01*
X136300000Y-123600000D01*
G37*
G36*
X163950000Y-123300000D02*
X156750000Y-123300000D01*
X156750000Y-116100000D01*
X163950000Y-116100000D01*
X163950000Y-123300000D01*
X163950000Y-123300000D01*
G37*
G36*
X151200000Y-123250000D02*
X149000000Y-123250000D01*
X149000000Y-121050000D01*
X151200000Y-121050000D01*
X151200000Y-123250000D01*
X151200000Y-123250000D01*
G37*
G36*
X154800000Y-122850000D02*
X152100000Y-122850000D01*
X152100000Y-121150000D01*
X154800000Y-121150000D01*
X154800000Y-122850000D01*
X154800000Y-122850000D01*
G37*
G36*
X127150000Y-122770000D02*
X124450000Y-122770000D01*
X124450000Y-121770000D01*
X127150000Y-121770000D01*
X127150000Y-122770000D01*
X127150000Y-122770000D01*
G37*
G36*
X168415537Y-120150731D02*
X168626855Y-120194109D01*
X168825717Y-120277703D01*
X169004559Y-120398333D01*
X169156568Y-120551407D01*
X169275942Y-120731081D01*
X169358148Y-120930524D01*
X169399981Y-121141796D01*
X169399981Y-121141805D01*
X169400047Y-121142139D01*
X169396606Y-121388534D01*
X169396530Y-121388868D01*
X169396530Y-121388880D01*
X169348817Y-121598893D01*
X169261074Y-121795965D01*
X169136726Y-121972240D01*
X168980502Y-122121010D01*
X168798367Y-122236596D01*
X168597243Y-122314608D01*
X168384802Y-122352066D01*
X168169128Y-122347549D01*
X167958434Y-122301225D01*
X167760756Y-122214861D01*
X167583618Y-122091747D01*
X167433763Y-121936567D01*
X167316907Y-121755244D01*
X167237495Y-121554671D01*
X167198552Y-121342488D01*
X167201565Y-121126789D01*
X167246414Y-120915786D01*
X167331398Y-120717506D01*
X167453273Y-120539512D01*
X167607401Y-120388577D01*
X167787908Y-120270457D01*
X167987921Y-120189646D01*
X168199818Y-120149225D01*
X168415537Y-120150731D01*
X168415537Y-120150731D01*
G37*
G36*
X140100000Y-122350000D02*
X138800000Y-122350000D01*
X138800000Y-120650000D01*
X140100000Y-120650000D01*
X140100000Y-122350000D01*
X140100000Y-122350000D01*
G37*
G36*
X138400000Y-122350000D02*
X137100000Y-122350000D01*
X137100000Y-120650000D01*
X138400000Y-120650000D01*
X138400000Y-122350000D01*
X138400000Y-122350000D01*
G37*
G36*
X166650000Y-122075000D02*
X164650000Y-122075000D01*
X164650000Y-120475000D01*
X166650000Y-120475000D01*
X166650000Y-122075000D01*
X166650000Y-122075000D01*
G37*
G36*
X127150000Y-121635000D02*
X124450000Y-121635000D01*
X124450000Y-120635000D01*
X127150000Y-120635000D01*
X127150000Y-121635000D01*
X127150000Y-121635000D01*
G37*
G36*
X142800000Y-121100000D02*
X140600000Y-121100000D01*
X140600000Y-118900000D01*
X142800000Y-118900000D01*
X142800000Y-121100000D01*
X142800000Y-121100000D01*
G37*
G36*
X112594531Y-119100597D02*
X112767427Y-119136088D01*
X112930132Y-119204483D01*
X113076458Y-119303180D01*
X113200828Y-119428422D01*
X113298502Y-119575433D01*
X113365757Y-119738608D01*
X113399973Y-119911407D01*
X113399973Y-119911416D01*
X113400039Y-119911750D01*
X113397224Y-120113346D01*
X113397148Y-120113680D01*
X113397148Y-120113691D01*
X113358123Y-120285459D01*
X113286334Y-120446699D01*
X113184592Y-120590927D01*
X113056778Y-120712644D01*
X112907755Y-120807216D01*
X112743199Y-120871043D01*
X112569383Y-120901692D01*
X112392923Y-120897996D01*
X112220536Y-120860094D01*
X112058800Y-120789433D01*
X111913869Y-120688703D01*
X111791260Y-120561738D01*
X111695651Y-120413382D01*
X111630676Y-120249277D01*
X111598814Y-120075672D01*
X111601279Y-119899191D01*
X111637974Y-119726552D01*
X111707506Y-119564322D01*
X111807222Y-119418691D01*
X111933328Y-119295198D01*
X112081015Y-119198555D01*
X112244663Y-119132437D01*
X112418032Y-119099365D01*
X112594531Y-119100597D01*
X112594531Y-119100597D01*
G37*
G36*
X168415537Y-117650731D02*
X168626855Y-117694109D01*
X168825717Y-117777703D01*
X169004559Y-117898333D01*
X169156568Y-118051407D01*
X169275942Y-118231081D01*
X169358148Y-118430524D01*
X169399981Y-118641796D01*
X169399981Y-118641805D01*
X169400047Y-118642139D01*
X169396606Y-118888534D01*
X169396530Y-118888868D01*
X169396530Y-118888880D01*
X169348817Y-119098893D01*
X169261074Y-119295965D01*
X169136726Y-119472240D01*
X168980502Y-119621010D01*
X168798367Y-119736596D01*
X168597243Y-119814608D01*
X168384802Y-119852066D01*
X168169128Y-119847549D01*
X167958434Y-119801225D01*
X167760756Y-119714861D01*
X167583618Y-119591747D01*
X167433763Y-119436567D01*
X167316907Y-119255244D01*
X167237495Y-119054671D01*
X167198552Y-118842488D01*
X167201565Y-118626789D01*
X167246414Y-118415786D01*
X167331398Y-118217506D01*
X167453273Y-118039512D01*
X167607401Y-117888577D01*
X167787908Y-117770457D01*
X167987921Y-117689646D01*
X168199818Y-117649225D01*
X168415537Y-117650731D01*
X168415537Y-117650731D01*
G37*
G36*
X124075000Y-119800000D02*
X122925000Y-119800000D01*
X122925000Y-118600000D01*
X124075000Y-118600000D01*
X124075000Y-119800000D01*
X124075000Y-119800000D01*
G37*
G36*
X166650000Y-119525000D02*
X164650000Y-119525000D01*
X164650000Y-117925000D01*
X166650000Y-117925000D01*
X166650000Y-119525000D01*
X166650000Y-119525000D01*
G37*
G36*
X127150000Y-119365000D02*
X124450000Y-119365000D01*
X124450000Y-118365000D01*
X127150000Y-118365000D01*
X127150000Y-119365000D01*
X127150000Y-119365000D01*
G37*
G36*
X138400000Y-119350000D02*
X137100000Y-119350000D01*
X137100000Y-117650000D01*
X138400000Y-117650000D01*
X138400000Y-119350000D01*
X138400000Y-119350000D01*
G37*
G36*
X140100000Y-119350000D02*
X138800000Y-119350000D01*
X138800000Y-117650000D01*
X140100000Y-117650000D01*
X140100000Y-119350000D01*
X140100000Y-119350000D01*
G37*
G36*
X151200000Y-118950000D02*
X149000000Y-118950000D01*
X149000000Y-116750000D01*
X151200000Y-116750000D01*
X151200000Y-118950000D01*
X151200000Y-118950000D01*
G37*
G36*
X124075000Y-118350000D02*
X122925000Y-118350000D01*
X122925000Y-117150000D01*
X124075000Y-117150000D01*
X124075000Y-118350000D01*
X124075000Y-118350000D01*
G37*
G36*
X112066733Y-115925068D02*
X112073771Y-115925117D01*
X112306510Y-115951223D01*
X112529746Y-116022038D01*
X112734976Y-116134864D01*
X112914383Y-116285404D01*
X113061133Y-116467924D01*
X113169637Y-116675472D01*
X113235761Y-116900142D01*
X113235764Y-116900176D01*
X113235768Y-116900189D01*
X113256990Y-117133375D01*
X113232513Y-117366245D01*
X113232510Y-117366254D01*
X113232506Y-117366294D01*
X113163252Y-117590019D01*
X113051861Y-117796031D01*
X112902577Y-117976485D01*
X112721086Y-118124505D01*
X112514300Y-118234455D01*
X112290097Y-118302146D01*
X112057016Y-118325000D01*
X111542949Y-118325000D01*
X111533267Y-118324932D01*
X111526229Y-118324883D01*
X111293490Y-118298777D01*
X111070254Y-118227962D01*
X110865024Y-118115136D01*
X110685617Y-117964596D01*
X110538867Y-117782076D01*
X110430363Y-117574528D01*
X110364239Y-117349858D01*
X110364236Y-117349824D01*
X110364232Y-117349811D01*
X110343010Y-117116625D01*
X110367487Y-116883755D01*
X110367490Y-116883746D01*
X110367494Y-116883706D01*
X110436748Y-116659981D01*
X110548139Y-116453969D01*
X110697423Y-116273515D01*
X110878914Y-116125495D01*
X111085700Y-116015545D01*
X111309903Y-115947854D01*
X111542984Y-115925000D01*
X112057051Y-115925000D01*
X112066733Y-115925068D01*
X112066733Y-115925068D01*
G37*
G36*
X118766733Y-115925068D02*
X118773771Y-115925117D01*
X119006510Y-115951223D01*
X119229746Y-116022038D01*
X119434976Y-116134864D01*
X119614383Y-116285404D01*
X119761133Y-116467924D01*
X119869637Y-116675472D01*
X119935761Y-116900142D01*
X119935764Y-116900176D01*
X119935768Y-116900189D01*
X119956990Y-117133375D01*
X119932513Y-117366245D01*
X119932510Y-117366254D01*
X119932506Y-117366294D01*
X119863252Y-117590019D01*
X119751861Y-117796031D01*
X119602577Y-117976485D01*
X119421086Y-118124505D01*
X119214300Y-118234455D01*
X118990097Y-118302146D01*
X118757016Y-118325000D01*
X118242949Y-118325000D01*
X118233267Y-118324932D01*
X118226229Y-118324883D01*
X117993490Y-118298777D01*
X117770254Y-118227962D01*
X117565024Y-118115136D01*
X117385617Y-117964596D01*
X117238867Y-117782076D01*
X117130363Y-117574528D01*
X117064239Y-117349858D01*
X117064236Y-117349824D01*
X117064232Y-117349811D01*
X117043010Y-117116625D01*
X117067487Y-116883755D01*
X117067490Y-116883746D01*
X117067494Y-116883706D01*
X117136748Y-116659981D01*
X117248139Y-116453969D01*
X117397423Y-116273515D01*
X117578914Y-116125495D01*
X117785700Y-116015545D01*
X118009903Y-115947854D01*
X118242984Y-115925000D01*
X118757051Y-115925000D01*
X118766733Y-115925068D01*
X118766733Y-115925068D01*
G37*
G36*
X115266733Y-115925068D02*
X115273771Y-115925117D01*
X115506510Y-115951223D01*
X115729746Y-116022038D01*
X115934976Y-116134864D01*
X116114383Y-116285404D01*
X116261133Y-116467924D01*
X116369637Y-116675472D01*
X116435761Y-116900142D01*
X116435764Y-116900176D01*
X116435768Y-116900189D01*
X116456990Y-117133375D01*
X116432513Y-117366245D01*
X116432510Y-117366254D01*
X116432506Y-117366294D01*
X116363252Y-117590019D01*
X116251861Y-117796031D01*
X116102577Y-117976485D01*
X115921086Y-118124505D01*
X115714300Y-118234455D01*
X115490097Y-118302146D01*
X115257016Y-118325000D01*
X114742949Y-118325000D01*
X114733267Y-118324932D01*
X114726229Y-118324883D01*
X114493490Y-118298777D01*
X114270254Y-118227962D01*
X114065024Y-118115136D01*
X113885617Y-117964596D01*
X113738867Y-117782076D01*
X113630363Y-117574528D01*
X113564239Y-117349858D01*
X113564236Y-117349824D01*
X113564232Y-117349811D01*
X113543010Y-117116625D01*
X113567487Y-116883755D01*
X113567490Y-116883746D01*
X113567494Y-116883706D01*
X113636748Y-116659981D01*
X113748139Y-116453969D01*
X113897423Y-116273515D01*
X114078914Y-116125495D01*
X114285700Y-116015545D01*
X114509903Y-115947854D01*
X114742984Y-115925000D01*
X115257051Y-115925000D01*
X115266733Y-115925068D01*
X115266733Y-115925068D01*
G37*
G36*
X154800000Y-118250000D02*
X152100000Y-118250000D01*
X152100000Y-116550000D01*
X154800000Y-116550000D01*
X154800000Y-118250000D01*
X154800000Y-118250000D01*
G37*
G36*
X127150000Y-118230000D02*
X124450000Y-118230000D01*
X124450000Y-117230000D01*
X127150000Y-117230000D01*
X127150000Y-118230000D01*
X127150000Y-118230000D01*
G37*
M02*
