G04 #@! TF.FileFunction,Legend,Top*
%FSLAX46Y46*%
G04 Gerber Fmt 4.6, Leading zero omitted, Abs format (unit mm)*
G04 Created by KiCad (PCBNEW 4.0.0-rc1-stable) date 2016-04-17 08:43:01*
%MOMM*%
G01*
G04 APERTURE LIST*
%ADD10C,0.100000*%
%ADD11C,0.152000*%
%ADD12C,0.150000*%
G04 APERTURE END LIST*
D10*
D11*
X110000000Y-123150000D02*
X110000000Y-116850000D01*
X110000000Y-116850000D02*
X121600000Y-116850000D01*
X121600000Y-116850000D02*
X121600000Y-123150000D01*
X121600000Y-123150000D02*
X110000000Y-123150000D01*
X107400000Y-122550000D02*
X107400000Y-117450000D01*
X107400000Y-117450000D02*
X110000000Y-117450000D01*
X110000000Y-117450000D02*
X110000000Y-122550000D01*
X110000000Y-122550000D02*
X107400000Y-122550000D01*
X151950000Y-115900000D02*
X164150000Y-115900000D01*
X164150000Y-115900000D02*
X164150000Y-123500000D01*
X164150000Y-123500000D02*
X151950000Y-123500000D01*
X151950000Y-123500000D02*
X151950000Y-115900000D01*
X124300000Y-116200000D02*
X136500000Y-116200000D01*
X136500000Y-116200000D02*
X136500000Y-123800000D01*
X136500000Y-123800000D02*
X124300000Y-123800000D01*
X124300000Y-123800000D02*
X124300000Y-116200000D01*
D12*
X142350000Y-121200000D02*
X142350000Y-123400000D01*
X142350000Y-123400000D02*
X149050000Y-123400000D01*
X149050000Y-116600000D02*
X142350000Y-116600000D01*
X142350000Y-116600000D02*
X142350000Y-118800000D01*
D11*
X122700000Y-116975000D02*
X124300000Y-116975000D01*
X124300000Y-116975000D02*
X124300000Y-119975000D01*
X124300000Y-119975000D02*
X122700000Y-119975000D01*
X122700000Y-119975000D02*
X122700000Y-116975000D01*
X166920000Y-117455000D02*
X166920000Y-119995000D01*
X166920000Y-119995000D02*
X164380000Y-119995000D01*
X164380000Y-119995000D02*
X164380000Y-117455000D01*
X164380000Y-117455000D02*
X166920000Y-117455000D01*
X167149000Y-117455000D02*
X167149000Y-119995000D01*
X167149000Y-119995000D02*
X166996000Y-119995000D01*
X166996000Y-119995000D02*
X166996000Y-117455000D01*
X166996000Y-117455000D02*
X167149000Y-117455000D01*
X166920000Y-120005000D02*
X166920000Y-122545000D01*
X166920000Y-122545000D02*
X164380000Y-122545000D01*
X164380000Y-122545000D02*
X164380000Y-120005000D01*
X164380000Y-120005000D02*
X166920000Y-120005000D01*
X167149000Y-120005000D02*
X167149000Y-122545000D01*
X167149000Y-122545000D02*
X166996000Y-122545000D01*
X166996000Y-122545000D02*
X166996000Y-120005000D01*
X166996000Y-120005000D02*
X167149000Y-120005000D01*
X140400000Y-117400000D02*
X140400000Y-122600000D01*
X140400000Y-122600000D02*
X136800000Y-122600000D01*
X136800000Y-122600000D02*
X136800000Y-117400000D01*
X136800000Y-117400000D02*
X140400000Y-117400000D01*
X140300000Y-118225000D02*
G75*
G03X140300000Y-118225000I-75000J0D01*
G01*
X164488095Y-116671429D02*
X165250000Y-116671429D01*
X164869048Y-117052381D02*
X164869048Y-116290476D01*
X166250000Y-117052381D02*
X165678571Y-117052381D01*
X165964285Y-117052381D02*
X165964285Y-116052381D01*
X165869047Y-116195238D01*
X165773809Y-116290476D01*
X165678571Y-116338095D01*
X166630952Y-116147619D02*
X166678571Y-116100000D01*
X166773809Y-116052381D01*
X167011905Y-116052381D01*
X167107143Y-116100000D01*
X167154762Y-116147619D01*
X167202381Y-116242857D01*
X167202381Y-116338095D01*
X167154762Y-116480952D01*
X166583333Y-117052381D01*
X167202381Y-117052381D01*
X167488095Y-116052381D02*
X167821428Y-117052381D01*
X168154762Y-116052381D01*
X165038096Y-122950000D02*
X164942858Y-122902381D01*
X164800001Y-122902381D01*
X164657143Y-122950000D01*
X164561905Y-123045238D01*
X164514286Y-123140476D01*
X164466667Y-123330952D01*
X164466667Y-123473810D01*
X164514286Y-123664286D01*
X164561905Y-123759524D01*
X164657143Y-123854762D01*
X164800001Y-123902381D01*
X164895239Y-123902381D01*
X165038096Y-123854762D01*
X165085715Y-123807143D01*
X165085715Y-123473810D01*
X164895239Y-123473810D01*
X165514286Y-123902381D02*
X165514286Y-122902381D01*
X166085715Y-123902381D01*
X166085715Y-122902381D01*
X166561905Y-123902381D02*
X166561905Y-122902381D01*
X166800000Y-122902381D01*
X166942858Y-122950000D01*
X167038096Y-123045238D01*
X167085715Y-123140476D01*
X167133334Y-123330952D01*
X167133334Y-123473810D01*
X167085715Y-123664286D01*
X167038096Y-123759524D01*
X166942858Y-123854762D01*
X166800000Y-123902381D01*
X166561905Y-123902381D01*
M02*
